<svg xmlns="http://www.w3.org/2000/svg" xmlns:xlink="http://www.w3.org/1999/xlink" width="944" height="450"><defs><path id="a" d="M571.576.095l-69.739 11.56-30.1 4.99c-8.627 1.43-20.09 1.431-25.398 9.265-2.777 4.097-71.251.933-72.006 5.823-1.952 12.61-42.204 11.05-83.668 33.468-4.293-21.622-14.878-15.972-18.238-37.681-.755-4.89-1.881-9.866-4.658-13.963-3.154-4.655-33.91-2.182-60.16.29-17.924 1.689-33.744 3.378-37.245 2.797l-30.1-4.99C117.02 7.802 37.37 3.949 14.124.095 6.323-.863 0 5.568 0 14.46l56.206 349.236c0 8.894 6.753 15.028 15.084 13.703l179.935 4.579c16.544 0 77.308-36.63 77.25-36.934-.55-2.877-1.4-8.069-2.458-14.834 6.517 2.383 10.908 5.164 10.027 9.798-.058.304 38.289 41.97 54.83 41.97l123.534-4.579c8.33 1.325 15.083-4.809 15.083-13.703L585.7 14.46c0-8.892-6.324-15.323-14.123-14.364"/></defs><g fill="none" fill-rule="evenodd"><path fill="#EBEBEB" fill-opacity=".5" d="M761.833 131.303c-11.851-23.671-21.323-49.29-36.694-70.778C697.52 21.91 649.857-1.552 602.346.08c-46.851 1.61-89.56 25.456-131.277 46.802-26.7 13.66-54.462 26.641-84.076 32.495-30.262 5.982-58.408-.954-88.596-2.71-57.455-3.343-117.307 6.551-166.25 38.204-59.477 38.465-97.976 113.502-79.7 181.847 18.28 68.35 86.412 113.287 155.493 129.113 51.688 11.839 104.974 10.94 158.217 10.043 17.916-.303 35.828-.607 53.673-.423 72.372.745 144.594 9.568 216.94 7.512 72.345-2.057 146.617-15.961 206.662-56.295 22.487-15.102 43.05-34.296 54.698-58.722 11.646-24.428 13.175-54.697-.746-77.909-21.766-36.285-71.107-44.26-102.676-72.466-14.351-12.826-24.244-29.03-32.875-46.268"/><path fill="#EAEAF2" d="M554.472 392.442a7720.305 7720.305 0 00-95.428-.417c-18.825-5.594-36.31-12.936-52.003-21.72l-15.483-74.211c3.63 4.918 6.046 9.425 9.771 13.905 8.307 10.073 60.69 34.217 67.643 39.957.599.5 1.376 1.16 2.217 1.832a52.457 52.457 0 002.527 2.013l.053.04.061.049.055.046.013.009c.107.083.215.166.322.252l.046.036c5.865 4.575 13.37 9.647 19.365 9.653h.015c1.588 0 3.071-.356 4.389-1.175 4.9-3.065 6.301-6.634 6.301-9.941-.003-2.71-.946-5.24-1.68-7.18.004-.012.004-.021.004-.034 0-.122-.099-.263-.139-.392-.147-.362-.24-.648-.331-.93-.135-.426-.215-.78-.298-1.129-.025-.273-.05-.55-.019-.746.031-.199.117-.319.261-.365 0-.003.003-.003.007-.006a.023.023 0 01.015-.006.224.224 0 01.114-.025h.024c.015 0 .034.004.052.004a.7.7 0 01.099.015l.027.003c.2.03.387.129.565.291a2.354 2.354 0 01.129.074c.396.24.86.617 1.382 1.095 3.58 3.274 9.959 11.218 16.319 11.23h.018c1.45 0 2.9-.414 4.315-1.393 4.766-3.258 6.203-6.618 6.2-9.616 0-.19-.006-.383-.015-.573a13.172 13.172 0 01-.304-1.535c-.307-1.061-.627-2.055-.977-2.853a6.43 6.43 0 00-.44-1.083c-.008-.015-.014-.03-.024-.046-.003-.01-.009-.018-.015-.028a.023.023 0 00-.006-.012c-.885-1.712-1.21-2.528-.491-2.528.924 0 3.58 1.353 8.994 3.893l.12.056.559.263.077.037c1.7.804 3.531 1.221 5.401 1.378.154.006.307.01.46.01h.013c7.834-.01 13.43-7.8 13.042-14.535l-.009-.138c-.178-3.004-3.455-6.68-7.364-10.205.86-.451 1.71-.905 2.546-1.356 3.525 2.433 7.272 4.565 10.85 5.556.002 0 .005.004.009.004l.214.058c.007 0 .01.003.016.003l.064.018c.04.01.083.022.126.031a9.818 9.818 0 002.439.304h.012c.97 0 1.947-.141 2.896-.408l-15.121 72.47m-2.97-173.9c-.786 0-1.52-.171-2.23-.53a9.68 9.68 0 00-1.326-.61h-.006c-7.426-4.456-18.859-11.411-25.274-15.787-5.057-3.445-10.726-6.995-22.009-6.995h-.445c-.316.003-.639.003-.97.003-2.482 0-5.34-.061-8.344-.12-2.715-.055-5.543-.11-8.319-.123a31.204 31.204 0 00-9.464-1.46c-10.356 0-18.979 5.035-23.425 8.247-9.185 3.412-20.984 9.966-31.888 12.865a5.006 5.006 0 01-1.29.157h-.025c-1.683-.006-3.805-.678-6.16-1.85-.018-.01-.04-.019-.058-.028l-.03-.015c-.056-.028-.115-.055-.17-.086-.003 0-.01-.003-.012-.006-.022-.01-.043-.022-.065-.034-.027-.012-.052-.025-.076-.037-15.161-7.76-40.92-34.8-40.92-34.8l-2.748-2.54-1.963-9.416c13.835-13.788 30.887-25.933 50.409-35.92l.012 4.68c.022 9.46 8.571 17.182 19.006 17.182h.052l23.846-.06h.012c1.603 0 3.068.652 4.001 1.833 4.6 5.82 18.96 23.422 18.96 23.422.559.678 1.4 1.019 2.239 1.019.847 0 1.692-.344 2.254-1.031 0 0 14.267-17.673 18.836-23.517.93-1.19 2.399-1.85 4.008-1.853l23.849-.06c10.456-.027 18.996-7.802 18.971-17.278l-.089-34.374c22.095.254 43.404 2.73 63.473 7.12l-13.353 63.997c-11.58 7.668-22.85 15.029-29.735 23.377-1.858 1.783-3.412 4.434-3.498 8.33-.024 1.154.56 3.124 1.628 5.726-8.903 6.553-13.868 10.573-17.664 10.573"/><path fill="#EBEBEB" d="M944 421.22C944 437.118 732.68 450 471.998 450 211.321 450 0 437.117 0 421.22c0-15.895 211.321-28.778 471.998-28.778C732.68 392.442 944 405.325 944 421.22"/><path fill="#FFF" d="M611.062 57.97c7.407-3.421 9.764-13.91 5.272-23.425-4.495-9.516-14.142-14.456-21.546-11.035-5.324 2.46-8.032 8.575-7.465 15.353.068.806-.118 1.614-.585 2.277l-4.66 8.61a.65.65 0 00.483 1.021l9.665 1.991c.817.07 1.56.449 2.141 1.017 4.895 4.779 11.37 6.652 16.695 4.191"/><path fill="#DFDFEB" d="M599.54 38.87l-1.589.017c-.99.011-1.792.877-1.78 1.928l.051 5.136c.01 1.05.829 1.9 1.816 1.89l1.592-.018c.987-.01 1.79-.878 1.777-1.927l-.05-5.137c-.01-1.05-.826-1.899-1.817-1.888m11.327-.012l-4.733.102a.154.154 0 01-.154-.191l1.064-4.24c.266-.569.016-1.25-.604-1.534a1.157 1.157 0 00-1.525.552c-.142.306-.283.611-.428.917l-.935 2c-.309.655-.614 1.309-.92 1.963-.096.205-.191.41-.29.616a1.99 1.99 0 00-.176.76c-.028.45.006.912.01 1.363l.015 1.397c.003.399.01.797.012 1.196 0 0 .016 1.624.019 1.684l.012 1.324a1.084 1.084 0 001.102 1.073l3.637-.038 2.244-.023a.954.954 0 00.96-.973l-.004-.42a.993.993 0 00-.311-.72l.182-.002a.953.953 0 00.96-.971l-.004-.422a.945.945 0 00-.512-.84.994.994 0 00.984-.998l-.003-.42c-.003-.357-.234-.613-.521-.783.518-.036.935-.452.932-.975l-.007-.42a.993.993 0 00-1.006-.977"/><path fill="#1E2738" d="M394.033 430.565l-149.366-6.141c-10.167 1.564-25.86-3.197-25.86-13.719L153.48 25.166c-2.068-17.108 19.954-18.53 29.473-17.397l129.015 28.344c9.52 1.133 17.479 9.566 17.78 18.835l71.365 358.356c.3 9.267 3.089 15.693-7.08 17.26"/><path fill="#445980" d="M397.334 430.565L251.77 424.6c-10.134 1.557-15.171-1.444-18.35-16.118L168.304 25.23c0-10.458 7.693-18.023 17.182-16.895l136.846 26.901c.47.092.941.162 1.413.236 8.778 1.387 16.074 8.954 16.938 17.479.086.868.2 1.734.377 2.589l74.083 355.524c.297 9.215-7.676 17.945-17.809 19.502"/><path fill="#FFF" d="M284.295 39.578l-36.262-5.706c-1.738-.273-2.92-1.877-2.642-3.582.279-1.705 1.913-2.866 3.65-2.592l36.264 5.706c1.737.273 2.918 1.877 2.642 3.582-.279 1.705-1.915 2.865-3.652 2.592m100.573 376.784l-123.564-4.579c-8.332 1.325-15.087-4.808-15.087-13.702l-56.22-349.237c0-8.892 6.324-15.323 14.126-14.364l69.757 11.56c10.036 1.663 20.072 3.326 30.104 4.99 8.633 1.43 20.1 1.431 25.409 9.265 2.774 4.097 3.9 9.074 4.658 13.963 4.254 27.476 10.27 54.859 15.48 82.206 6.44 33.806 12.881 67.608 19.323 101.41 5.923 31.095 27.452 125.093 30.482 140.995.058.304 2.08 17.493-14.468 17.493"/><path fill="#41567E" d="M221.684 245.183l-2.514-15.71 2.515 15.707v.003m83.507-194.29c-.486-.07-.964-.145-1.434-.223l-16.981-2.829 16.98 2.827c.471.08.952.153 1.435.222v.003"/><path fill="#F2F5FC" d="M221.58 245.18l-5.403-33.403a141782.438 141782.438 0 0071.16-163.936l17.154 2.829c.476.078.958.152 1.449.223a146052.67 146052.67 0 01-45.864 105.742 90476.276 90476.276 0 01-38.496 88.548"/><path fill="#41567E" d="M246.152 395.432l-1.55-9.637 1.55 9.637m104.669-234.238c-.32-1.666-.635-3.336-.951-5.002-5.211-27.367-11.226-54.77-15.48-82.265-.423-2.744-.966-5.515-1.847-8.144v-.002c.884 2.628 1.424 5.403 1.848 8.145 4.25 27.497 10.268 54.899 15.479 82.269.316 1.663.632 3.33.95 4.996v.003"/><path fill="#F2F5FC" d="M246.288 395.432l-2.82-17.561c.756-.203 1.487-.42 2.19-.654.478-.138.957-.31 1.402-.515a22.638 22.638 0 003.42-1.507c3.592-1.918 5.713-4.315 5.713-6.884 0-1.028.41-8.461-.24-9.419-1.06-1.544-2.942-2.33-5.472-2.64a26.8 26.8 0 00-3.421-.205c-.48 0-.924 0-1.403.034-1.745.03-3.633.132-5.645.282l-8.874-55.242c29.25-67.633 67.333-156.043 101.429-235.34.88 2.63 1.422 5.402 1.845 8.146 4.248 27.496 10.255 54.898 15.459 82.265.316 1.666.631 3.336.95 5.002-.092.21-.184.42-.273.633-6.007 6.405-56.687 60.478-56.956 62.215.036.623 9.856 7.835 22.836 16.978-23.094 53.557-41.768 96.754-55.558 128.528-3.38 7.786-6.478 14.912-9.284 21.354a27.321 27.321 0 00-5.298 4.53"/><path fill="#41567E" d="M312.669 413.372l-19.446-.747 19.449.747h-.003"/><path fill="#F2F5FC" d="M312.444 413.372l-19.18-.714a27.248 27.248 0 00-7.308-17.779c-.448-.48-.908-.944-1.383-1.387a27.94 27.94 0 00-3.6-2.833 27.124 27.124 0 00-6.87-3.248 27.032 27.032 0 00-9.304-1.197c16.846-38.96 37.986-88.035 60.134-139.536 4.393 3.06 8.952 6.21 13.47 9.305 9.405 6.413 18.654 12.528 25.9 17.18l.065.011c.975.692 1.96 1.32 2.885 1.87 1.321.831 2.575 1.643 3.764 2.443l-3.88 9.019c-22.186 51.566-40.54 94.147-54.696 126.866"/><path fill="#1E2738" d="M570.91 430.565l149.366-6.141c10.169 1.564 25.864-3.197 25.864-13.719l65.324-385.539c2.07-17.108-19.953-18.53-29.473-17.397L652.978 36.113c-9.52 1.133-17.481 9.566-17.782 18.835L563.83 413.304c-.301 9.267-3.086 15.693 7.08 17.26"/><path fill="#445980" d="M567.61 430.565l145.562-5.965c10.136 1.557 15.173-1.444 18.35-16.118L796.64 25.23c0-10.458-7.694-18.023-17.18-16.895l-136.85 26.9c-.47.092-.941.162-1.41.236-8.781 1.387-16.074 8.954-16.938 17.479-.089.868-.2 1.734-.377 2.589l-74.083 355.524c-.3 9.215 7.673 17.945 17.809 19.502"/><path fill="#FFF" d="M681.395 39.578l36.264-5.706c1.737-.273 2.922-1.877 2.643-3.582-.28-1.705-1.913-2.866-3.65-2.592l-36.266 5.706c-1.738.273-2.92 1.877-2.64 3.582.28 1.705 1.912 2.865 3.65 2.592m93.552 9.266L718.73 398.087c0 8.89-6.758 15.024-15.09 13.702l-123.564 4.573c-16.545 0-14.526-17.186-14.467-17.49 3.032-15.902 24.558-109.9 30.48-140.995 3.58-18.769 7.155-37.532 10.73-56.298l8.6-45.11c3.16-16.61 6.622-33.23 9.805-49.877 2.06-10.766 3.996-21.543 5.668-32.33.666-4.295 1.615-8.651 3.717-12.424a19.05 19.05 0 01.945-1.542c5.31-7.833 16.775-7.833 25.405-9.267 3.517-.58 7.028-1.164 10.545-1.748 6.519-1.077 13.043-2.157 19.562-3.238 3.809-.632 7.62-1.262 11.432-1.895l18.481-3.063c13.28-2.2 26.563-4.402 39.842-6.605 7.802-.958 14.127 5.475 14.127 14.364"/><path fill="#F2F5FC" d="M717.297 76.993c-4.998-11.26-9.99-22.501-14.907-33.582l18.895-3.046c3.668 8.265 7.348 16.558 11.026 24.836-4.898 3.846-9.928 7.796-15.014 11.792m13.166 245.931c-3.336-7.642-7.133-16.37-11.374-26.136-4.419-10.18-9.344-21.532-14.75-34.02 12.843-9.971 26.848-20.86 40.905-31.81l1.279-7.95v.004l-16.06 99.912M648.238 132.88c-6.504-15.089-12.941-30.022-19.154-44.45.319-1.666.638-3.328.95-4.994a2761.438 2761.438 0 014.364-22.282c.292-.529.605-1.043.945-1.544 5.305-7.838 16.762-7.838 25.385-9.273 3.515-.58 7.023-1.165 10.537-1.749 6.97 16.181 13.98 32.454 20.933 48.581a19271.8 19271.8 0 00-43.96 35.711m18.829 207.984a46383.443 46383.443 0 01-15.996-36.742c7.046-5.462 23.781-18.358 44.665-34.485a36529.998 36529.998 0 0029.842 68.556 12.758 12.758 0 01-4.902.953 14.58 14.58 0 01-2.246-.177l-51.363 1.895m-52.943-180.157l.896-4.686c3.172-16.609 6.646-33.228 9.84-49.875 4.82 11.128 9.738 22.488 14.693 33.932-8.226 6.7-14.256 11.657-16.966 13.972-2.674 2.293-5.52 4.505-8.463 6.657"/><g transform="translate(189.249 34.385)"><mask id="b" fill="#fff"><use xlink:href="#a"/></mask><path fill="#006BAE" d="M387.554 156.627s-9.693 1.873-9.908 11.76c-.211 9.888 44.236 79.9 57.972 93.429 13.734 13.53 19.582 18.026 24.39 6.109 4.808-11.918-31.4-118.643-32.432-118.803-1.03-.16-40.022 7.505-40.022 7.505" mask="url(#b)"/><path fill="#FFC091" d="M537.282 152.664s-41.43 36.998-79.741 63.066c-18.078 12.393-35.5 22.318-47.503 24.777-17.581 3.552-12.629 7.765-22.72 22.275-6.183 8.903-25.59 18.992-45.84 28.41-12.736 5.861-25.761 11.403-36.049 16.289-26.823 12.586-67.305-26.525-79.422-38.13-12.126-11.544 47.328-59.724 75.252-78.962.15-.113.304-.224.445-.267 25.685-17.425 49.154-9.73 56.303-6.593l.064.009c.574.224 1.016.43 1.326.61 4.636 2.343 10.37-3.25 24.06-13.08l.068.01c.62-.513 1.295-.948 1.982-1.448 2.81-1.997 7.643-5.704 13.63-10.314 26.144-20.391 74.543-59.619 74.543-59.619l63.602 52.967" mask="url(#b)"/><path fill="#E89B76" d="M256.66 169.912s16.328-15.45 35.82-9.47c19.49 5.983 35.442 12.853 35.442 12.853l-3.42 37.645-67.843-41.028" mask="url(#b)"/><path fill="#FFAC7A" d="M360.544 281.854c-5.943-5.36-13.35-10.378-13.562-12.163-.055-.077-.036-.208-.024-.273l.018-.132c.013-.067.086-.122.163-.178h.018a.346.346 0 00.086-.015c.034-.006.068-.015.114-.015h.027c.003.003.01.003.016.003.003 0 .009 0 .015.003.015-.003.034-.003.052-.003 1.896 0 8.281 6.354 15.62 11.418-.834.45-1.684.904-2.543 1.355m26.541-18.744a21.589 21.589 0 00-2.486-3.723c-1.292-1.684-2.856-3.346-4.633-4.972a35.884 35.884 0 00-2.38-2.06l-2.36-1.786a323.735 323.735 0 01-8.088-5.839c5.16 1.267 11.592 2.573 16.206 2.573 2.71 0 4.793-.45 5.618-1.625 3.62-5.042-3.553-10.513-7.155-18.637-.804-1.797-.825-2.536-.344-2.536 1.722 0 9.865 9.353 12.077 13.441.497.905 1.39 1.289 2.58 1.289 5.615 0 17.913-8.523 27.109-10.998 11.153-3.064 12.497-2.585.481-24.85-8.238-15.261-28.166-26.596-40.185-32.31.62-.512 1.295-.947 1.982-1.447 2.02-1.435 5.081-3.754 8.868-6.655 10.73 4.352 26.338 15.202 40.553 42.153 3.657 6.99 6.7 13.46 9.192 19.395-9.71 6.032-18.854 10.912-26.598 13.776-2.673.988-5.18 1.736-7.484 2.208-2.878.583-5.151 1.181-6.986 1.84-9.377 3.368-7.294 8.3-15.734 20.435l-.233.328" mask="url(#b)"/><path fill="#E89E7B" d="M374.357 286.166c-11.183-2.815-24.211-17.266-26.942-17.082a.424.424 0 00-.172.01c-.04.008-.073.018-.104.014-.077.056-.15.11-.163.178l-.018.132c-.077.055-.09.123.024.273.35 2.96 20.475 14.798 20.92 22.363.481 6.895-5.367 14.973-13.494 14.657-1.869-.157-3.698-.574-5.397-1.377-10.393-4.858-11.338-5.747-9.205-1.635.156.295.303.656.438 1.083.35.797.67 1.79.976 2.852.062.484.178 1.04.304 1.533.187 3.138-1.11 6.717-6.18 10.185-8.627 5.956-18.532-9.022-22.143-11a1.08 1.08 0 00-.565-.292c-.129-.021-.26-.04-.337.016-.144.046-.23.165-.261.364-.095.188-.07.46.018.746.016.34.099.69.298 1.128.092.282.184.568.331.93.043.14.157.294.135.426 1.63 4.303 4.29 11.537-4.617 17.113-6.434 3.999-16.833-3.018-24.298-8.906a52.998 52.998 0 01-2.525-2.012c-.84-.672-1.617-1.331-2.215-1.831-6.947-5.738-59.285-29.871-67.585-39.94-8.312-10.003-10.116-20.145-33.462-34.713a42.583 42.583 0 01-2.887-1.864l-.065-.013c-7.253-4.637-16.51-10.733-25.924-17.128-22.177-15.125-45.238-31.542-45.293-32.496.288-1.843 57.6-62.787 57.6-62.787l17.726 16.395s25.736 27.028 40.884 34.784c3.191 1.644 5.977 2.414 7.88 1.899 11.067-2.945 23.057-9.66 32.299-13.022 7.008-2.49 13.681.233 26.519 10.67 4.068 3.4 16.673 7.924 22.239 12.975 13.218 11.915 21.14 24.897 36.036 36.87 2.105 1.677 4.155 3.278 6.137 4.87 1.141.92 2.292 1.772 3.378 2.616 7.465 5.888 14.482 11.166 20.579 15.42l2.36 1.784c.84.672 1.616 1.334 2.38 2.061 1.777 1.626 3.341 3.288 4.633 4.972 1.424 1.708 2.433 3.487 3.188 5.158 0 0 .12.086.11.15 5.8 13.126-4.7 23.722-13.54 21.471" mask="url(#b)"/><path fill="#C46F4D" d="M344.936 233.132c-22.036 0-30.904-23.01-33.914-30.353-1.923-4.56-4.553-6.667-7.658-6.667-2.553 0-5.428 1.426-8.496 4.091-6.182 5.431-19.287 17.25-31.873 17.25-1.12 0-2.23-.091-3.335-.29-10.095-1.871-10.534-9.232-10.107-12.853.061.987.436 2.03 1.197 3.192l.067.01c.368.665.945 1.293 1.58 2.002 2.418 2.558 5.566 3.797 9.095 3.797 7.06 0 15.638-4.956 22.935-14.224 5.664-7.146 9.699-9.47 13.721-9.47 3.802 0 7.59 2.073 12.721 4.118 10.509 4.131 1.424 20.416 23.93 33.435 3.724 2.17 7.581 3.13 11.34 3.13.733 0 1.463-.036 2.187-.106.997.788 1.98 1.564 2.943 2.34a35.135 35.135 0 01-6.333.598" mask="url(#b)"/><path fill="#E2CDCA" d="M303.818 329.957c1.586 0 3.068-.355 4.385-1.174 4.897-3.064 6.296-6.63 6.296-9.937 0 3.306-1.4 6.873-6.296 9.937-1.317.819-2.799 1.174-4.385 1.174m27.216-9.212c1.448-.004 2.896-.414 4.31-1.393 4.762-3.257 6.198-6.615 6.195-9.611.003 2.996-1.433 6.354-6.195 9.611-1.414.979-2.862 1.393-4.31 1.393m-46.58-.436l-.046-.037.046.037m27.9-9.995c-.2-.438-.282-.788-.298-1.128.083.35.163.702.298 1.128m2.356-.794c-.521-.478-.984-.856-1.38-1.095.396.24.859.617 1.38 1.095m-2.654-.334c-.089-.286-.113-.558-.018-.746.03-.199.117-.318.26-.364 0-.004.004-.004.007-.007-.003.003-.006.003-.006.007-.144.046-.23.165-.261.364-.03.197-.006.473.018.746m1.261-.767a1.727 1.727 0 00-.116-.067 1.08 1.08 0 00-.565-.292l-.027-.003.027.003c.2.03.387.129.565.292.04.021.077.042.116.067m41.563-1.699c7.827-.01 13.418-7.799 13.031-14.528.387 6.732-5.204 14.519-13.03 14.528m-5.947-1.423l-.559-.264.559.264m-.678-.319c-5.41-2.54-8.064-3.892-8.987-3.892-.718 0-.393.816.49 2.527-.883-1.711-1.208-2.527-.49-2.527.923 0 3.577 1.353 8.987 3.892m28.55-18.508" mask="url(#b)"/><path fill="#424E6B" d="M379.7 286.062c6.98-1.954 12.748-10.716 8.308-21.115 4.44 10.4-1.325 19.161-8.309 21.115" mask="url(#b)"/><path fill="#E2CDCA" d="M374.232 286.135l-.065-.018.065.018m-.08-.021c-.07-.018-.144-.04-.215-.058.07.018.144.04.215.058m-.224-.061c-3.575-.99-7.318-3.122-10.84-5.554 3.525 2.432 7.265 4.563 10.84 5.554M220.57 178.477l-.058-.027c.018.01.04.018.058.028m-.334-.169c-.028-.012-.052-.025-.077-.037l.077.037" mask="url(#b)"/><path fill="#F69766" d="M363.088 280.499c-7.34-5.064-13.725-11.418-15.62-11.418 1.895 0 8.28 6.354 15.62 11.418m-16.106-10.808c-.113-.15-.1-.218-.024-.273l.018-.132c.013-.067.086-.122.163-.178-.077.056-.15.11-.163.178l-.018.132c-.012.065-.03.196.024.273m.175-.583h-.003.003a.346.346 0 00.086-.015c.034-.006.068-.015.114-.015h.027-.027c-.046 0-.08.009-.114.015a.305.305 0 01-.086.015m.258-.024c.015-.003.034-.003.052-.003-.018 0-.037 0-.052.003" mask="url(#b)"/><path fill="#E08B67" d="M303.815 329.957h-.012c-5.986-.006-13.488-5.075-19.349-9.648l-.046-.037c-.107-.086-.214-.168-.322-.251l-.012-.01-.055-.045a.906.906 0 01-.062-.05c-.015-.012-.033-.024-.052-.04a52.375 52.375 0 01-2.525-2.011c-.84-.672-1.617-1.331-2.215-1.831-6.947-5.738-59.285-29.871-67.585-39.94-7.84-9.436-9.889-18.995-29.694-32.278a147.043 147.043 0 00-3.768-2.435 42.583 42.583 0 01-2.887-1.864l-.065-.013c-.233-.628-.307-1.04-.187-1.04h.012c1.093 0 27.406-44.174 28.876-46.24.788-1.163 9.09-8.048 16.292-13.952l.077.037c.021.012.043.025.064.034.003.003.01.006.012.006.056.03.114.058.17.086.008.006.02.009.03.015.018.01.04.018.058.028 2.357 1.171 4.474 1.846 6.155 1.849h.025c.466 0 .896-.052 1.288-.156-2.519 8.387-7.054 21.06-14.632 34.606-7.741 13.895-3.375 28.362 4.878 41.399l-7.584 10.556s17.295 7.44 18.857 10.074c1.562 2.635 32.929 27.792 32.929 27.792l10.324-2.18c3.256.92 6.315 1.416 9.027 1.413 3.823 0 6.956-.984 8.972-3.147 5.94-6.474 6.974-7.338 9.94-7.338.54 0 1.142.03 1.851.058.709.027 1.525.058 2.485.058h.09c7.234-.028 7.648-9.216 11.628-11.773 3.98-2.555 14.74-5.275 15.848-12.4 1.107-7.12-.234-13.273 6.91-14.46 5.126-.825 11.88-11.666 15.086-19.68 7.465 5.889 14.482 11.167 20.579 15.42l2.36 1.785c.84.672 1.616 1.334 2.38 2.061 1.777 1.626 3.341 3.288 4.633 4.972 1.36 1.699 2.366 3.477 3.188 5.158 0 0 .11.077.11.141v.01c.037.079.071.159.105.235 0 .007.003.01.006.016 4.44 10.4-1.329 19.161-8.309 21.115-.948.267-1.924.408-2.893.408h-.012a9.797 9.797 0 01-2.437-.304l-.125-.03-.065-.019c-.006 0-.01-.003-.015-.003-.07-.018-.144-.04-.215-.058-.003 0-.006-.003-.01-.003-3.574-.99-7.314-3.122-10.84-5.554-7.339-5.064-13.724-11.418-15.62-11.418-.018 0-.037 0-.052.003-.006-.003-.012-.003-.015-.003-.006 0-.013 0-.016-.003h-.027c-.046 0-.08.009-.114.015a.305.305 0 01-.086.015h-.019c-.076.056-.15.11-.162.178l-.018.132c-.077.055-.09.123.024.273.35 2.96 20.475 14.798 20.92 22.363l.009.138c.387 6.729-5.204 14.519-13.03 14.528h-.013c-.154 0-.307-.003-.46-.01-1.869-.156-3.698-.573-5.397-1.376l-.077-.037-.559-.264-.12-.055c-5.409-2.54-8.063-3.892-8.986-3.892-.718 0-.393.816.49 2.527.004.003.007.01.007.013a.122.122 0 01.015.027c.01.015.016.03.025.046.156.295.303.656.438 1.083.35.797.67 1.79.976 2.852.062.484.178 1.04.304 1.533.01.19.015.384.015.574.003 2.996-1.433 6.354-6.195 9.611-1.414.979-2.862 1.39-4.31 1.393h-.019c-6.354-.016-12.727-7.953-16.305-11.225-.521-.478-.984-.856-1.38-1.095a1.727 1.727 0 00-.129-.073 1.08 1.08 0 00-.565-.292l-.027-.003c-.006-.003-.013-.003-.019-.003a.532.532 0 00-.08-.012c-.018 0-.036-.003-.052-.003h-.024a.228.228 0 00-.114.024.023.023 0 00-.015.006c-.003.003-.006.003-.006.007-.144.046-.23.165-.261.364-.095.188-.07.46.018.746.016.34.099.69.298 1.128.092.282.184.568.331.93.04.128.138.27.138.392 0 .012 0 .022-.003.034.734 1.938 1.676 4.468 1.679 7.176 0 3.306-1.4 6.873-6.296 9.937-1.317.819-2.799 1.174-4.385 1.174h-.003m-78.98-62.293s.448-.288 1.203-.813c.178.218.356.436.534.65l-1.737.163" mask="url(#b)"/><path fill="#BA634E" d="M319.313 283.707c.248-.059.669-.013.89.04l.441.052.798.193c.516.135 1.022.239 1.488.42.94.334 1.798.76 2.645 1.199 1.632.954 3.173 2.012 4.535 3.275 2.768 2.472 5.296 5.23 7.045 8.86a.904.904 0 01-.424 1.206.942.942 0 01-.687.04c-3.777-1.24-6.885-3.233-9.782-5.469-1.472-1.088-2.786-2.358-4.034-3.698-.596-.712-1.188-1.417-1.719-2.19-.276-.368-.5-.825-.748-1.202l-.353-.57-.15-.304c.015-.046.208-.058.242-.196a.835.835 0 01-.924-.733.831.831 0 01.737-.923m17.403-25.332c2.105.64 3.694 1.944 5.106 3.41 1.497 1.38 2.807 2.96 3.945 4.683.258.39.15.917-.242 1.178a.854.854 0 01-.856.046l-.077-.04c-1.862-.96-3.553-2.061-5.056-3.365-1.59-1.217-3.001-2.597-3.897-4.637l-.018-.046a.902.902 0 01.466-1.193.891.891 0 01.629-.036m-35.487 37.583c3.408-.972 5.664 1.172 7.587 3.2 1.016 1.008 1.743 2.327 2.27 3.676.587 1.331.691 2.87.54 4.26a.871.871 0 01-.963.773.88.88 0 01-.632-.38l-.043-.068c-1.38-2.085-2.868-3.475-4.476-4.913-1.666-1.447-3.676-2.082-4.876-4.99l-.073-.18a1.025 1.025 0 01.665-1.378" mask="url(#b)"/><path fill="#DD8460" d="M272.81 302.417c-10.818-3.057-23.797-10.813-33.382-20.716-4.112-4.25-8.616-9.035-12.856-14.2l32.18-3.014s.024-.003.073-.003c.743 0 6.94.211 9.83 7.136 3.078 7.373-3.11 11.853-3.11 11.853l13.411-2.19s9.68 4.392 8.714 10.213c-.967 5.818-2.562 8.32-2.562 8.32l-12.298 2.601m-46.772-35.566c-2.77-3.413-5.419-6.989-7.754-10.675l13.982-19.462s.973-.218 2.335-.218c3.096 0 8.217 1.125 8.515 8.504.365 8.977-12.948 18.972-17.078 21.851" mask="url(#b)"/><path fill="#D57451" d="M262.486 304.598s-31.367-25.157-32.929-27.792c-1.562-2.634-18.857-10.074-18.857-10.074l7.584-10.556c2.335 3.686 4.983 7.262 7.754 10.675-.755.525-1.203.813-1.203.813l1.737-.163c4.24 5.165 8.744 9.95 12.856 14.2 9.585 9.903 22.564 17.659 33.382 20.716l-10.324 2.18" mask="url(#b)"/><path fill="#FFC091" d="M359.258 226.305c-7.05 4.511-16.096 5.74-24.46.865-22.505-13.019-13.42-29.304-23.929-33.435-10.564-4.208-15.43-8.544-26.442 5.352-10.945 13.902-24.776 18.103-32.03 10.427-.635-.709-1.212-1.337-1.58-2.003l-.067-.009c-4.097-6.244 3.05-9.185 9.275-17.067 6.82-8.67 9.775-23.341 13.552-27.212 2.863-3.033 16.195-2.803 27.495-2.573 3.4.068 6.615.138 9.306.117 11.57-.095 17.317 3.502 22.435 6.992 10.04 6.848 32.367 20.02 32.367 20.02 12.206 13.648 5.959 30.779-5.922 38.526" mask="url(#b)"/><path fill="#FFAC7A" d="M346.139 230.3c-3.759 0-7.616-.96-11.34-3.13-22.506-13.019-13.421-29.304-23.93-33.435-5.13-2.045-8.92-4.119-12.721-4.119-4.022 0-8.057 2.325-13.721 9.47-7.297 9.269-15.875 14.225-22.935 14.225-3.529 0-6.677-1.24-9.095-3.797-.635-.709-1.212-1.337-1.58-2.003a14.878 14.878 0 006.649 1.537c1.663 0 3.486-.258 5.477-.871 11.555-3.472 18.612-17.576 25.795-24.228 3.817-3.604 9.916-6.174 16.58-6.174 5.784 0 11.994 1.932 17.514 6.806 11.887 10.491 16.606 33.177 26.857 38.954 2.918 1.672 6.24 2.457 9.57 2.77-3.913 2.502-8.438 3.996-13.12 3.996" mask="url(#b)"/><path fill="#FFE1CC" d="M264.21 186.632c-1.448.782-2.559 2.067-3.633 3.319a5616.029 5616.029 0 01-5.056 5.894c-.596.696-1.23 1.503-1.145 2.417.102 1.1 1.215 1.83 2.283 2.113 2.808.736 5.851-.518 7.922-2.549 2.074-2.027 3.345-4.729 4.425-7.418.472-1.175 1.006-2.803-.037-3.794-1.157-1.098-3.43-.675-4.759.018" mask="url(#b)"/><path fill="#FFC091" d="M264.274 277.926c-.472.87-1.012 1.732-1.663 2.44a9.587 9.587 0 01-.727.767c-2.552 2.51-5.894 4.015-8.818 5.858-2.998 1.898-6.572 3.168-9.874 4.41-5.94 2.12-12.592 4.058-18.943 3.613-13.985-.886-19.17-21.01-19.17-21.01-.375-1.071.374-1.97 1.914-2.743 5.71-2.827 22.616-3.784 35.745-6.069 2.004-.297 4.02-.66 6.082-.88 4.32-.408 10.024-1.01 13.614 1.981 3.59 2.987 3.862 7.76 1.84 11.633" mask="url(#b)"/><path fill="#FFC091" d="M283.252 290.598a3.819 3.819 0 01-.38 1.156c-2.093 4.336-5.613 7.842-9.433 10.694-4.04 2.953-8.394 5.315-12.705 7.82-1.854 1.064-4.13 1.791-6.198 2.484-2.219.804-4.474 1.399-6.809 1.644-13.617 1.534-22.401-16.31-22.401-16.31-.592-.971.034-1.953 1.396-2.891 5.087-3.6 21.008-7.342 33.091-11.614 3.007-1.086 6.07-2.098 9.214-2.757 3.145-.66 6.947-1.218 9.93.46 3.113 1.702 5.246 5.814 4.295 9.314m-41.198-44.491c-.656 5.097-6.9 9.602-8.944 11.446-2.586 2.3-5.415 4.425-8.349 6.336-4.97 3.281-10.64 6.722-16.611 7.756-5.348.926-9.558-2.432-12.273-6.701-1.35-2.169-4.268-6.88-4.33-10.4-.04-.613.031-1.076.246-1.582 1.206-4.272 7.953-4.644 11.564-5.702 8.644-2.576 16.882-6.026 25.31-9.378 6.066-2.502 10.006.405 12.206 3.65 1.046 1.515 1.34 3.112 1.181 4.575" mask="url(#b)"/><path fill="#FFC091" d="M292.726 308.345c-3.645 7.812-16.844 18.392-25.169 20.208-10.502 2.352-18.636-12.283-18.636-12.283-.5-.684-.246-1.457.568-2.343 3.301-3.404 15.82-7.879 25.211-12.635 11.583-5.833 15.958-5.29 18.79 1.702.59 1.441.301 3.287-.764 5.351" mask="url(#b)"/><path fill="#FFE1CC" d="M257.214 269.207c-.239.021-.463.043-.665.064-3.124.334-6.275.938-9.055 2.404-1.107.583-2.157 1.313-2.955 2.276-.8.963-1.334 2.18-1.319 3.432.025 2.49 2.25 4.548 4.676 5.112 3.375.785 7.846-.751 10.742-2.493 2.614-1.577 6.413-5.747 4.698-9.096-.964-1.883-4.084-1.871-6.122-1.7m16.676 16.469a29.728 29.728 0 00-5.378 1.657c-1.964.834-3.968 1.695-5.526 3.112-1.562 1.417-2.617 3.521-2.182 5.548.473 2.187 2.636 3.797 4.925 4.162 2.289.368 4.639-.328 6.652-1.435 2.5-1.374 4.584-3.355 6.458-5.462.98-1.095 1.94-2.3 2.173-3.73.718-4.407-3.32-4.612-7.122-3.852m14.369 18.616a12.93 12.93 0 00-3.025.702c-1.123.424-2.274.862-3.234 1.74-.96.876-1.712 2.293-1.657 3.787.061 1.613 1.077 2.962 2.27 3.432 1.194.469 2.513.184 3.688-.43 1.461-.76 2.753-2 3.943-3.34.62-.699 1.24-1.478 1.491-2.484.774-3.1-1.371-3.612-3.476-3.407m-52.357-61.536c-1.04-.052-2.074.105-3.068.359-2.108.54-4.06 1.533-5.66 2.88-1.118.938-2.109 2.165-2.097 3.579.013 1.116.651 2.174 1.47 3.024.822.852 1.9 1.567 3.111 1.702 1.427.156 2.771-.51 3.934-1.245 1.697-1.07 3.255-2.343 4.47-3.87.614-.777 1.145-1.63 1.378-2.574.203-.828.218-2.055-.39-2.794-.61-.742-2.117-.993-3.148-1.06" mask="url(#b)"/><path fill="#FF9D6B" d="M242.054 246.107c-.656 5.097-6.9 9.602-8.944 11.446-2.586 2.3-5.415 4.425-8.349 6.336-4.97 3.281-10.64 6.722-16.611 7.756-5.348.926-9.558-2.432-12.273-6.701-1.35-2.169-4.268-6.88-4.33-10.4-.04-.613.031-1.076.246-1.582 3.33 5.109 9.653 13.994 14.43 12.371 6.204-2.076 23.97-4.655 35.831-19.226" mask="url(#b)"/><path fill="#FF9D6B" d="M264.274 277.926c-.472.87-1.012 1.732-1.663 2.44a9.587 9.587 0 01-.727.767c-2.552 2.51-5.894 4.015-8.818 5.858-2.998 1.898-6.572 3.168-9.874 4.41-5.94 2.12-12.592 4.058-18.943 3.613-13.985-.886-19.17-21.01-19.17-21.01-.375-1.071.374-1.97 1.914-2.743 2.047 5.52 7.11 16.435 13.841 16.601 8.496.104 30.609-.853 43.44-9.936" mask="url(#b)"/><path fill="#FF9D6B" d="M283.252 290.598a3.819 3.819 0 01-.38 1.156c-2.093 4.336-5.613 7.842-9.433 10.694-4.04 2.953-8.394 5.315-12.705 7.82-1.854 1.064-4.13 1.791-6.198 2.484-2.219.804-4.474 1.399-6.809 1.644-13.617 1.534-22.401-16.31-22.401-16.31-.592-.971.034-1.953 1.396-2.891 2.725 4.204 9.008 12.476 15.222 12.494 7.83.068 29.986-1.625 41.308-17.091" mask="url(#b)"/><path fill="#FF9D6B" d="M292.726 308.345c-3.645 7.812-16.844 18.392-25.169 20.208-10.502 2.352-18.636-12.283-18.636-12.283-.5-.684-.246-1.457.568-2.343 2.838 3.48 7.827 8.78 12.217 9.664 5.898 1.186 22.303-4.374 31.02-15.246" mask="url(#b)"/><path fill="#EBEBF7" d="M143.84 248.272s15.601 15.558 19.2 14.148c3.6-1.414 45.816-42.982 54.183-64.198 8.364-21.216 10.042-26.586 4.482-28.856-5.56-2.27-11.355-6.643-11.355-6.643l-66.51 85.55" mask="url(#b)"/><path fill="#FFC73B" d="M213.691 160.666s-8.223 32.033-26.783 53.252c-5.783 6.615-14.565 15.12-23.984 23.62-20.797 18.776-44.73 37.554-46.527 36.039C113.783 271.375-39.76 117.94-56.297 99.33l13.664-67.597 67.68-44.167s97.738 92.709 122.486 115.546c24.749 22.84 67.407 53.263 66.158 57.554" mask="url(#b)"/><path fill="#039CFC" d="M654.308 119.635c-24.893 21.464-192.312 150.485-195.727 153.332-2.722 2.278-.356-12.482-12.2-42.826-2.838-7.397-6.608-15.748-11.453-25.013-24.792-47.008-53.82-45.03-53.82-45.03 11.58-14.077 35.631-25.338 52.639-39.987C450.818 105.47 600.015-14.696 600.015-14.696L627.91 90.053l26.4 29.582" mask="url(#b)"/><path fill="#2BADFF" d="M458.096 273.197c-.242 0-.432-.218-.604-.65-1.243-3.135-1.405-17.54-11.11-42.406l119.438-92.176-9.521 59.168a32064.032 32064.032 0 01-40.928 31.788c-2.985 2.312-5.906 4.579-8.747 6.78-20.806 16.129-37.479 29.025-44.5 34.487-2.052 1.598-3.282 2.56-3.543 2.779-.184.153-.344.23-.485.23" mask="url(#b)"/><path fill="#ED8617" d="M162.924 237.539c-20.797 18.775-44.73 37.553-46.527 36.038C113.783 271.375-39.76 117.94-56.297 99.33l44.55-40.59c46.261 50.25 136.812 144.92 174.67 178.799" mask="url(#b)"/></g><path fill="#FFF" d="M531.374 74.003l-98 .247c-10.46.026-18.996 7.755-18.971 17.175l.11 42.598c.022 9.42 8.598 17.106 19.057 17.08l23.845-.06c1.606-.004 3.077.644 4.013 1.822 4.6 5.785 18.96 23.283 18.96 23.283 1.12 1.354 3.374 1.348 4.492-.013 0 0 14.267-17.567 18.836-23.377.93-1.182 2.398-1.838 4.007-1.842l23.848-.06c10.456-.026 18.996-7.755 18.971-17.174l-.11-42.6c-.022-9.419-8.599-17.105-19.058-17.079"/><path fill="#FDBB21" d="M513.141 115.113c0 16.101-13.065 29.156-29.174 29.156-8.577 0-16.287-3.698-21.62-9.58a29.537 29.537 0 01-2.432-3.068 27.858 27.858 0 01-1.127-1.768 29.133 29.133 0 01-3.992-14.74c0-16.1 13.059-29.15 29.17-29.15a29.208 29.208 0 0116.003 4.767 30.448 30.448 0 013.851 3.02 30.44 30.44 0 012.692 2.859 28.993 28.993 0 016.629 18.504"/><path fill="#F7A014" d="M508.653 115.864c0 13.21-10.717 23.92-23.938 23.92-13.219 0-23.935-10.71-23.935-23.92 0-13.211 10.716-23.92 23.935-23.92 13.221 0 23.938 10.709 23.938 23.92"/><path fill="#BD4A08" d="M494.435 122.197c.128-3.226-1.968-5.674-4.902-7.09a22.737 22.737 0 00-2.358-.964 45.558 45.558 0 01-1.516-.588c-1.006-.412-1.791-.79-2.373-1.165-.932-.603-1.352-1.204-1.352-1.948l.003-.07a1.994 1.994 0 01.324-1.066c.262-.402.694-.748 1.355-.98.526-.185 1.199-.294 2.043-.296h.03a13.636 13.636 0 014.513.753c.739.257 1.327.526 1.776.712l1.264-4.866a14.169 14.169 0 00-.67-.296 13.856 13.856 0 00-2.379-.724c-.159-.034-.324-.065-.492-.097a20.537 20.537 0 00-2.79-.303v-3.79h-4.28v4.09c-1.65.32-3.051.897-4.179 1.68-1.501 1.034-2.507 2.429-2.946 4.052a3.841 3.841 0 00-.09.378 6.526 6.526 0 00-.14.978 7.073 7.073 0 00.155 2.195c.022.097.044.191.075.286.125.445.296.865.514 1.257.464.858 1.14 1.594 1.98 2.236.147.111.296.22.452.324.804.55 1.735 1.027 2.769 1.456.598.25 1.233.48 1.893.7.29.097.564.191.826.29 1.725.638 2.818 1.283 3.37 2.067.292.417.432.875.432 1.393 0 1.72-1.703 2.667-4.195 2.667-.155 0-.314-.003-.467-.008a15.016 15.016 0 01-4.372-.835 15.637 15.637 0 01-2.408-1.051l-1.074 4.144-.234.894c.931.53 2.233 1.008 3.716 1.35a21.348 21.348 0 003.709.501v4.088h4.279v-4.389c3.544-.866 7.004-3.227 7.64-7.004.055-.328.09-.648.099-.961"/><path fill="#FFF" d="M494.217 119.449c-.47-1.96-1.72-3.462-3.947-4.7a18.001 18.001 0 00-2.19-1.013 23.61 23.61 0 00-.924-.341 50.612 50.612 0 01-1.085-.417 25.186 25.186 0 01-1.624-.695c-1.017-.485-1.701-.938-2.093-1.427a1.891 1.891 0 01-.295-.482 1.624 1.624 0 01-.131-.543c-.003-.046-.006-.092-.006-.138 0-1.206.917-2.413 3.75-2.413.097 0 .194 0 .287.003l.112.002c1.57.044 2.843.332 3.85.662.246.077.473.16.688.242.54.206.989.407 1.346.557l.787-3.033.234-.896.242-.938a13.081 13.081 0 00-2.006-.758c-.242-.07-.498-.136-.762-.199a18.706 18.706 0 00-3.129-.438c-.14-.01-.28-.017-.426-.024v-3.79h-4.273v4.091c-1.447.279-2.703.759-3.748 1.398-1.347.821-2.342 1.907-2.943 3.18a6.982 6.982 0 00-.671 2.784 6.945 6.945 0 00.052 1.263 6.185 6.185 0 00.619 2.039c.212.422.476.814.781 1.182.575.69 1.303 1.29 2.162 1.82.062.04.127.08.193.116 1.004.603 2.18 1.114 3.483 1.572.18.066.367.126.554.19 1.1.367 1.987.728 2.68 1.113 1.27.7 1.88 1.473 1.935 2.474.003.053.007.106.007.16 0 1.72-1.705 2.667-4.19 2.667-.143 0-.29-.003-.432-.007a14.947 14.947 0 01-3.975-.693 16.13 16.13 0 01-2.65-1.098c-.06-.029-.122-.063-.18-.094l-1.307 5.036c.202.117.423.23.66.34.948.443 2.152.828 3.477 1.102 1.035.215 2.149.36 3.275.411v4.087h4.273v-4.39c5.014-.862 7.764-4.132 7.764-7.965a8.37 8.37 0 00-.224-2"/><path fill="#FDC94D" d="M456.573 126.329a30.01 30.01 0 01-1.777-8.074l5.432-4.455c-.051.666-.079 1.34-.079 2.02 0 2.36.33 4.642.948 6.798l-4.524 3.71m38.573-31.63a23.109 23.109 0 00-8.232-2.78l5.44-4.46a28.81 28.81 0 017.323 3.527l-4.53 3.714"/><path fill="#F9B343" d="M461.732 121.844a23.279 23.279 0 01-.952-6.622c0-.662.027-1.317.08-1.966l26.807-21.312a23.697 23.697 0 018.27 2.708l-8.898 7.073v-1.862h-.42v-1.216h-4.207v4.043c-1.424.276-2.662.75-3.69 1.382-1.327.811-2.307 1.884-2.898 3.143a6.918 6.918 0 00-.662 2.751 6.631 6.631 0 00.043 1.169l-13.473 10.709"/><path fill="#CA6E39" d="M486.212 102.409v-2.243h.748v1.901l-.748.342"/><path fill="#FFF" d="M475.043 111.379a7.07 7.07 0 01-.042-1.19c.033-1 .255-1.941.647-2.799.579-1.281 1.538-2.373 2.835-3.198 1.007-.644 2.218-1.126 3.612-1.406V98.67h4.117v3.472l-11.169 9.236"/><path fill="#FDC94D" d="M460.374 131.561a27.33 27.33 0 01-1.09-1.766l4.187-3.466c.323.617.673 1.218 1.049 1.8l-4.146 3.432"/><path fill="#F9B343" d="M464.103 128.571a23.047 23.047 0 01-1.08-1.82l13.391-10.887c.345.41.744.787 1.19 1.136.124.097.25.193.38.285l-13.881 11.286"/><path fill="#CA6E39" d="M478.058 118.106a9.84 9.84 0 01-1.57-1.784l.451-.458a10.432 10.432 0 001.37 1.239c.137.107.28.212.423.314l-.674.69"/><path fill="#F9B343" d="M484.533 112.126a19.35 19.35 0 01-.489-.203c-.652-.284-1.173-.555-1.572-.83l3.755-2.704a15.361 15.361 0 012.977.373l-4.67 3.364"/><path fill="#CA6E39" d="M488.24 108.389a12.176 12.176 0 00-2.776-.407l1.295-1.088c.737.126 1.382.306 1.945.501.174.06.342.121.5.183l-.965.81"/><path fill="#FDC94D" d="M501.247 99.419a25.06 25.06 0 00-1.57-1.54l4.458-3.693c.526.505 1.03 1.033 1.526 1.576l-4.414 3.657"/><path fill="#F9B343" d="M492.947 106.146l.15-.598-.087-.043a12.22 12.22 0 00-.556-.252l.233-.937c-.158-.077-.32-.154-.49-.229l7.486-6.163c.518.46 1.014.944 1.49 1.45l-8.226 6.772"/><path fill="#CA6E39" d="M491.448 106.894l.583-2.243a20.235 20.235 0 01.914.405l-.213.818-1.284 1.02"/><path fill="#FFF" d="M479.084 116.611a12.051 12.051 0 01-.437-.24 10.316 10.316 0 01-1.411-.949l5.31-4.026c.39.283.9.563 1.537.855.151.069.311.139.478.21l-5.477 4.15m11.054-8.38a13.963 13.963 0 00-2.564-.647l4.855-3.68c.18.072.349.146.516.221l-.246.907-.43 1.584-2.13 1.615"/><path fill="#FDC94D" d="M462.21 135.299a30.875 30.875 0 01-1.43-1.66l4.544-3.573c.456.572.935 1.124 1.44 1.654l-4.554 3.579"/><path fill="#F9B343" d="M467.346 131.561a23.882 23.882 0 01-1.33-1.608l14.316-11.847c.343.177.701.345 1.075.507.343.15.701.293 1.065.432l-5.069 4.195a14.969 14.969 0 01-1.165-.591l-.075.304-.412 1.653-8.405 6.955"/><path fill="#CA6E39" d="M482.32 118.854a23.29 23.29 0 01-1.041-.4 18.288 18.288 0 01-1.05-.471l.79-.624c.362.145.736.285 1.122.419.17.061.347.118.523.177.191.064.377.128.556.192l-.9.707"/><path fill="#FDC94D" d="M504.028 102.409a24.836 24.836 0 00-1.36-1.712l4.615-3.52c.473.551.93 1.12 1.37 1.704l-4.625 3.528"/><path fill="#F9B343" d="M488.413 114.369a22.65 22.65 0 00-1.941-.811l-.26-.102 4.517-3.761c.318.137.594.265.83.368l.33-1.333 10.284-8.564c.435.55.853 1.12 1.244 1.71l-15.004 12.493"/><path fill="#CA6E39" d="M491.77 109.884c-.304-.116-.66-.26-1.07-.413l1.497-1.082-.426 1.495"/><path fill="#FFF" d="M475.74 124.834l.406-1.6.074-.293c.056.03.115.064.172.093.305.164.63.325.974.478l-1.626 1.322m7.52-6.115a48.923 48.923 0 00-.56-.199c-.178-.062-.356-.121-.528-.185-.388-.14-.764-.285-1.128-.436l5.26-4.278.254.098c.305.11.598.22.88.334.358.143.696.29 1.018.44l-5.197 4.226"/><path fill="#FFC73B" d="M740.813 358.135c-1.487 1.814-3.486 3.67-5.661 5.21-2.163 1.589-4.497 2.944-6.764 3.77-.31.12-.624.231-.93.327-.197.061-.39.117-.575.172l-.172.372-.212.476-.101.237-.05.11-.021.056c-.034.135-.086.32-.138.473l-.019.04c.05.289-.009.418-.049.458-.015.006-.043-.003-.05-.05l-.011-.06-.01-.022-.006-.01.126-.316a2.654 2.654 0 00-.07-.286c-.09-.304-.308-.575-.492-.756a1.886 1.886 0 00-.243-.206c-.215-.117-.116-.138-.076-.15l.347-.065c.331-.07.768-.169 1.247-.301l.267-.593.9-1.918a58.65 58.65 0 011.923-3.655c1.355-2.314 2.884-4.413 4.454-5.744a7.254 7.254 0 012.236-1.334c.688-.252 1.34-.328 2.12-.24.746.102 1.747.348 2.626.744.5.206.814.44.961.55a.881.881 0 00.022-.14c-.016-.065-.019-.118 0-.124a.47.47 0 010 .123c.009.052.03.108.055.157.052.089.028.068-.077-.015a3.171 3.171 0 01-.064.248c-.019.056-.037.114-.065.176-.236.62-.774 1.475-1.428 2.286zm10.674-7.33c-1.557-2.917-3.886-4.303-5.744-5.21-1.87-.848-3.8-1.505-6.07-1.69-2.23-.193-4.66.16-6.773 1.048-2.131.873-3.867 2.244-5.268 3.664-1.416 1.426-2.482 2.99-3.363 4.555a27.719 27.719 0 00-2.138 4.754c-.578 1.595-.992 3.206-1.327 4.82-.166.805-.289 1.62-.402 2.434-.059.405-.096.817-.13 1.229l-.049.627-.021.32v.04l-.006.006c-.065.16-.142.31-.2.476a6.893 6.893 0 00-.304 1.054c-.126.796-.212 1.783.28 2.97.457 1.152 1.486 2.092 2.325 2.495.894.47 1.554.584 2.258.731 2.441.305 4.159-.024 5.851-.344 3.603-.685 6.712-2.164 9.642-3.814 2.894-1.749 5.68-3.7 8.168-6.46 1.231-1.405 2.45-2.95 3.382-5.142.454-1.107.826-2.398.906-3.897.04-1.519-.27-3.209-1.017-4.666z"/><path fill="#ED8617" d="M742.583 356.357c.028-.06.047-.119.066-.173.028-.092.05-.174.066-.247-.15-.11-.47-.341-.982-.545a10.492 10.492 0 00-2.68-.737c-.797-.088-1.462-.012-2.164.238a7.439 7.439 0 00-2.283 1.321c-1.602 1.318-3.163 3.398-4.546 5.69a57.63 57.63 0 00-1.963 3.62l-.919 1.9-.273.588c.189-.055.386-.11.587-.171-.373 1.334-1.725 5.873-1.9 2.372a14.96 14.96 0 01.04-1.903c.355-4.661 2.487-12.513 7.112-17.004 5.336-5.182 11.479.098 12.21 1.857.42 1.011-1.045 2.29-2.37 3.194"/><path fill="#FFC73B" d="M722.325 366.418c.003.135.016.27.043.399l-.024-.046-.056-.126-.116-.267-.244-.543-.51-1.088c-.111-.233-.216-.466-.326-.702-.206-.126-.428-.27-.659-.418h-.003a41.496 41.496 0 01-1.437-.978c-2.608-1.772-5.187-3.766-7.626-5.76-2.385-2.045-4.775-4.109-6.452-6.222a15.743 15.743 0 01-1.233-1.705c-.351.148-.64.3-.779.384l-.043.049c-.07.027-.049.006.043-.05l.019-.064a.626.626 0 00.166-.242c.043-.175.203-.432.175-.635.006-.046.01-.089.013-.129.003-.064.003-.12.003-.16-.034-.113-.007-.125 0 0l.006.029c.009.04.021.082.04.128.064.178.19.417.357.69.31-.128.664-.257 1.006-.334a7.82 7.82 0 012.781-.282c1.701.101 3.584 1.202 5.51 3.051 1.864 1.868 3.63 4.327 5.162 7.008l.006.012.031.05c.794 1.315 1.498 2.707 2.203 4.115.166.319.323.644.477.966l.003.006.23.49c.487.304.877.528 1.053.617 1.046.346-.252.116.181 1.757zm6.236-.426l-.403-3.226a51.698 51.698 0 00-.51-2.665c-.385-1.773-.902-3.515-1.486-5.269-1.252-3.468-2.864-6.952-5.455-10.19-1.286-1.623-2.827-3.2-4.772-4.493-1.92-1.3-4.251-2.34-6.75-2.779-2.498-.46-5.042-.224-7.297.331-1.154.261-2.23.653-3.403 1.156-1.181.559-2.464 1.246-3.765 2.54-1.299 1.174-2.43 3.333-2.717 5.394-.274 2.1.154 3.849.659 5.232 1.076 2.742 2.464 4.4 3.842 5.959 2.824 2.95 5.704 5.213 8.768 7.182 3.034 1.993 6.162 3.683 9.494 5.177.853.358 1.702.705 2.643 1.042.462.169.97.338 1.566.51.781.235 1.36.272 1.978.34 1.27.07 2.886.067 4.652-.902.849-.484 1.634-1.236 2.123-2.076a5.87 5.87 0 00.729-1.944l.055-.353.022-.202.012-.108c.015-.126.037-.444.015-.656z"/><path fill="#FFC73B" d="M722.751 366.04a1.572 1.572 0 01.414.506l.03.072.057.15c.037.109.053.2.062.29.01.087.025.2.019.268-.003.16-.022.325-.05.447-.028.14-.063.255-.1.368-.153.45-.347.796-.544 1.133a12.172 12.172 0 01-1.333 1.731c-.947 1.046-1.989 1.957-3.08 2.8-2.196 1.672-4.613 3.06-7.312 4.047-1.351.484-2.78.868-4.313 1.036-1.526.181-3.184.137-4.87-.337-1.682-.459-3.343-1.476-4.547-2.818-1.223-1.345-1.957-2.914-2.442-4.422-.229-.764-.422-1.532-.516-2.409-.094-.867-.107-1.822.112-2.849.22-1.017.71-2.106 1.46-2.952a7.253 7.253 0 012.503-1.844c.87-.393 1.707-.606 2.508-.75a14.427 14.427 0 012.32-.205c.748-.013 1.474.016 2.187.072a31.79 31.79 0 012.095.259c2.74.44 5.33 1.173 7.84 2.062a55.169 55.169 0 015.511 2.307l.888.452.444.228.657.359zm-1.07 1.492c.041.032.085.06.132.081.063.032.075.035.056.029l-.028-.004-.06-.012-.115-.022-.238-.04-.475-.091-.954-.169-1.901-.34c-1.264-.221-2.524-.44-3.778-.633-2.509-.384-5.007-.715-7.422-.824-1.207-.053-2.39-.044-3.484.062-1.085.11-2.108.337-2.724.684-.3.171-.481.328-.582.465-.103.13-.15.262-.193.508a3.458 3.458 0 00-.004 1.012c.044.408.179.898.32 1.373.287.951.7 1.769 1.213 2.359.503.605 1.12 1.014 1.917 1.304.794.287 1.773.4 2.827.372a16.558 16.558 0 003.3-.469c2.258-.533 4.544-1.432 6.727-2.524a28.759 28.759 0 003.15-1.823c.49-.337.969-.69 1.366-1.054.2-.175.381-.362.494-.503l.072-.084c.025-.031.028-.028.047-.028l.019.028c.009.01.018.022.028.05l.022.034.015.013.028.056a.494.494 0 00.226.19z"/><path fill="#ED8617" d="M720.342 364.015c-.972.088-3.773.004-10.182-2.287-8.415-3.012-11.668-8.3-10.549-11.24.569-1.497 2.159-1.99 3.583-2.116l.05-.003c1.318-.106 2.484.1 2.549.113-.379.05-.775.128-1.187.25a6.228 6.228 0 00-1.006.34c.304.51.75 1.138 1.233 1.738 1.676 2.153 4.066 4.256 6.45 6.34 2.438 2.031 5.015 4.062 7.623 5.869.464.34.969.684 1.436.996"/><path fill="#FFE9B3" d="M694.943 352.972c-.38-.942-.596-1.933-.713-2.95a10.431 10.431 0 01.105-3.1c.09-.521.25-1.03.429-1.537.2-.497.438-.988.734-1.445a8.286 8.286 0 012.257-2.343 11.008 11.008 0 012.88-1.427c.253-.09.51-.145.762-.22l.383-.104.386-.08.772-.152.772-.102c.515-.077 1.03-.09 1.546-.13.253-.024.522-.008.784-.008l.794.009c.262.018.527.05.79.077.265.03.53.04.79.102.522.102 1.047.188 1.553.361.256.08.515.142.762.238l.741.3c.253.089.485.216.722.336.235.127.479.238.704.377.448.284.908.55 1.318.88l.318.234c.105.077.21.158.306.247l.593.519c.756.723 1.472 1.482 2.077 2.319l.235.306.219.318c.142.213.29.423.43.639.265.438.54.87.777 1.321.497.89.917 1.816 1.3 2.751.382.936.706 1.89.984 2.853.281.964.528 1.936.713 2.918.192.982.343 1.967.42 2.964a.1.1 0 01-.092.108c-.05.003-.093-.028-.102-.074l-.003-.003a42.621 42.621 0 00-1.84-5.598 35.985 35.985 0 00-1.21-2.658l-.16-.324-.174-.322c-.117-.21-.225-.426-.345-.636-.247-.416-.485-.833-.747-1.235-.25-.41-.538-.796-.806-1.188l-.432-.569-.22-.284-.231-.271a16.786 16.786 0 00-1.973-2.007l-.543-.439a3.034 3.034 0 00-.278-.207l-.284-.2c-.37-.278-.778-.494-1.17-.732-.818-.414-1.651-.803-2.54-1.019-.432-.142-.89-.2-1.337-.293-.222-.053-.454-.056-.682-.084-.228-.018-.454-.046-.685-.061l-.692-.004c-.231.004-.457-.012-.697.01-.47.034-.948.037-1.411.108l-.698.08-.688.117-.343.062-.336.084c-.223.058-.451.104-.67.17-.883.25-1.717.61-2.479 1.07a7.362 7.362 0 00-3.213 4.17l-.105.333-.084.34c-.065.225-.099.46-.148.69-.071.467-.136.943-.157 1.424-.059.96-.019 1.942.123 2.912v.006a.102.102 0 01-.083.114.105.105 0 01-.108-.061m47.411-6.873c.817.143 1.606.398 2.37.723.764.328 1.506.723 2.198 1.207 1.383.954 2.616 2.251 3.355 3.865.192.398.333.818.456 1.243.05.216.103.431.15.647l.089.657c.088.88.022 1.762-.132 2.613-.095.42-.183.842-.324 1.243-.117.413-.286.8-.444 1.191-.075.198-.182.386-.273.578-.098.188-.186.382-.29.568l-.33.55c-.056.088-.106.182-.17.27l-.188.262c-.126.17-.248.346-.377.516l-.412.49c-.072.082-.138.164-.21.243l-.224.23c-.15.153-.292.307-.45.453-.32.28-.628.575-.971.827-.167.128-.33.267-.506.386l-.522.358a18.603 18.603 0 01-4.537 2.119c-.393.13-.793.234-1.192.349-.4.097-.798.198-1.204.277-.805.17-1.616.291-2.43.382-.406.046-.812.089-1.22.113-.406.027-.815.042-1.22.055a23.63 23.63 0 01-1.22 0c-.409-.013-.811-.03-1.22-.073a.101.101 0 01-.091-.107.105.105 0 01.09-.088h.004c3.179-.38 6.298-1.121 9.146-2.315.359-.15.705-.316 1.054-.475l.512-.26a10.9 10.9 0 00.5-.271c.67-.362 1.295-.778 1.896-1.222.6-.44 1.147-.933 1.657-1.45.126-.133.245-.27.368-.404l.179-.2c.06-.067.113-.143.17-.213l.33-.425c.104-.146.198-.298.299-.444.21-.292.364-.614.547-.918.088-.158.154-.322.232-.48.073-.164.16-.319.217-.49.126-.333.261-.665.352-1.002.117-.337.18-.678.258-1.015a8.66 8.66 0 00.11-2.027 7.168 7.168 0 00-.443-1.96c-.478-1.27-1.324-2.452-2.374-3.516-1.053-1.06-2.295-2.009-3.638-2.878l-.003-.003a.1.1 0 01-.028-.14.098.098 0 01.104-.039"/><path fill="#FF423D" d="M672.469 438.04h44.881v-68.023h-44.881z"/><path fill="#E82823" d="M717.35 438.04h68.07v-68.023h-68.07z"/><path fill="#FFC73B" d="M697.154 370.017l-.022 68.77h-9.703l.026-68.77h9.699m53.109 68.77h9.724v-68.77h-9.724z"/><path fill="#FAA300" d="M248.213 427.242c0 2.592-2.147 5.011-5.784 6.947a23.356 23.356 0 01-3.464 1.52c-.45.208-.934.381-1.419.52-2.078.691-4.399 1.242-6.927 1.691a59.98 59.98 0 01-4.57.555 63.81 63.81 0 01-6.408.312 51.36 51.36 0 01-3.983-.139 48.768 48.768 0 01-5.68-.554 34.075 34.075 0 01-3.463-.586 65.999 65.999 0 01-1.951-.467 47.356 47.356 0 01-2.828-.812c-2.806-.9-5.16-2.006-6.926-3.285-2.391-1.694-3.742-3.63-3.742-5.702 0-1.105-.727-7.538 0-8.572l.035-.046c.421-.573.977-1.05 1.649-1.444l.113-.065c.143-.08.292-.16.447-.232.456-.22.957-.409 1.498-.563.473-.15.977-.276 1.51-.384 1.572-.316 3.398-.465 5.416-.518.381-.015.768-.028 1.162-.03.115-.004.231-.004.348-.004.187-.003.377-.003.567 0h.052c.854.006 1.737.034 2.65.072.492 0 .997.006 1.51.015.48.01.966.025 1.453.037.167.006.333.013.5.016.5.009 1.003.021 1.512.034 1.362.034 2.755.08 4.168.105l1.51.037.915.019c.326.003.653.009.982.012h.576c1.466 0 2.915-.03 4.34-.093.243-.01.486-.021.728-.037.449-.022.896-.05 1.34-.077.51-.022 1.013-.047 1.51-.075 1.052-.055 2.072-.12 3.06-.167l1.51-.118a114.85 114.85 0 013.262-.195c.739-.03 1.459-.055 2.155-.068.485-.034.934-.034 1.42-.034h.09c.32.003.635.006.943.019a12.486 12.486 0 01.571.024c.656.031 1.278.087 1.859.165.533.065 1.038.151 1.511.26.264.059.517.127.762.204.332.1.647.217.943.35.91.403 1.647.948 2.195 1.666.033.047.066.09.1.136l.03.044.038.068c.039.077.074.176.102.297.453 1.79.103 8.188.103 9.142"/><path fill="#D2C0D2" d="M209.445 438.813c-.252-.007-.501-.017-.748-.026.247.01.496.019.748.026"/><path fill="#FDB905" d="M209.445 438.04a18.23 18.23 0 01-.584-.083 28.059 28.059 0 01-2.408-.498v-7.642c.962.246 1.962.461 2.992.646v7.577"/><path fill="#FDBB21" d="M241.61 415.075v19.195a18.536 18.536 0 01-2.992 1.527v-20.93c1.077 0 2.094.072 2.992.208"/><path fill="#D2C0D2" d="M215.451 438.8h-.018.018"/><path fill="#FDB905" d="M219.444 438.787c-1.342 0-2.65-.032-3.958-.125-.019 0-.037-.003-.056-.003v-7.151a69.79 69.79 0 0010.472-.196v7.183c-2.06.196-4.224.292-6.458.292"/><path fill="#F07700" d="M201.965 436.545c-2.727-.902-5.015-2.008-6.732-3.288v-7.925c1.732 1.314 4.023 2.489 6.732 3.446v7.767m28.425 2.242v-7.894c2.439-.466 4.703-1.084 6.732-1.823v7.983c-2.02.71-4.275 1.275-6.732 1.734"/><path fill="#FDBB21" d="M247.594 419.724c0 .04 0 .081-.002.122 0 .059-.003.118-.006.177a5.093 5.093 0 01-.27 1.333c-.69 1.996-2.625 3.824-5.476 5.36a28.573 28.573 0 01-3.446 1.544c-.456.172-.927.334-1.411.492-2.077.682-4.394 1.25-6.891 1.673a62.235 62.235 0 01-4.548.595c-2.048.19-4.181.292-6.374.292-1.345 0-2.667-.04-3.962-.112a64.268 64.268 0 01-5.65-.57 52.235 52.235 0 01-3.446-.613 43.697 43.697 0 01-1.873-.433 41.214 41.214 0 01-2.881-.832c-2.773-.906-5.118-2.024-6.89-3.291-1.972-1.408-3.24-3-3.61-4.693v-.004a5.99 5.99 0 01-.055-.292v-.003a4.001 4.001 0 01-.055-.623c-.003-.04-.003-.081-.003-.122l.001-.043c0-.175.012-.349.033-.523.136-1.153.685-2.261 1.59-3.301.88-1.013 2.1-1.966 3.6-2.828.12-.069.242-.137.366-.206l.121-.065a26.445 26.445 0 011.817-.884 33.956 33.956 0 014.085-1.492 49.412 49.412 0 015.747-1.333 65.346 65.346 0 012.612-.39c.115-.015.229-.027.344-.04a69.016 69.016 0 013.077-.299 71.322 71.322 0 015.032-.18c1.389 0 2.755.04 4.09.121l.083.003c.289.016.574.034.859.056.742.056 1.473.122 2.195.196l.25.028c.135.013.267.032.4.047a63.288 63.288 0 013.187.458c.46.078.914.162 1.36.252 2.53.502 4.85 1.152 6.891 1.925.489.183.96.373 1.413.573a24.227 24.227 0 012.255 1.108c.419.234.816.474 1.19.72l.044.03c.042.026.083.054.123.082 2.036 1.37 3.392 2.93 3.88 4.593a4.81 4.81 0 01.202 1.243l.002.15"/><path fill="#BD4A08" d="M247.594 419.202c0 .038 0 .077-.002.116a5.102 5.102 0 01-.114.782 5.077 5.077 0 00-.506-1.368l-.015-.03a7.365 7.365 0 00-1.21-1.609 11.93 11.93 0 00-1.646-1.394c-.24-.173-.494-.342-.757-.509a19.411 19.411 0 00-1.518-.862c-.065-.036-.129-.066-.195-.098a24.262 24.262 0 00-1.462-.678l-.27-.116c-.286-.12-.578-.235-.878-.348a22.228 22.228 0 00-.536-.2c-2.04-.737-4.36-1.358-6.891-1.84a60.372 60.372 0 00-4.547-.681 59.628 59.628 0 00-2.784-.25 70.985 70.985 0 00-6.972-.154 68.836 68.836 0 00-6.23.431 60.727 60.727 0 00-3.446.496 51.57 51.57 0 00-4.755 1.05l-.059.018a38.601 38.601 0 00-3.084.982 31.91 31.91 0 00-1.51.594c-.066.03-.132.056-.197.086-.727.318-1.41.651-2.04.996-1.232.678-2.274 1.416-3.093 2.195a7.563 7.563 0 00-.284.282c-.06.06-.117.122-.173.182-.635.693-1.099 1.418-1.37 2.167-.08.218-.142.438-.188.658a4.851 4.851 0 01-.114-.782c-.003-.04-.003-.078-.003-.116l.001-.042c0-.167.012-.333.033-.5.136-1.1.685-2.158 1.59-3.152.88-.966 2.1-1.876 3.6-2.7l.366-.196.121-.063a26.463 26.463 0 011.817-.844 35.198 35.198 0 014.085-1.424 51.244 51.244 0 015.257-1.19c.163-.03.326-.056.49-.083a60.568 60.568 0 013.283-.449c.9-.101 1.818-.185 2.75-.247.845-.06 1.704-.104 2.572-.13a72.988 72.988 0 016.55.071l.082.005a63.165 63.165 0 013.055.241l.25.027c.135.012.267.03.4.045a60.297 60.297 0 014.547.677c2.53.48 4.85 1.101 6.891 1.838.489.176.96.357 1.413.548a24.072 24.072 0 012.255 1.058c.419.223.816.452 1.19.687l.044.03c.042.024.083.05.123.077 2.036 1.309 3.392 2.798 3.88 4.386a4.4 4.4 0 01.202 1.187l.002.143"/><path fill="#FDD67C" d="M247.233 417.857c-.448 5.942-12.967 10.708-28.382 10.708-14.229 0-25.981-4.063-28.064-9.361-.008.11-.042.216-.042.326 0 6.096 12.726 11.035 28.425 11.035 15.698 0 28.424-4.94 28.424-11.035 0-.57-.146-1.127-.36-1.673"/><path fill="#EB770A" d="M195.97 413.957a18.19 18.19 0 011.335-.773c.427-.222.878-.439 1.352-.65.204-.088.41-.18.623-.265a33.918 33.918 0 013.287-1.157c.096-.027.194-.058.293-.085a47.566 47.566 0 014.755-1.102 57.3 57.3 0 013.446-.519 67.215 67.215 0 016.694-.458c.106-.003.213-.003.32-.006.143-.003.287-.003.433-.006.22 0 .44-.003.662-.003h.123c1.069.003 2.125.028 3.16.076.245.013.487.025.729.04a60.234 60.234 0 013.865.333c1.581.183 3.102.421 4.547.705 2.564.507 4.887 1.169 6.891 1.95.491.19.962.391 1.413.595.107.05.212.095.316.147a20.473 20.473 0 012.245 1.233 13.05 13.05 0 01.885.62 9.522 9.522 0 011.695 1.611c.285.354.522.718.707 1.087a4.35 4.35 0 01.484 1.96 4.27 4.27 0 01-.318 1.593c-.598 1.48-2.017 2.857-4.072 4.062a24.038 24.038 0 01-3.446 1.63c-.455.177-.926.345-1.411.507-2.049.687-4.369 1.257-6.891 1.682a59.637 59.637 0 01-4.548.589c-2.044.189-4.178.29-6.374.29-1.347 0-2.669-.037-3.962-.11-1.96-.11-3.852-.3-5.65-.562a56.209 56.209 0 01-3.446-.61 47.669 47.669 0 01-1.903-.446 39.312 39.312 0 01-2.851-.833c-2.92-.977-5.285-2.189-6.89-3.562a8.7 8.7 0 01-1.033-1.023c-.86-1.01-1.326-2.087-1.326-3.208 0-.628.145-1.242.424-1.837.02-.043.04-.082.06-.122.068-.137.143-.272.223-.403.649-1.062 1.723-2.063 3.153-2.97m51.623 5.39a4.705 4.705 0 00-.202-1.217c-.488-1.63-1.844-3.16-3.88-4.503a2.578 2.578 0 00-.123-.079l-.043-.03a18.53 18.53 0 00-1.191-.705 24.228 24.228 0 00-2.255-1.087 28.294 28.294 0 00-1.413-.562c-2.041-.757-4.361-1.395-6.891-1.886a58.864 58.864 0 00-4.547-.696c-.133-.015-.265-.033-.4-.046l-.25-.027a63.09 63.09 0 00-3.055-.247l-.082-.006a71.098 71.098 0 00-6.55-.074c-.868.028-1.727.074-2.571.135-.933.064-1.85.15-2.751.253-.11.012-.22.024-.327.04-.115.012-.23.024-.344.04a60.912 60.912 0 00-3.102.466 50.442 50.442 0 00-5.257 1.221 34.727 34.727 0 00-4.597 1.688c-.453.208-.888.421-1.305.641l-.12.064c-.125.067-.247.134-.367.202-1.5.845-2.72 1.78-3.6 2.771-.905 1.02-1.454 2.106-1.59 3.235a4.207 4.207 0 00-.033.513l-.001.043c0 .04 0 .08.003.119a3.788 3.788 0 00.055.61v.003c.015.095.034.193.054.287v.003c.37 1.682 1.637 3.294 3.61 4.731 1.773 1.295 4.118 2.451 6.891 3.395.917.314 1.882.604 2.888.866.606.162 1.229.315 1.866.452 1.107.247 2.258.461 3.445.644a59.54 59.54 0 005.65.592 65.369 65.369 0 0010.337-.204c1.57-.156 3.09-.373 4.548-.632 2.496-.449 4.814-1.044 6.89-1.755.485-.165.956-.336 1.412-.516a28.372 28.372 0 003.446-1.593c2.85-1.572 4.788-3.428 5.476-5.403a4.975 4.975 0 00.27-1.306c.003-.058.006-.116.006-.174.002-.04.002-.08.002-.12 0-.048 0-.097-.002-.146m-29.466-10.524l-.052.12c.144-.004.288-.004.434-.007a7.03 7.03 0 01-.382-.113"/><path fill="#EB770A" d="M221.655 414.867v1.124c1.369.039 2.25.235 2.92.428l-.577 1.458c-.518-.158-1.461-.447-2.891-.447-1.309 0-1.734.367-1.734.717 0 .427.699.7 2.403 1.108 2.404.543 3.378 1.243 3.378 2.386 0 1.147-1.278 2.117-3.59 2.39v1.301h-1.978v-1.224c-1.34-.038-2.648-.273-3.409-.542l.61-1.497c.85.292 2.038.565 3.346.565 1.126 0 1.917-.292 1.917-.797 0-.485-.639-.796-2.13-1.127-2.16-.466-3.621-1.105-3.621-2.348 0-1.128 1.248-2.001 3.408-2.274v-1.22h1.948"/><path fill="#FDD67C" d="M221.655 414.867v1.127c1.369.039 2.251.231 2.92.427l-.577 1.455c-.518-.154-1.461-.446-2.891-.446-1.309 0-1.735.369-1.735.719 0 .427.7.7 2.404 1.108 2.404.542 3.378 1.24 3.378 2.386 0 1.146-1.278 2.116-3.59 2.389v1.3h-1.978v-1.223c-1.34-.039-2.648-.273-3.409-.543l.61-1.496c.851.292 2.038.562 3.346.562 1.126 0 1.917-.29 1.917-.793 0-.489-.639-.797-2.13-1.128-2.16-.465-3.62-1.104-3.62-2.35 0-1.124 1.247-1.997 3.407-2.27v-1.224h1.948"/><path fill="#FAA300" d="M249.71 414.533c0 1.332-.568 2.62-1.614 3.822l-.018.019-.02.021a8.72 8.72 0 01-.461.49l-.04.037c-.231.23-.48.449-.745.669-.812.669-1.78 1.304-2.886 1.892-.47.257-.976.508-1.512.747a24.42 24.42 0 01-1.952.774c-.45.208-.935.381-1.42.517-.03.01-.06.022-.091.031-.46.152-.934.295-1.42.434-1.673.483-3.484.886-5.416 1.23-.495.083-.998.158-1.51.223-.99.133-2.012.238-3.061.331-.498.05-1 .093-1.51.133-1.583.118-3.22.177-4.897.177a49.45 49.45 0 01-3.984-.14 39.111 39.111 0 01-1.51-.077 51.975 51.975 0 01-4.168-.474 36.678 36.678 0 01-3.464-.588 60.24 60.24 0 01-1.512-.357 49.504 49.504 0 01-2.068-.55 58.942 58.942 0 01-1.2-.373 38.539 38.539 0 01-1.51-.52c-2.148-.793-3.977-1.722-5.417-2.763-.562-.4-1.067-.811-1.51-1.236-.627-.597-1.13-1.223-1.497-1.864a2.852 2.852 0 01-.102-.186 5.256 5.256 0 01-.51-1.357 4.746 4.746 0 01-.121-1.062c0-1.106-.727-7.536 0-8.57l.035-.047c.42-.573.977-1.053 1.65-1.446a5.913 5.913 0 01.703-.362 9.591 9.591 0 011.352-.496 15.545 15.545 0 012.14-.499c.472-.08.964-.145 1.475-.2a37.75 37.75 0 011.989-.15c.431-.024.871-.04 1.323-.052 1.364-.062 2.818-.037 4.357.018.14.007.28.013.423.016 1.107 0 2.285.037 3.464.071 1.834.034 3.74.102 5.678.136.275.01.55.016.826.022.532.012 1.067.028 1.604.034a106.923 106.923 0 001.553.016 94.739 94.739 0 004.34-.096 81.65 81.65 0 002.068-.112c.656-.028 1.3-.062 1.933-.096.48-.028.953-.056 1.419-.08.412-.025.818-.047 1.219-.065l.472-.038c2.315-.189 4.477-.312 6.455-.343.485-.035.935-.035 1.42-.035 1.247 0 2.425.069 3.464.208.828.1 1.587.25 2.272.465.333.099.647.216.944.35.91.4 1.646.947 2.194 1.666.034.043.07.09.101.14l.03.04.035.061c.607 1.184.207 8.428.207 9.444"/><path fill="#FECB26" d="M210.193 425.572c-.473-.156-.936-.35-1.389-.562.254.118.51.231.77.331.204.087.41.162.62.231m-1.806-.762a7.286 7.286 0 01-.439-.225c.146.075.292.156.44.225"/><path fill="#FDB905" d="M211.69 425.332a17.723 17.723 0 01-.631-.092h-.004c-.01-.003-.02-.003-.029-.006-.216-.034-.43-.07-.642-.114-.27-.049-.536-.104-.8-.163h-.004l-.027-.006c-.134-.03-.267-.058-.4-.092-.153-.034-.304-.074-.456-.11v-7.64a37.858 37.858 0 002.992.646v7.577"/><path fill="#FDBB21" d="M243.106 402.368v19.195a18.865 18.865 0 01-2.992 1.527v-20.93a19.7 19.7 0 012.992.208"/><path fill="#FECB26" d="M221.033 426.332h.032-.032m.095 0h.035-.035m-.508 0c-1.25-.02-2.472-.14-3.694-.45 1.222.31 2.444.43 3.694.45m.722 0h.05-.05m.089 0c.019-.01.038-.01.057-.01-.02 0-.038 0-.057.01m.078-.01c1.492-.03 2.951-.22 4.367-.56l.462-.12c-1.56.41-3.174.64-4.83.68m5.154-.77c.246-.07.492-.14.736-.22-.244.08-.49.15-.736.22"/><path fill="#FDB905" d="M220.94 426.08h-.32a53.006 53.006 0 01-3.694-.132v-7.145c1.155.064 2.333.1 3.53.105.13.003.26.003.39.003h.249a70.789 70.789 0 004.78-.178 65.528 65.528 0 001.523-.128v7.183c-.244.023-.49.044-.736.064l-.031.003-.03.003c-.088.006-.175.015-.263.02l-.462.035c-1.416.1-2.875.155-4.367.164h-.021c-.02 0-.038 0-.057.003h-.491"/><path fill="#F38911" d="M203.461 423.837c-1.666-.438-3.171-.94-4.488-1.495.91.385 1.908.74 2.988 1.07.485.146.985.288 1.5.425"/><path fill="#F07700" d="M203.461 423.837a36.25 36.25 0 01-1.467-.52 26.359 26.359 0 01-2.924-1.309c-.004 0-.008-.003-.012-.006-.01-.003-.018-.01-.027-.012-.008-.007-.016-.01-.023-.013-.007-.003-.014-.006-.02-.012l-.035-.019-.01-.003c-.033-.018-.065-.037-.098-.053a17.226 17.226 0 01-2.116-1.339v-7.926c.117.086.235.173.357.26.256.186.524.366.802.542.268.174.546.341.835.509 1.286.738 2.764 1.413 4.4 2.015l.338.12v7.766"/><path fill="#F38911" d="M231.886 426.08c1.877-.455 3.638-.988 5.264-1.628.444-.172.878-.352 1.3-.537-1.976.877-4.174 1.587-6.564 2.165m6.656-2.206l.076-.037-.076.037"/><path fill="#F07700" d="M231.886 425.332v-7.894a45.357 45.357 0 005.264-1.322c.472-.15.93-.308 1.38-.47.03-.01.059-.019.088-.031v7.983l-.076.028c-.03.01-.061.02-.092.032a40.65 40.65 0 01-1.3.416c-1.626.494-3.387.906-5.264 1.258"/><path fill="#FDBB21" d="M249.838 407.018c0 .038 0 .078-.003.119 0 .059-.003.121-.005.18a5.128 5.128 0 01-.269 1.33c-.688 1.987-2.607 3.81-5.433 5.339l-.043.021c-.285.156-.58.306-.884.452a29.219 29.219 0 01-2.562 1.093c-.156.06-.315.119-.475.175l-.15.053c-.257.09-.521.18-.787.268-.03.012-.06.018-.091.03-.235.075-.474.153-.716.225l-.696.206c-.324.093-.655.183-.99.27l-.582.15c-.586.143-1.185.28-1.799.408-.204.044-.409.084-.616.125-.461.09-.928.177-1.402.255-.494.087-.994.165-1.502.237l-.303.043a64.1 64.1 0 01-2.743.315c-.212.019-.429.04-.645.056-.283.025-.568.047-.857.068a70.311 70.311 0 01-6.155.156h-.07a63.632 63.632 0 01-3.184-.134c-.075-.003-.148-.01-.222-.015-.236-.016-.472-.035-.705-.053-.552-.04-1.1-.094-1.638-.15a61.318 61.318 0 01-2.014-.243c-.166-.025-.331-.046-.495-.071a47.48 47.48 0 01-.81-.125 47.812 47.812 0 01-1.901-.339c-.208-.04-.412-.081-.617-.125-.04-.01-.08-.016-.118-.025a40.015 40.015 0 01-1.504-.343 27.21 27.21 0 01-.76-.19c-.382-.1-.761-.205-1.133-.311-.185-.056-.37-.109-.551-.165-.064-.019-.127-.037-.19-.06l-.052-.015h-.002c-.19-.059-.377-.121-.563-.18-.267-.088-.53-.178-.788-.268a29.56 29.56 0 01-3.865-1.664 19.792 19.792 0 01-2.238-1.364c-1.97-1.404-3.237-2.996-3.608-4.693v-.004a5.697 5.697 0 01-.055-.29v-.002a4.005 4.005 0 01-.055-.626c-.003-.04-.003-.081-.003-.119l.001-.043c0-.175.012-.35.034-.524.092-.788.377-1.55.835-2.292.072-.112.147-.224.226-.34.938-1.336 2.45-2.569 4.416-3.66.112-.061.224-.124.338-.183a28.467 28.467 0 013.445-1.53l.026-.009c.285-.105.575-.208.87-.308h.002a42.288 42.288 0 014.753-1.314c.245-.056.491-.106.74-.16l.564-.111a62.71 62.71 0 019.033-1.044 70.564 70.564 0 013.142-.068c.47 0 .94.003 1.406.012.31.007.62.013.927.025.323.01.644.025.963.04.773.035 1.538.085 2.291.147.92.075 1.824.165 2.71.277.14.016.28.035.419.053h.001c.17.022.339.044.508.069.16.022.322.047.484.071 1.187.175 2.337.38 3.445.617 1.738.37 3.37.813 4.874 1.318 5.516 1.847 9.296 4.522 10.19 7.559.123.408.19.825.203 1.249l.003.15"/><path fill="#BD4A08" d="M249.838 406.494c0 .036 0 .074-.003.113a4.67 4.67 0 01-.113.785 5.111 5.111 0 00-.506-1.368 7.37 7.37 0 00-1.224-1.638l-.002-.003a11.783 11.783 0 00-1.645-1.392c-2-1.427-4.778-2.658-8.115-3.616-1.157-.33-2.38-.63-3.662-.89a57.578 57.578 0 00-4.857-.775 64.488 64.488 0 00-3.617-.33c-.39-.027-.782-.048-1.177-.069h-.006a83.22 83.22 0 00-2.091-.071 73.758 73.758 0 00-4.548.056c-3.525.152-6.852.55-9.866 1.157l-.005.003c-.156.03-.312.063-.466.095-.381.08-.759.164-1.13.25-1.62.38-3.134.82-4.52 1.314-1.057.375-2.039.78-2.94 1.214-.172.08-.34.166-.506.25-1.527.776-2.795 1.635-3.752 2.557-.086.083-.17.163-.25.247l-.001.003c-.058.06-.116.119-.17.178-.637.696-1.102 1.421-1.373 2.17-.08.218-.141.438-.187.658a4.778 4.778 0 01-.114-.785c-.003-.039-.003-.077-.003-.113l.001-.042c0-.166.012-.333.034-.5.092-.752.377-1.48.835-2.188.072-.107.147-.214.226-.324.938-1.276 2.45-2.453 4.416-3.494.112-.06.224-.119.338-.176a29.038 29.038 0 013.445-1.46l.026-.009c.285-.1.575-.199.87-.294h.002a43.085 43.085 0 013.05-.868 49.864 49.864 0 011.703-.387c.245-.053.491-.1.74-.151l.564-.108a65.582 65.582 0 019.033-.996 73.767 73.767 0 014.548-.053c.31.006.62.012.927.024.323.008.644.023.963.038.773.033 1.538.08 2.291.14a63.15 63.15 0 013.129.315h.001c.17.021.339.042.508.066.16.02.322.044.484.068 1.187.167 2.337.363 3.445.589 1.738.354 3.37.776 4.874 1.258 5.516 1.763 9.296 4.317 10.19 7.217a4.42 4.42 0 01.206 1.335"/><path fill="#FFF" d="M249.477 405.15c-.449 5.941-12.967 10.708-28.382 10.708-14.229 0-25.981-4.064-28.064-9.362-.008.11-.042.217-.042.326 0 6.093 12.726 11.035 28.425 11.035 15.698 0 28.424-4.942 28.424-11.035 0-.569-.146-1.127-.361-1.672"/><path fill="#EB770A" d="M198.839 400.869l.112-.064a25.004 25.004 0 013.333-1.551c.58-.22 1.184-.43 1.815-.632.348-.11.702-.217 1.063-.324h.005a44.863 44.863 0 013.928-.939c1.324-.26 2.71-.48 4.151-.651a64.195 64.195 0 015.026-.412 66.886 66.886 0 013.142-.07 63.966 63.966 0 012.803.055c1.371.051 2.714.146 4.017.277h.003c.232.022.463.046.693.074.262.027.523.058.78.091.478.055.949.12 1.413.19 1.19.173 2.341.381 3.445.616 1.561.333 3.028.724 4.38 1.166 3.873 1.26 6.805 2.934 8.336 4.842.286.354.522.714.706 1.083l.002.003c.317.632.482 1.289.482 1.957 0 .544-.11 1.08-.32 1.603-.601 1.477-2.018 2.854-4.069 4.054-.376.22-.773.436-1.191.644a25.73 25.73 0 01-1.983.882c-.09.034-.18.07-.272.104-.455.177-.926.348-1.412.51a40.547 40.547 0 01-3.648 1.028c-1.037.248-2.12.464-3.244.654-.492.085-.994.162-1.502.232-.988.143-2.005.262-3.045.357-.495.046-.997.088-1.503.122-.402.027-.806.052-1.215.073-.108.006-.215.012-.323.016a69.93 69.93 0 01-7.087-.021c-.07-.004-.14-.007-.21-.013-.088-.003-.176-.01-.264-.015a54.157 54.157 0 01-1.237-.086 62.741 62.741 0 01-4.147-.458 68.72 68.72 0 01-1.504-.24 24.39 24.39 0 01-.497-.09 48.04 48.04 0 01-1.445-.283 42.406 42.406 0 01-4.336-1.139l-.419-.137a29.08 29.08 0 01-3.143-1.243c-.369-.17-.722-.348-1.06-.53a19.245 19.245 0 01-.897-.51 13.198 13.198 0 01-1.791-1.283 8.593 8.593 0 01-1.027-1.016c-.863-1.01-1.33-2.091-1.33-3.215 0-.626.146-1.242.425-1.837.019-.04.04-.08.058-.12l.001-.003c.048-.094.098-.189.153-.28.726-1.258 2.048-2.43 3.849-3.471m50.996 5.772a4.604 4.604 0 00-.203-1.224c-.894-2.976-4.674-5.598-10.19-7.409a45.133 45.133 0 00-4.874-1.29 54.573 54.573 0 00-3.445-.605c-.162-.025-.323-.05-.484-.07-.17-.025-.338-.046-.508-.068h-.001a61.16 61.16 0 00-3.129-.323 62.286 62.286 0 00-2.291-.144 59.992 59.992 0 00-1.89-.064c-.466-.01-.935-.012-1.406-.012-1.062 0-2.11.021-3.142.067-3.202.14-6.243.495-9.033 1.023l-.565.11c-.248.051-.494.1-.739.155-.58.125-1.149.257-1.704.397a43.235 43.235 0 00-3.05.891 29.43 29.43 0 00-.87.303l-.027.009c-1.257.458-2.41.958-3.445 1.499-.114.058-.226.119-.338.18-1.967 1.068-3.478 2.277-4.416 3.587-.079.113-.154.223-.226.332-.458.727-.743 1.475-.835 2.247a4.018 4.018 0 00-.034.513l-.001.043c0 .036 0 .076.003.116a3.793 3.793 0 00.055.613v.003c.016.095.034.19.055.284v.003c.367 1.685 1.635 3.294 3.608 4.735.12.086.24.171.366.256.262.184.535.36.82.535.274.17.56.335.855.5 1.317.727 2.829 1.392 4.503 1.985l.347.119c.217.076.438.146.66.216.83.269 1.694.52 2.591.745a49.583 49.583 0 003.446.748 58.97 58.97 0 005.651.739l.82.064.136.01c.182.011.363.024.546.033a66.12 66.12 0 003.485.11c.128.003.256.003.384.003h.246a65.347 65.347 0 004.72-.187 62.332 62.332 0 004.547-.515 58.774 58.774 0 001.502-.25 49.025 49.025 0 005.389-1.274 37.78 37.78 0 001.412-.452c.03-.009.06-.018.09-.03a31.38 31.38 0 001.413-.516 29.243 29.243 0 003.446-1.59c.056-.034.112-.065.167-.095 2.76-1.554 4.634-3.373 5.309-5.312.117-.339.2-.683.241-1.028.012-.092.02-.184.028-.275.002-.058.005-.12.005-.177.003-.04.003-.08.003-.116 0-.049 0-.098-.003-.147"/><path fill="#EB770A" d="M223.899 401.412v1.127c1.369.039 2.251.232 2.92.428l-.577 1.455c-.518-.154-1.461-.447-2.891-.447-1.309 0-1.735.37-1.735.72 0 .427.7.7 2.404 1.105 2.404.546 3.378 1.243 3.378 2.39 0 1.146-1.278 2.116-3.59 2.39v1.297h-1.979v-1.22c-1.338-.04-2.647-.274-3.407-.547l.608-1.493a10.55 10.55 0 003.347.562c1.126 0 1.917-.29 1.917-.797 0-.485-.639-.793-2.13-1.124-2.16-.466-3.621-1.108-3.621-2.351 0-1.124 1.248-1.998 3.408-2.271v-1.224h1.948"/><path fill="#FDD67C" d="M223.15 401.412v1.127c1.37.039 2.252.232 2.921.428l-.577 1.455c-.518-.154-1.461-.447-2.891-.447-1.309 0-1.734.37-1.734.72 0 .427.7.697 2.403 1.105 2.404.546 3.378 1.243 3.378 2.39 0 1.143-1.278 2.116-3.59 2.386v1.301h-1.978v-1.22c-1.34-.042-2.648-.274-3.408-.547l.608-1.493c.852.289 2.039.562 3.347.562 1.126 0 1.918-.292 1.918-.797 0-.485-.64-.796-2.13-1.124-2.161-.466-3.622-1.108-3.622-2.351 0-1.124 1.247-1.998 3.408-2.271v-1.224h1.948"/><path fill="#FAA300" d="M239.985 395.101c0 .979-.307 1.933-.885 2.846a7.163 7.163 0 01-.498.697c-.216.27-.456.536-.72.796-.945.936-2.187 1.812-3.681 2.608a21.736 21.736 0 01-2.245 1.059c-.394.161-.8.316-1.219.462-.45.207-.934.38-1.419.517-.622.208-1.267.403-1.933.586-1.555.43-3.223.796-4.994 1.108-.029.003-.058.01-.087.016-.122.018-.247.04-.372.059a57.81 57.81 0 01-3.651.436l-.025.004c-.145.012-.29.027-.436.04-.274.028-.547.052-.825.077a64.992 64.992 0 01-5.582.233h-.097c-1.173 0-2.32-.031-3.464-.106-.14-.01-.282-.018-.422-.03a46.73 46.73 0 01-4.357-.366 56.1 56.1 0 01-1.323-.19 28.43 28.43 0 01-.81-.101 37.148 37.148 0 01-2.654-.484 66.004 66.004 0 01-3.491-.885l-.28-.084-.098-.028c-.307-.093-.61-.189-.91-.285l-.226-.074c-2.706-.886-4.981-1.964-6.7-3.209-2.39-1.694-3.741-3.63-3.741-5.702 0-1.109-.727-7.539 0-8.573l.034-.044c.04-.059.082-.111.126-.167a5.257 5.257 0 011.043-.97 6.173 6.173 0 01.595-.377c.57-.32 1.22-.583 1.943-.793.443-.14.914-.26 1.41-.363.076-.015.151-.03.228-.043.66-.13 1.364-.23 2.105-.303.41-.044.83-.078 1.263-.106.618-.04 1.26-.068 1.92-.083 1.49-.068 3.082-.038 4.78.034 1.108 0 2.285.034 3.463.068 1.836.034 3.74.105 5.68.14.807.02 1.612.04 2.425.055.324.006.65.01.977.012h.58c1.47 0 2.922-.03 4.348-.093.24-.012.48-.024.72-.034.45-.024.895-.052 1.34-.08 1.593-.068 3.116-.17 4.571-.242 2.494-.207 4.815-.344 6.927-.378.485-.037.934-.037 1.42-.037.463 0 .917.013 1.358.031a24.215 24.215 0 012.105.177c.495.059.967.136 1.411.235.044.01.087.022.13.031.253.059.496.124.73.195.334.102.649.22.944.353.91.403 1.648.948 2.196 1.667.034.046.067.093.101.142l.029.04.037.065c.045.087.083.205.116.347.433 1.862.09 8.15.09 9.094"/><path fill="#FECB26" d="M201.965 406.883a12.047 12.047 0 01-2.244-.986c.52.286 1.05.544 1.599.762.212.082.427.156.645.224"/><path fill="#FDB905" d="M201.965 405.897c-.237-.03-.47-.065-.7-.101a28.828 28.828 0 01-1.732-.345c-.003-.003-.007-.003-.011-.003-.003 0-.005-.003-.008-.003l-.54-.129v-7.642c.96.246 1.96.464 2.99.649h.001v7.574"/><path fill="#FDBB21" d="M234.13 382.933v19.194a18.456 18.456 0 01-2.992 1.527v-20.93c1.077 0 2.094.069 2.992.209"/><path fill="#FECB26" d="M212.184 406.707c-1.182 0-2.335-.009-3.487-.035l.02.001c1.115.024 2.231.034 3.373.034h.094c1.87 0 3.688-.025 5.435-.075l.803-.025c-1.99.067-4.08.1-6.238.1"/><path fill="#FDB905" d="M211.964 405.897h-.097c-1.182 0-2.338-.03-3.491-.1l-.022-.002-.405-.026v-7.152a70.169 70.169 0 0010.473-.195v7.183a70.048 70.048 0 01-6.458.292"/><path fill="#F07700" d="M193.737 403.654c-.075-.024-.148-.05-.22-.074-2.631-.887-4.842-1.966-6.512-3.212v-7.926c1.732 1.312 4.023 2.487 6.732 3.445v7.767"/><path fill="#F38911" d="M222.91 405.897a40.872 40.872 0 004.854-1.468c.647-.242 1.273-.5 1.878-.775-2.02.919-4.275 1.649-6.732 2.243"/><path fill="#F07700" d="M222.91 405.897v-7.895a45.858 45.858 0 003.199-.722c.961-.254 1.887-.53 2.771-.831.257-.089.512-.178.762-.27v7.984a35.41 35.41 0 01-1.878.599 50.37 50.37 0 01-4.854 1.135"/><path fill="#FDBB21" d="M240.114 386.834c0 .04 0 .081-.002.121 0 .06-.003.119-.006.181-.008.093-.015.187-.028.28a5.017 5.017 0 01-.242 1.05c-.315.912-.89 1.787-1.694 2.619-.17.174-.35.349-.538.517l-.144.128c-.44.386-.927.756-1.46 1.111l-.18.122a19.756 19.756 0 01-1.46.862 27.96 27.96 0 01-3.446 1.545c-.322.121-.654.237-.99.352h-.002a9.84 9.84 0 01-.42.14 36.014 36.014 0 01-1.92.579 42.62 42.62 0 01-1.744.446c-.199.043-.399.09-.599.134-.176.04-.352.077-.53.115-.434.093-.875.18-1.321.261a58.313 58.313 0 01-3.246.502c-.223.028-.446.056-.67.08-.465.057-.934.103-1.408.15a70.726 70.726 0 01-6.374.293c-1.184 0-2.352-.031-3.497-.087-.156-.01-.311-.016-.466-.028-.358-.019-.714-.04-1.068-.069a48.653 48.653 0 01-1.704-.146c-.352-.031-.7-.072-1.046-.112a45.898 45.898 0 01-.935-.116h-.001c-.301-.037-.6-.08-.896-.124-.49-.072-.974-.146-1.45-.23l-.635-.113a55.54 55.54 0 01-1.36-.267c-.37-.081-.733-.16-1.091-.243a42.67 42.67 0 01-1.53-.39h-.002l-.211-.056a35.574 35.574 0 01-1.92-.579c-.09-.028-.18-.06-.27-.087-1.842-.62-3.49-1.333-4.899-2.12a20.332 20.332 0 01-1.15-.692l-.179-.122c-.134-.09-.265-.177-.393-.27-.384-.275-.74-.555-1.068-.841l-.144-.128a10.638 10.638 0 01-.539-.517c-.975-1.01-1.613-2.087-1.86-3.208v-.003a8.05 8.05 0 01-.054-.293v-.003a4.853 4.853 0 01-.055-.622c-.002-.041-.002-.082-.002-.122l.001-.044a4.756 4.756 0 01.099-.934c.084-.414.224-.822.412-1.224.4-.847 1.029-1.666 1.858-2.435.123-.115.25-.227.38-.34l.061-.052a13.161 13.161 0 011.05-.804c.074-.053.147-.103.222-.152h.002c.128-.088.259-.175.393-.259l.376-.234c.128-.074.258-.152.39-.227.133-.078.267-.15.403-.227a25.357 25.357 0 011.738-.857c.153-.068.307-.137.463-.202.864-.37 1.788-.716 2.765-1.037.088-.028.174-.06.263-.087a46.167 46.167 0 011.657-.492c.907-.25 1.854-.48 2.833-.685a53.166 53.166 0 013.446-.61 61.782 61.782 0 015.65-.568c.241-.018.482-.028.725-.04l.195-.01a73.447 73.447 0 013.043-.065h.115a70.43 70.43 0 016.259.292 60.628 60.628 0 015.649.795c1.352.255 2.644.554 3.87.89.566.16 1.119.321 1.656.493l.264.087c.484.159.955.324 1.411.495.465.174.917.352 1.352.542.081.034.164.068.246.106h.001c.651.286 1.268.585 1.847.897l.106.056c.137.078.271.15.404.227.132.075.262.153.39.227l.376.234.078.05c.158.103.311.205.46.308l.079.053c.374.262.725.53 1.05.804l.043.037c.137.115.27.233.397.355 1.09 1.015 1.833 2.105 2.167 3.245.041.137.075.274.102.411.058.274.091.551.1.832l.002.149"/><path fill="#BD4A08" d="M240.114 386.311c0 .039 0 .078-.002.116-.012.262-.06.524-.114.782a4.915 4.915 0 00-.287-.91 5.618 5.618 0 00-.219-.458 7.409 7.409 0 00-1.224-1.638 12.048 12.048 0 00-1.648-1.398 19.623 19.623 0 00-.499-.339l-.08-.053c-.369-.238-.76-.47-1.174-.7-.166-.091-.334-.18-.507-.267l-.24-.125c-.97-.484-2.043-.94-3.206-1.356a42.068 42.068 0 00-3.29-1.014 50.418 50.418 0 00-5.012-1.055 61.375 61.375 0 00-4.548-.568c-.304-.03-.609-.054-.916-.078h-.006a73.342 73.342 0 00-5.357-.205h-.095c-.19 0-.38.003-.569.003-.183.003-.366.003-.547.006-.962.015-1.911.048-2.847.098a67.288 67.288 0 00-5.65.545 58.383 58.383 0 00-3.446.585c-1.69.34-3.282.747-4.753 1.21-1.85.58-3.508 1.25-4.932 1.993-.147.074-.291.152-.434.229-.413.229-.805.46-1.174.699l-.105.071c-.084.054-.166.11-.246.164a12.285 12.285 0 00-1.876 1.555c-.057.06-.114.119-.168.178a6.552 6.552 0 00-.343.399 6.365 6.365 0 00-.933 1.522 4.582 4.582 0 00-.097.25c-.08.217-.143.437-.189.657a5.067 5.067 0 01-.114-.782c-.002-.038-.002-.077-.002-.116l.001-.041c0-.167.011-.333.033-.497a4.28 4.28 0 01.066-.395c.084-.396.224-.786.412-1.17.4-.808 1.029-1.59 1.858-2.325.123-.11.25-.22.38-.324l.061-.05c.284-.23.588-.455.91-.672.047-.033.093-.066.14-.095.074-.051.147-.099.222-.146h.002c.128-.083.259-.167.393-.247l.376-.223c.128-.071.258-.146.39-.217.133-.074.267-.146.403-.217a25.874 25.874 0 012.201-1.011 34.52 34.52 0 012.765-.99c.088-.027.174-.057.263-.084a46.556 46.556 0 014.49-1.124 57.036 57.036 0 013.446-.586 65.161 65.161 0 014.766-.487h.003c.292-.021.586-.039.881-.054.241-.015.482-.027.724-.035l.196-.01c.403-.017.81-.032 1.217-.038a61.317 61.317 0 011.826-.024h.115a72.432 72.432 0 016.259.277c1.57.142 3.09.333 4.548.568a52.668 52.668 0 014.971 1.043c.566.15 1.119.307 1.656.47l.264.084c.484.151.955.309 1.411.472.465.167.917.336 1.352.518.083.033.165.065.247.1.651.274 1.268.56 1.847.857l.106.054c.137.071.271.143.404.217.132.071.262.146.39.217.127.074.252.149.376.223l.078.048c.158.095.311.196.46.294l.079.05c.374.25.725.506 1.05.768l.043.035c.137.11.27.223.397.34 1.09.969 1.833 2.01 2.167 3.098.041.13.075.262.102.393.058.261.091.526.1.794l.002.142"/><path fill="#FDD67C" d="M239.753 385.714c-.449 5.942-12.968 10.709-28.382 10.709-14.23 0-25.981-4.064-28.064-9.362-.008.11-.042.217-.042.326 0 6.096 12.726 11.035 28.425 11.035 15.698 0 28.424-4.939 28.424-11.035 0-.57-.147-1.127-.361-1.673"/><path fill="#EB770A" d="M186.78 382.346l.079-.07a13.247 13.247 0 011.028-.81c.105-.073.212-.146.32-.216 1.499-1.001 3.42-1.896 5.67-2.646a42.693 42.693 0 014.754-1.276 54.099 54.099 0 013.446-.614 64.29 64.29 0 016.823-.616h.007c.317-.013.637-.025.957-.03a70.256 70.256 0 013.938.005c.274.01.546.019.817.03.041 0 .083.004.125.004 1.13.049 2.237.125 3.32.226a59.139 59.139 0 015.649.787c2.1.397 4.044.898 5.79 1.484a30.144 30.144 0 011.411.506c1.287.498 2.443 1.044 3.446 1.63.177.104.35.21.517.318.213.134.418.271.615.409.372.262.716.534 1.028.808l.058.052c.373.333.702.675.981 1.026.287.354.523.717.709 1.087.316.634.482 1.29.482 1.96 0 .54-.109 1.073-.318 1.592-.174.43-.418.855-.728 1.264-.75 1.004-1.886 1.944-3.344 2.799a23.825 23.825 0 01-3.446 1.63 38.237 38.237 0 01-4.121 1.306 48.419 48.419 0 01-4.181.882 59.13 59.13 0 01-4.548.59 69.373 69.373 0 01-9.177.234 62.187 62.187 0 01-2.864-.174 64.261 64.261 0 01-3.946-.442 57.12 57.12 0 01-3.446-.61 46.365 46.365 0 01-3.888-.999 32.493 32.493 0 01-.865-.28c-2.919-.977-5.284-2.189-6.891-3.56a9.137 9.137 0 01-1.034-1.028 5.926 5.926 0 01-.27-.336c-.687-.91-1.054-1.874-1.054-2.869a4.1 4.1 0 01.184-1.212c.063-.21.144-.42.24-.628l.058-.12c.365-.726.93-1.428 1.67-2.093m53.33 4.111a4.47 4.47 0 00-.099-.815 4.032 4.032 0 00-.102-.403c-.334-1.117-1.076-2.185-2.167-3.18a8.3 8.3 0 00-.397-.348l-.043-.037a15.03 15.03 0 00-1.05-.787l-.078-.052c-.15-.1-.303-.205-.461-.302l-.078-.05-.376-.228c-.128-.073-.258-.15-.39-.223-.133-.076-.267-.15-.404-.223l-.106-.055a26.727 26.727 0 00-2.094-.983 36.276 36.276 0 00-2.763-1.016c-.088-.027-.176-.058-.264-.085-.537-.168-1.09-.33-1.657-.483a51.34 51.34 0 00-4.97-1.071 65.208 65.208 0 00-4.548-.583 73.712 73.712 0 00-3.445-.226 72.418 72.418 0 00-2.814-.058h-.115c-.613 0-1.223.006-1.826.025-.408.006-.814.021-1.218.04l-.195.008c-.242.01-.483.022-.724.037a42.06 42.06 0 00-.881.055h-.003c-1.64.11-3.234.28-4.766.5-1.187.171-2.338.37-3.446.602-.98.201-1.926.427-2.833.671a43.03 43.03 0 00-1.657.483c-.089.027-.175.058-.263.085a34.18 34.18 0 00-3.228 1.215c-.612.268-1.193.55-1.738.84-.136.072-.27.146-.403.222-.132.073-.262.15-.39.223-.127.076-.252.152-.376.229a12.62 12.62 0 00-.393.253h-.002a7.857 7.857 0 00-.222.15c-.047.03-.093.064-.14.097a13.37 13.37 0 00-.91.69l-.06.052a8.15 8.15 0 00-.38.333c-.83.754-1.458 1.556-1.859 2.387a5.233 5.233 0 00-.412 1.2c-.028.133-.05.268-.066.405a3.935 3.935 0 00-.033.51l-.001.043a4.493 4.493 0 00.057.729v.003c.016.098.035.192.055.287v.003c.018.08.038.159.06.238.432 1.596 1.67 3.126 3.55 4.496 1.773 1.291 4.118 2.448 6.89 3.391.784.269 1.601.52 2.45.751.744.205 1.513.394 2.304.568 1.108.244 2.259.46 3.446.644l.026.003c.587.088 1.184.17 1.789.244a58.272 58.272 0 003.835.345 65.4 65.4 0 0010.337-.204 60.556 60.556 0 004.548-.635 49.998 49.998 0 003.274-.696c.984-.245 1.932-.51 2.836-.8.263-.086.524-.171.78-.26a44.744 44.744 0 001.412-.512 28.595 28.595 0 003.446-1.594c2.85-1.571 4.788-3.427 5.476-5.402.119-.339.2-.684.242-1.029.012-.091.02-.183.028-.274.003-.061.006-.12.006-.177.002-.04.002-.08.002-.12l-.002-.146"/><path fill="#EB770A" d="M214.174 381.977v1.124c1.37.039 2.252.234 2.922.427l-.578 1.459c-.518-.158-1.461-.447-2.891-.447-1.309 0-1.735.366-1.735.716 0 .428.7.7 2.404 1.109 2.404.542 3.378 1.243 3.378 2.386 0 1.147-1.278 2.117-3.59 2.39v1.3h-1.979v-1.223c-1.339-.039-2.647-.273-3.408-.543l.609-1.497c.852.293 2.039.566 3.347.566 1.126 0 1.917-.293 1.917-.797 0-.485-.639-.797-2.13-1.127-2.16-.466-3.621-1.105-3.621-2.348 0-1.128 1.248-2.002 3.408-2.275v-1.22h1.947"/><path fill="#FDD67C" d="M214.174 381.977v1.127c1.37.038 2.252.234 2.921.427l-.577 1.455c-.518-.155-1.461-.447-2.891-.447-1.309 0-1.735.37-1.735.72 0 .427.7.7 2.404 1.107 2.404.543 3.378 1.24 3.378 2.386 0 1.147-1.278 2.116-3.59 2.39v1.3h-1.979v-1.224c-1.339-.038-2.647-.273-3.408-.542l.609-1.497c.852.293 2.038.562 3.347.562 1.126 0 1.917-.289 1.917-.793 0-.488-.64-.796-2.13-1.127-2.16-.466-3.621-1.108-3.621-2.35 0-1.124 1.247-1.998 3.408-2.27v-1.224h1.947"/><path fill="#FAA300" d="M239.985 385.38c0 .307-.03.614-.09.914l-.012.062-.01.046c-.067.31-.166.614-.293.917-.398.942-1.083 1.852-2.017 2.704-.9.824-2.031 1.598-3.362 2.304-1.004.555-2.182 1.072-3.463 1.524a9.65 9.65 0 01-1.42.518c-1.546.514-3.226.95-5.027 1.328-.618.127-1.252.248-1.9.366-.89.148-1.808.27-2.75.375-.597.065-1.204.123-1.82.176a61.253 61.253 0 01-5.053.3c-.448.007-.9.013-1.355.013a53.292 53.292 0 01-3.983-.14 48.784 48.784 0 01-5.68-.55 34.936 34.936 0 01-3.464-.59c-1.656-.37-3.213-.774-4.67-1.244-.037-.013-.072-.022-.108-.034-1.929-.62-3.645-1.335-5.103-2.138l-.024-.012a17.94 17.94 0 01-1.8-1.134c-.48-.34-.917-.69-1.31-1.05-.942-.854-1.63-1.765-2.027-2.713a4.94 4.94 0 01-.244-.718 3.652 3.652 0 01-.06-.245c-.066-.322-.1-.65-.1-.979 0-.133-.01-.344-.028-.616-.127-1.967-.611-7.043.028-7.954l.034-.046c.421-.573.978-1.053 1.65-1.444.037-.024.075-.046.112-.068a9.225 9.225 0 011.945-.796c1.87-.588 4.225-.827 6.927-.898 1.488-.068 3.081-.034 4.778.034 1.11 0 2.286.037 3.464.071.231.003.464.01.7.013.066.003.132.003.2.006 1.555.037 3.155.09 4.78.118.714.018 1.428.037 2.148.05.094.002.188.005.282.005.327.006.654.01.983.013h.57c.99 0 1.972-.013 2.944-.044.468-.012.934-.028 1.396-.05a94.608 94.608 0 002.067-.111c1.593-.071 3.116-.173 4.572-.241.373-.031.742-.062 1.107-.09a97.589 97.589 0 015.82-.291c.485-.034.933-.034 1.419-.034 1.123 0 2.192.055 3.152.167.105.012.208.028.311.04.828.1 1.588.251 2.273.462.333.102.649.22.944.35.378.167.726.359 1.043.582a5.002 5.002 0 011.254 1.23l.027.037.04.071c.189.378.279 1.353.314 2.543.076 2.59-.11 6.197-.11 6.891"/><path fill="#FDB905" d="M201.965 396.18a25.62 25.62 0 01-2.336-.428c-.22-.049-.439-.101-.656-.156v-7.64c.962.247 1.961.465 2.992.646v7.577"/><path fill="#FDBB21" d="M234.13 373.215v19.192a18.868 18.868 0 01-2.992 1.53v-20.93c1.077 0 2.094.068 2.992.208"/><path fill="#FEE07F" d="M211.964 397.18h-.095.095m.092 0h.069-.069m-.2 0c-1.324-.01-2.615-.12-3.907-.45.25.07.5.12.75.16 1.042.21 2.088.28 3.156.29m.284 0c.4-.01.797-.02 1.191-.04.153-.01.305-.02.456-.04-.544.05-1.093.07-1.647.08m4.11-.43c.015 0 .03-.01.045-.01-.015 0-.03.01-.045.01m.08-.02a21.387 21.387 0 00-.001 0"/><path fill="#FDB905" d="M211.964 396.18h-.109a57.676 57.676 0 01-3.905-.132V388.9c.398.026.798.044 1.2.058.044.003.087.003.13.006a69.13 69.13 0 005.231-.003 68.35 68.35 0 003.271-.198c.08-.006.16-.012.24-.024.134-.008.267-.02.4-.035v7.184c-.687.064-1.385.116-2.094.16-.011.003-.022.003-.034.003l-.045.003c-.791.047-1.595.082-2.41.102h-.053a22.73 22.73 0 01-.456.012c-.394.006-.792.008-1.19.011h-.176"/><path fill="#F38911" d="M188.518 392.457l-.004-.003-.005-.002.003.001.006.004"/><path fill="#F39D40" d="M193.737 393.937c-1.979-.648-3.74-1.4-5.236-2.243l.014.01c1.493.837 3.25 1.585 5.222 2.233"/><path fill="#F38911" d="M188.5 391.93a19.154 19.154 0 01.001 0"/><path fill="#F07700" d="M193.737 393.937c-1.866-.617-3.527-1.33-4.94-2.127l-.019-.012-.01-.003c-.124-.072-.247-.143-.367-.217a16.768 16.768 0 01-1.355-.896l-.001-.003-.04-.028v-7.927c.079.06.159.118.24.18.355.257.733.512 1.13.756 1.51.937 3.316 1.786 5.362 2.511v7.766"/><path fill="#F39D40" d="M222.91 396.18c.63-.156 1.246-.316 1.846-.484a45.308 45.308 0 01-1.846.483m6.677-2.218l.055-.024-.055.024"/><path fill="#F07700" d="M222.91 396.18v-7.895c2.439-.466 4.701-1.084 6.732-1.823v7.983l-.055.02c-.012.002-.023.009-.035.012-.004 0-.008.003-.013.003a40.253 40.253 0 01-3.777 1.094c-.006 0-.01.003-.016.003l-.036.01c-.018.003-.036.006-.055.012h-.008c-.293.07-.59.14-.89.206-.601.13-1.218.254-1.847.374"/><path fill="#FDBB21" d="M240.114 377.12c0 6.396-12.726 11.584-28.424 11.584-15.699 0-28.425-5.188-28.425-11.585 0-6.4 12.726-11.587 28.425-11.587 15.698 0 28.424 5.188 28.424 11.587"/><path fill="#BD4A08" d="M211.69 368.078c14.918 0 27.13 4.474 28.307 10.161.062-.297.117-.594.117-.898 0-6.109-12.726-11.062-28.424-11.062-15.699 0-28.425 4.953-28.425 11.062 0 .304.055.6.117.898 1.178-5.687 13.388-10.161 28.308-10.161"/><path fill="#FFF" d="M239.753 375.25c-.449 5.942-12.968 10.708-28.382 10.708-14.23 0-25.981-4.063-28.064-9.36-.008.11-.042.217-.042.327 0 6.091 12.726 11.032 28.425 11.032 15.698 0 28.424-4.94 28.424-11.032 0-.573-.147-1.127-.361-1.676"/><path fill="#EB770A" d="M185.113 374.722c1.58-3.156 6.9-5.802 14.128-7.237a55.43 55.43 0 013.732-.607c.536-.07 1.078-.135 1.629-.19.09-.012.181-.021.274-.03.78-.076 1.575-.14 2.383-.19.487-.033.98-.06 1.477-.079.373-.015.749-.03 1.128-.036a67.237 67.237 0 014.755.036c1.172.046 2.323.122 3.445.226 1.976.183 3.87.449 5.65.788 2.369.451 4.541 1.028 6.454 1.715.68.244 1.327.5 1.939.766.695.308 1.344.629 1.943.965l.148.082c.208.119.41.241.604.363 1.16.727 2.093 1.511 2.759 2.341.285.354.52.718.705 1.087h.002c.14.28.25.568.33.855.1.363.152.732.152 1.104 0 .373-.052.742-.152 1.105a4.139 4.139 0 01-.208.586c-.4.934-1.13 1.829-2.137 2.659-.238.198-.493.39-.761.58a15.083 15.083 0 01-1.132.726c-.17.101-.344.199-.525.296-.875.477-1.852.922-2.92 1.337-.456.174-.927.345-1.412.507-2.048.687-4.37 1.254-6.891 1.682a62.814 62.814 0 01-6.135.717 71.716 71.716 0 01-5.605.156c-.177-.003-.354-.006-.53-.006a73.87 73.87 0 01-2.615-.101c-1.96-.11-3.851-.3-5.65-.562a51.453 51.453 0 01-3.446-.61 42.833 42.833 0 01-4.753-1.276 29.21 29.21 0 01-3.168-1.255 20.074 20.074 0 01-2.198-1.193 13.576 13.576 0 01-1.525-1.114 8.95 8.95 0 01-1.033-1.026c-.86-1.01-1.325-2.087-1.325-3.208 0-.625.145-1.242.423-1.837l.06-.122m55 2.02a4.735 4.735 0 00-.2-1.214c-.238-.8-.683-1.572-1.314-2.308-.628-.738-1.441-1.44-2.416-2.1a24.264 24.264 0 00-.528-.342c-.5-.31-1.035-.613-1.604-.903l-.237-.12a28.285 28.285 0 00-1.65-.744c-2.407-.998-5.268-1.822-8.45-2.414a60.81 60.81 0 00-5.649-.779c-1.125-.1-2.274-.18-3.445-.225a70.624 70.624 0 00-8.803.183c-.712.058-1.413.131-2.103.21-.065.01-.131.016-.196.025a58.874 58.874 0 00-4.33.677c-9.039 1.77-15.378 5.403-15.888 9.646a3.99 3.99 0 00-.033.512l-.001.043a4.489 4.489 0 00.057.726v.004c.016.097.035.192.055.286v.003c.304 1.39 1.22 2.73 2.639 3.962.24.208.495.415.765.62.067.052.137.1.206.153l.246.177c.363.253.75.503 1.157.744 1.544.922 3.393 1.758 5.488 2.473 1.47.5 3.062.943 4.753 1.318 1.108.244 2.259.461 3.446.641 1.805.278 3.696.48 5.65.592.394.028.788.046 1.186.061l.128.006a63.349 63.349 0 005.163-.003 65.01 65.01 0 003.228-.207c.079-.006.158-.012.238-.025a58.578 58.578 0 004.942-.668c2.496-.449 4.812-1.044 6.89-1.755.485-.165.956-.336 1.412-.516a28.597 28.597 0 003.446-1.59 21.165 21.165 0 001.761-1.09 15.655 15.655 0 001.225-.946c1.227-1.056 2.08-2.191 2.49-3.37.047-.13.087-.265.121-.396.055-.211.097-.422.121-.632a3.488 3.488 0 00.034-.452c.002-.04.002-.08.002-.116l-.002-.146m-23.464 10.118a3.194 3.194 0 01-.171.015 71.716 71.716 0 01-5.605.156c-.177-.003-.354-.006-.53-.006a73.87 73.87 0 01-2.615-.101c-1.96-.11-3.851-.3-5.65-.562a51.453 51.453 0 01-3.446-.61 42.833 42.833 0 01-4.753-1.276v1.26c.265.086.533.168.805.25.181.056.366.108.552.163.371.103.75.207 1.135.305l.58.146a56.553 56.553 0 002.417.522c.621.12 1.255.23 1.9.333.268.04.537.082.81.122.164.024.33.046.497.067a59.988 59.988 0 003.387.366c.463.04.93.074 1.401.101.12.006.243.015.365.022a70.492 70.492 0 006.516.064h.013a71.77 71.77 0 003.163-.186h.023c.053-.007.108-.01.161-.016a1.463 1.463 0 00-.448-.677 2.111 2.111 0 00-.507-.458m21.62-12.14c.14.282.25.569.33.856v-.483a8.067 8.067 0 00-.33-.372"/><path fill="#EB770A" d="M214.174 372.26v1.127c1.37.038 2.252.23 2.922.427l-.578 1.455c-.518-.154-1.461-.447-2.891-.447-1.309 0-1.735.37-1.735.72 0 .427.7.697 2.404 1.105 2.404.543 3.378 1.243 3.378 2.39 0 1.143-1.278 2.117-3.59 2.386v1.301h-1.979v-1.22c-1.339-.042-2.647-.273-3.408-.546l.609-1.494c.852.289 2.039.562 3.347.562 1.126 0 1.917-.292 1.917-.797 0-.485-.639-.793-2.13-1.124-2.16-.466-3.621-1.108-3.621-2.351 0-1.128 1.248-1.998 3.408-2.271v-1.224h1.947"/><path fill="#FDD67C" d="M214.174 372.26v1.127c1.37.038 2.252.23 2.921.427l-.577 1.455c-.518-.154-1.461-.447-2.891-.447-1.309 0-1.735.37-1.735.72 0 .427.7.697 2.404 1.105 2.404.543 3.378 1.243 3.378 2.39 0 1.143-1.278 2.113-3.59 2.386v1.301h-1.979V381.5c-1.339-.038-2.647-.27-3.408-.542l.609-1.494a10.63 10.63 0 003.347.562c1.126 0 1.917-.292 1.917-.797 0-.485-.64-.796-2.13-1.124-2.16-.469-3.621-1.108-3.621-2.351 0-1.128 1.247-2.001 3.408-2.271v-1.224h1.947"/><path fill="#FAA300" d="M256.441 367.443c0 2.593-2.147 5.012-5.783 6.947-1.005.555-2.182 1.072-3.464 1.521-.45.208-.935.381-1.42.52-2.078.691-4.398 1.246-6.927 1.692-1.454.244-2.978.415-4.571.554-2.043.208-4.19.31-6.407.31-1.351 0-2.667-.034-3.983-.137a48.294 48.294 0 01-5.68-.554 34.031 34.031 0 01-3.463-.585c-1.697-.381-3.29-.796-4.78-1.28-2.805-.9-5.16-2.007-6.926-3.286-2.39-1.694-3.74-3.63-3.74-5.702 0-1.106-.728-7.536 0-8.573.796-1.106 2.077-1.868 3.74-2.35 1.87-.59 4.225-.831 6.926-.9 1.49-.067 3.083-.033 4.78.035 1.108 0 2.286.034 3.463.068 1.836.034 3.74.105 5.68.14 1.316.034 2.632.068 3.983.068 2.182 0 4.33-.069 6.407-.208 1.593-.068 3.117-.17 4.571-.242 2.494-.207 4.814-.343 6.927-.38.485-.035.935-.035 1.42-.035 1.247 0 2.425.072 3.464.208 2.562.313 4.467 1.106 5.54 2.664.659.966.243 8.468.243 9.505"/><path fill="#FDB905" d="M217.674 378.24c-.18-.022-.356-.05-.532-.077a27.842 27.842 0 01-2.46-.504v-21.845c.957 0 1.974.034 2.992.067v22.358"/><path fill="#FDBB21" d="M249.838 356.022v19.195a18.495 18.495 0 01-2.992 1.527v-20.93c1.077 0 2.095.071 2.992.208"/><path fill="#FDB905" d="M226.924 378.987c-1.361 0-2.688-.034-4.014-.136v-22.898c1.326.034 2.653.068 4.014.068 2.2 0 4.364-.068 6.458-.207v22.864c-2.06.207-4.224.309-6.458.309"/><path fill="#F07700" d="M209.445 376.744c-2.726-.906-5.015-2.018-6.732-3.305v-16.722c1.818-.592 4.107-.835 6.732-.903v20.93m28.425 1.496v-22.055c2.424-.202 4.679-.335 6.732-.371v20.778c-.691.23-1.41.443-2.155.643-1.432.386-2.96.718-4.577 1.004"/><path fill="#FDC135" d="M255.823 359.924c0 6.4-12.727 11.588-28.425 11.588-15.699 0-28.425-5.189-28.425-11.588 0-6.397 12.726-11.585 28.425-11.585 15.698 0 28.425 5.188 28.425 11.585"/><path fill="#BD4A08" d="M227.398 350.137c14.919 0 27.13 4.475 28.308 10.162.062-.297.117-.598.117-.9 0-6.107-12.727-11.06-28.425-11.06-15.699 0-28.425 4.953-28.425 11.06 0 .302.055.603.117.9 1.178-5.687 13.389-10.162 28.308-10.162"/><path fill="#FDD67C" d="M255.461 358.804c-.448 5.94-12.967 10.706-28.382 10.706-14.229 0-25.981-4.063-28.064-9.36-.008.11-.042.217-.042.327 0 6.094 12.726 11.035 28.425 11.035 15.698 0 28.425-4.941 28.425-11.035 0-.57-.147-1.124-.362-1.673"/><path fill="#EB770A" d="M227.398 349.136c12.173 0 22.47 3.073 25.869 7.307.285.354.521.717.707 1.086a4.35 4.35 0 01.484 1.96c0 .543-.11 1.077-.32 1.596-.599 1.48-2.015 2.854-4.069 4.057-1.003.589-2.159 1.135-3.445 1.633a36.14 36.14 0 01-1.414.506c-2.048.687-4.368 1.258-6.89 1.682a59.629 59.629 0 01-4.548.59c-.08.008-.159.014-.238.02a73.062 73.062 0 01-3.995.239c-.705.018-1.42.03-2.141.03a70.36 70.36 0 01-3.963-.11 64.367 64.367 0 01-5.65-.561 57.225 57.225 0 01-3.445-.61 42.853 42.853 0 01-4.928-1.338 30.264 30.264 0 01-2.431-.94c-.506-.22-.989-.452-1.444-.69-1.11-.583-2.065-1.208-2.843-1.87a8.927 8.927 0 01-1.031-1.026c-.862-1.01-1.327-2.088-1.327-3.208 0-.629.145-1.242.423-1.838l.06-.119c2.39-4.783 13.383-8.396 26.579-8.396zm28.421 10.41a4.722 4.722 0 00-.201-1.217c-1.23-4.108-7.956-7.542-17.156-9.099a58.709 58.709 0 00-3.283-.461c-.899-.1-1.816-.189-2.75-.253a71.07 71.07 0 00-5.031-.177c-1.717 0-3.398.06-5.032.177a65.248 65.248 0 00-3.421.333c-.89.11-1.762.238-2.611.381-9.799 1.658-16.79 5.445-17.326 9.908-.022.17-.033.342-.033.513l-.002.042c0 .04 0 .08.003.12a3.974 3.974 0 00.054.61v.003c.017.097.035.192.055.287v.003c.367 1.685 1.635 3.293 3.609 4.734a20.429 20.429 0 001.629 1.056c.533.308 1.1.607 1.7.894a31.964 31.964 0 003.562 1.44c1.47.505 3.064.947 4.755 1.323 1.108.244 2.257.457 3.445.64 1.805.278 3.695.48 5.65.593a65.127 65.127 0 0011.089-.285 49.5 49.5 0 001.38-.173c.822-.11 1.627-.238 2.415-.379 2.497-.448 4.813-1.044 6.891-1.758.484-.162.957-.336 1.414-.513a28.497 28.497 0 003.445-1.593c2.85-1.572 4.787-3.428 5.475-5.402a4.972 4.972 0 00.27-1.304c.003-.06.005-.119.005-.177.004-.04.004-.079.004-.119 0-.046-.002-.097-.004-.146zm-38.034 9.625v1.211a64.44 64.44 0 005.65.556v-1.206a64.367 64.367 0 01-5.65-.561z"/><path fill="#EB770A" d="M229.883 355.066v1.125c1.369.038 2.251.234 2.92.427l-.577 1.458c-.517-.157-1.46-.446-2.891-.446-1.308 0-1.734.366-1.734.716 0 .427.7.7 2.404 1.108 2.404.543 3.377 1.243 3.377 2.387 0 1.147-1.278 2.117-3.59 2.39v1.3h-1.978v-1.223c-1.34-.039-2.648-.27-3.408-.543l.608-1.497c.852.292 2.039.565 3.347.565 1.126 0 1.917-.292 1.917-.796 0-.485-.639-.797-2.13-1.128-2.16-.465-3.62-1.105-3.62-2.348 0-1.127 1.247-2 3.407-2.27v-1.225h1.948"/><path fill="#FDD67C" d="M229.135 355.066v1.125c1.37.038 2.251.234 2.92.427l-.577 1.458c-.518-.157-1.46-.446-2.89-.446-1.31 0-1.735.366-1.735.716 0 .427.7.7 2.404 1.108 2.403.543 3.377 1.243 3.377 2.387 0 1.147-1.278 2.117-3.59 2.39v1.3h-1.978v-1.223c-1.339-.039-2.648-.273-3.408-.543l.608-1.497a10.55 10.55 0 003.348.562c1.125 0 1.916-.289 1.916-.793 0-.485-.639-.797-2.13-1.128-2.16-.465-3.62-1.105-3.62-2.348 0-1.127 1.247-2 3.407-2.274v-1.22h1.948"/><path fill="#FDBB21" d="M293.223 413.743c0 15.07-12.227 27.287-27.305 27.287-8.025 0-15.24-3.46-20.232-8.966-.44-.485-.855-.976-1.26-1.489a27.098 27.098 0 01-2.071-3.035 27.34 27.34 0 01-1.974-4.135 27.022 27.022 0 01-1.67-7.422 25.843 25.843 0 01-.093-2.24c0-15.068 12.221-27.281 27.3-27.281a27.266 27.266 0 0114.977 4.463c1.28.844 2.484 1.79 3.605 2.827a27.83 27.83 0 013.708 4.226 27.153 27.153 0 015.015 15.765"/><path fill="#EB821F" d="M287.987 413.746c0 12.178-9.877 22.051-22.065 22.051s-22.068-9.873-22.068-22.051c0-12.179 9.88-22.052 22.068-22.052s22.065 9.873 22.065 22.052"/><path fill="#BD4A08" d="M271.903 416.793c-.422-.935-1.217-1.672-2.466-2.296a12.313 12.313 0 00-1.36-.576l-.245-.095c-.224-.09-.433-.171-.628-.257-.58-.244-1.031-.469-1.367-.693-.536-.358-.778-.716-.778-1.16l.001-.04a1.23 1.23 0 01.187-.636c.15-.242.4-.447.78-.587.304-.107.69-.174 1.177-.174h.02a7.564 7.564 0 012.598.45c.426.152.764.31 1.022.424l.73-2.9-.053-.026c-.105-.05-.217-.101-.332-.152a7.945 7.945 0 00-1.373-.43c-.09-.02-.186-.038-.282-.057a10.702 10.702 0 00-1.609-.18v-2.258h-2.464v2.435c-.951.19-1.76.535-2.41 1-.863.618-1.443 1.447-1.697 2.416a4.261 4.261 0 00-.132.808 4.353 4.353 0 00.09 1.307c.013.057.025.114.042.171.072.266.172.513.296.748.27.513.657.95 1.142 1.333.084.066.17.13.26.193.462.33.999.61 1.596.867.344.15.71.285 1.09.418.167.057.326.114.476.171.995.38 1.624.767 1.94 1.232.172.25.252.523.252.83 0 1.026-.982 1.59-2.417 1.59-.091 0-.182 0-.27-.004a8.506 8.506 0 01-2.52-.497 9.19 9.19 0 01-1.386-.627l-.62 2.47-.134.532c.536.316 1.286.598 2.14.804.591.136 1.234.238 1.89.282.082.006.165.013.247.016v2.435h2.465v-2.616c2.894-.513 4.478-2.463 4.478-4.743 0-.725-.118-1.365-.376-1.928"/><path fill="#FDBB21" d="M271.4 417.527c-.27-1.165-.99-2.061-2.276-2.799a9.942 9.942 0 00-1.263-.602 13.41 13.41 0 00-.531-.205 45.025 45.025 0 01-.628-.247 15.43 15.43 0 01-.936-.415c-.586-.288-.981-.558-1.208-.849a1.15 1.15 0 01-.17-.288 1.036 1.036 0 01-.076-.323l-.003-.082c0-.72.53-1.438 2.164-1.438h.164l.065.003a7.522 7.522 0 012.618.539c.314.123.568.24.776.332l.454-1.808.136-.535.14-.557a7.29 7.29 0 00-1.596-.57 10.607 10.607 0 00-1.807-.263c-.081-.003-.161-.01-.245-.013v-2.257h-2.465v2.438c-.834.164-1.559.45-2.163.832-.776.488-1.35 1.134-1.697 1.894a4.304 4.304 0 00-.392 1.84c0 .196.011.386.035.57a3.744 3.744 0 00.808 1.922c.332.411.752.766 1.246 1.083.037.025.074.047.112.07.58.357 1.258.661 2.01.937.104.038.21.072.318.11.635.219 1.148.434 1.547.665.731.418 1.084.877 1.116 1.473.003.031.003.063.003.095 0 1.026-.982 1.59-2.416 1.59-.083 0-.167 0-.249-.004a8.325 8.325 0 01-2.294-.415 9.01 9.01 0 01-1.527-.652l-.105-.057-.754 3.002c.117.07.245.136.38.202.548.263 1.242.491 2.006.656.599.13 1.241.215 1.89.244v2.435h2.465v-2.616c2.892-.513 4.479-2.46 4.479-4.743 0-.428-.04-.823-.13-1.194"/><path fill="#FDC94D" d="M240.306 423.09l-.062-.167a27.06 27.06 0 01-1.617-7.178l-.009-.11 5.161-4.11c-.05.614-.077 1.237-.077 1.862 0 2.18.315 4.286.903 6.277l-4.299 3.426m36.646-29.197a22.37 22.37 0 00-7.82-2.568l5.166-4.116a27.652 27.652 0 016.957 3.256l-4.303 3.428"/><path fill="#EF9B4C" d="M244.748 420.1a22.449 22.449 0 01-.817-8.159l25.095-20.247a21.937 21.937 0 017.741 2.575l-32.019 25.83"/><path fill="#FDC94D" d="M243.449 429.07a28.15 28.15 0 01-1.09-1.765l4.187-3.468c.324.62.674 1.218 1.048 1.801l-4.145 3.432"/><path fill="#EF9B4C" d="M247.12 425.332a20.906 20.906 0 01-1.022-1.64l14.31-11.067c.05.384.157.736.314 1.058.013.054.025.107.042.161.072.25.17.483.295.704l-13.94 10.784"/><path fill="#CA6E39" d="M261.572 414.867c-.19-.19-.34-.392-.45-.608a1.437 1.437 0 01-.063-.14 3.7 3.7 0 00.748.645l-.235.103"/><path fill="#EF9B4C" d="M264.799 411.877a1.388 1.388 0 01.746-.747h.002l-.748.747"/><path fill="#CA6E39" d="M264.874 411.877a1.624 1.624 0 01-.073-.393l-.002-.1c0-.875.51-1.75 2.085-1.75h.158l-1.07 1.106h-.002a1.522 1.522 0 00-.805.837l-.291.3"/><path fill="#FDC94D" d="M281.882 397.674c-.438-.46-.896-.9-1.375-1.32l3.903-3.165c.458.431.902.883 1.333 1.35l-3.861 3.135"/><path fill="#EF9B4C" d="M269.982 407.392a10.86 10.86 0 00-.427-.114 10.344 10.344 0 00-1.764-.257v-.353l12.803-10.489c.49.434.96.889 1.41 1.365l-12.022 9.848"/><path fill="#CA6E39" d="M267.843 407.392c-.026-.007-.052-.02-.079-.026v-.308l.079-.413v.747"/><path fill="#FDC94D" d="M261.101 414.12c-.173-.2-.32-.413-.441-.64-.015-.027-.03-.053-.042-.082a3.273 3.273 0 01-.307-1.024l6.54-4.982v.136l.239.011c.68.04 1.26.127 1.768.24.15.034.292.069.429.106l-2.966 2.26h-.16c-1.6 0-2.119.654-2.119 1.309l.003.075c.008.1.032.199.073.294l-3.017 2.297m-15.245 17.94l-.024-.027a25.885 25.885 0 01-1.23-1.396l3.976-3.062c.399.49.82.962 1.26 1.417l-3.982 3.068"/><path fill="#EF9B4C" d="M249.661 429.07a23.469 23.469 0 01-1.319-1.485l14.545-11.223c.086.065.175.126.267.188.476.32 1.029.593 1.644.842l-3.064 2.365h-.001l-.108-.056-.047.175-11.917 9.194"/><path fill="#CA6E39" d="M264.305 417.11h-.001a7.864 7.864 0 01-1.505-.95 7.273 7.273 0 01-.244-.212l.35-.333c.547.392 1.185.725 1.893 1.026l-.493.469"/><path fill="#FDC94D" d="M283.942 400.664a21.71 21.71 0 00-1.19-1.467l4.036-3.018c.415.474.815.96 1.2 1.462l-4.046 3.023"/><path fill="#EF9B4C" d="M267.657 414.12c-.172-.07-.35-.139-.535-.204a47.336 47.336 0 01-.632-.245c-.358-.145-.67-.28-.943-.411l2.563-2.066c.382.079.72.18 1.017.286.428.15.769.307 1.028.42l.735-2.875-.053-.025 12.21-9.83c.422.511.822 1.045 1.2 1.594l-16.59 13.356"/><path fill="#CA6E39" d="M270.19 411.13c-.21-.088-.485-.21-.83-.326a6.188 6.188 0 00-.821-.22l.497-.384c.116.036.222.073.323.112.255.094.462.184.631.255l.369-1.386.381-.294.043.02-.593 2.223"/><path fill="#FDC94D" d="M261.059 420.1l.046-.182.107.057-.153.125m3.726-3.012c-.767-.278-1.458-.584-2.05-.945l3.166-2.561c.276.134.594.271.956.418.2.08.413.163.64.25.187.066.368.136.542.207l-3.254 2.631m5.535-5.63c-.212-.093-.472-.21-.792-.335-.127-.051-.26-.1-.405-.147l1.66-1.341-.463 1.823"/></g></svg>