<svg xmlns="http://www.w3.org/2000/svg" width="214" height="166"><g fill="none" fill-rule="evenodd"><path fill="#EAEAEA" d="M214 107.412C214 139.77 187.57 166 154.966 166c-32.605 0-59.035-26.23-59.035-58.588 0-32.358 26.43-58.588 59.035-58.588 32.604 0 59.034 26.23 59.034 58.588"/><path fill="#D2D2D2" d="M204.16 107.412c0 26.965-22.024 48.823-49.194 48.823-27.171 0-49.196-21.858-49.196-48.823s22.025-48.824 49.196-48.824c27.17 0 49.195 21.859 49.195 48.824"/><path fill="#BCBCBC" d="M108.23 109.853c0-26.965 22.025-48.824 49.195-48.824 12.958 0 24.711 5.012 33.497 13.139-8.98-9.565-21.746-15.58-35.956-15.58-27.171 0-49.196 21.859-49.196 48.824 0 14.105 6.061 26.772 15.698 35.685-8.19-8.72-13.238-20.384-13.238-33.244"/><path fill="#BCBCBC" d="M153.68 144.03v-8.103c-5.307-.17-10.61-1.674-13.64-3.676l2.272-7.858c3.284 1.926 7.997 3.674 13.136 3.674 5.303 0 8.921-2.586 8.921-6.599 0-3.757-2.944-6.186-9.175-8.437-8.84-3.178-14.566-7.186-14.566-14.957 0-7.191 5.05-12.701 13.555-14.205v-8.193h6.902v7.77c5.309.172 8.927 1.424 11.623 2.764l-2.273 7.68c-2.022-.918-5.726-2.837-11.453-2.837-5.893 0-7.999 3.008-7.999 5.852 0 3.422 3.03 5.349 10.189 8.185 9.43 3.51 13.639 8.022 13.639 15.458 0 7.104-4.966 13.37-14.227 14.874v8.607h-6.905"/><path fill="#FFF" d="M151.22 141.588v-8.102c-5.306-.17-10.61-1.675-13.64-3.676l2.273-7.859c3.283 1.927 7.996 3.674 13.135 3.674 5.303 0 8.921-2.585 8.921-6.598 0-3.757-2.944-6.186-9.174-8.437-8.84-3.178-14.567-7.187-14.567-14.957 0-7.192 5.05-12.701 13.556-14.205v-8.193h6.902v7.77c5.308.171 8.926 1.424 11.622 2.764l-2.273 7.68c-2.024-.918-5.726-2.837-11.452-2.837-5.894 0-8 3.008-8 5.852 0 3.422 3.03 5.348 10.189 8.185 9.43 3.51 13.64 8.022 13.64 15.458 0 7.103-4.967 13.37-14.228 14.874v8.607h-6.905"/><path fill="#000" fill-opacity=".1" d="M137.747 68.353c0 26.56-15.273 49.563-37.568 60.878a57.82 57.82 0 002.785 5.927c23.451-10.902 39.703-34.523 39.703-61.923a67.698 67.698 0 00-3.734-22.207c-1.07.3-2.128.627-3.176.984a67.923 67.923 0 011.99 16.34"/><path fill="#EAEAEA" d="M137.747 68.353c0 37.75-30.836 68.353-68.873 68.353C30.836 136.706 0 106.103 0 68.353 0 30.603 30.836 0 68.874 0c38.037 0 68.873 30.603 68.873 68.353"/><path fill="#D2D2D2" d="M126.267 68.353c0 31.46-25.694 56.96-57.393 56.96-31.7 0-57.394-25.5-57.394-56.96s25.695-56.96 57.394-56.96c31.699 0 57.393 25.5 57.393 56.96"/><path fill="#BCBCBC" d="M14.348 71.202c0-31.46 25.697-56.963 57.396-56.963 15.118 0 28.829 5.847 39.08 15.329-10.478-11.157-25.372-18.175-41.95-18.175-31.7 0-57.394 25.5-57.394 56.96 0 16.453 7.072 31.235 18.313 41.634-9.554-10.175-15.445-23.782-15.445-38.785"/><path fill="#BCBCBC" d="M67.373 111.074v-9.455c-6.191-.198-12.377-1.953-15.915-4.287l2.652-9.166c3.832 2.245 9.33 4.286 15.327 4.286 6.186 0 10.41-3.017 10.41-7.702 0-4.382-3.437-7.213-10.708-9.843-10.314-3.705-16.992-8.382-16.992-17.447 0-8.39 5.891-14.82 15.814-16.575v-9.557h8.053v9.066c6.192.198 10.415 1.658 13.559 3.223l-2.652 8.961c-2.359-1.072-6.678-3.31-13.362-3.31-6.875 0-9.33 3.51-9.33 6.828 0 3.991 3.535 6.24 11.886 9.55 11.003 4.094 15.912 9.357 15.912 18.033 0 8.287-5.795 15.599-16.6 17.354v10.04h-8.054"/><path fill="#FFF" d="M64.503 108.225v-9.453c-6.192-.2-12.378-1.953-15.913-4.286l2.652-9.17c3.83 2.247 9.33 4.287 15.324 4.287 6.187 0 10.41-3.017 10.41-7.7 0-4.381-3.436-7.215-10.705-9.842-10.314-3.708-16.994-8.383-16.994-17.45 0-8.39 5.89-14.82 15.813-16.573v-9.557h8.054v9.064c6.191.198 10.414 1.66 13.558 3.223l-2.652 8.964c-2.359-1.072-6.678-3.31-13.361-3.31-6.875 0-9.33 3.507-9.33 6.825 0 3.994 3.535 6.24 11.886 9.55 11.002 4.096 15.912 9.36 15.912 18.035 0 8.288-5.795 15.597-16.601 17.352v10.04h-8.053"/></g></svg>