<svg xmlns="http://www.w3.org/2000/svg" width="138" height="138"><g fill="none" fill-rule="evenodd"><path fill="#FFB96C" d="M138 69c0 38.108-30.892 69-69 69-38.108 0-69-30.892-69-69C0 30.892 30.892 0 69 0c38.108 0 69 30.892 69 69"/><path fill="#E8A151" d="M126.5 69c0 31.757-25.743 57.5-57.5 57.5S11.5 100.756 11.5 69 37.244 11.5 69 11.5s57.5 25.743 57.5 57.5"/><path fill="#000" fill-opacity=".1" d="M14.374 71.876c0-31.757 25.745-57.502 57.502-57.502 15.145 0 28.881 5.902 39.152 15.473C100.531 18.586 85.61 11.501 69 11.501 37.243 11.5 11.5 37.243 11.5 69c0 16.61 7.086 31.53 18.347 42.028-9.57-10.27-15.473-24.007-15.473-39.152"/><path fill="#000" fill-opacity=".1" d="M67.497 112.125v-9.544c-6.203-.2-12.4-1.972-15.944-4.327L54.209 89c3.84 2.267 9.347 4.327 15.355 4.327 6.198 0 10.43-3.045 10.43-7.774 0-4.424-3.443-7.282-10.728-9.936-10.333-3.741-17.023-8.463-17.023-17.613 0-8.47 5.902-14.96 15.843-16.732v-9.648h8.068v9.153c6.202.2 10.434 1.673 13.583 3.252l-2.657 9.047c-2.363-1.082-6.69-3.342-13.386-3.342-6.887 0-9.347 3.544-9.347 6.893 0 4.029 3.542 6.299 11.908 9.64 11.023 4.133 15.941 9.446 15.941 18.204 0 8.366-5.806 15.747-16.631 17.518v10.136h-8.068"/><path fill="#FFD7AC" d="M64.621 109.25v-9.543c-6.203-.202-12.4-1.971-15.941-4.327l2.656-9.256c3.837 2.267 9.347 4.328 15.353 4.328 6.197 0 10.428-3.046 10.428-7.773 0-4.423-3.442-7.284-10.724-9.936C56.06 69 49.367 64.281 49.367 55.13c0-8.47 5.902-14.961 15.843-16.73v-9.65h8.068v9.15c6.203.2 10.434 1.675 13.583 3.253l-2.656 9.048c-2.364-1.081-6.69-3.341-13.386-3.341-6.888 0-9.347 3.541-9.347 6.89 0 4.032 3.54 6.299 11.907 9.64 11.023 4.136 15.941 9.45 15.941 18.207 0 8.367-5.805 15.745-16.631 17.517v10.135h-8.068"/></g></svg>