<svg xmlns="http://www.w3.org/2000/svg" width="422" height="246"><g fill="none" fill-rule="evenodd"><path fill="#EFEEFE" d="M400.978 239.902c6.452-14.884 12.04-35.047 3.93-52.758-8.328-18.191-23.508-17.201-34.14-36.483-14.53-26.339 4.485-45.081-8.887-61.736-14.817-18.455-57.122-19.04-80.446-1.403-14.39 10.883-15.777 24.334-27.128 25.257-15.239 1.236-19.152-22.488-37.886-26.66-23.821-5.304-33.857 29.42-66.414 32.74-30.44 3.104-37.527-25.633-74.365-24.789-25.846.593-54.227 15.473-57.213 33.059-2.005 11.797 8.753 17.026 6.702 33.355-1.783 14.17-10.807 17.594-14.5 29.934-2.914 9.73-2.588 25.274 14.647 49.484h375.7"/><path stroke="#D3D5FC" stroke-dasharray="8.871 8.871" stroke-linecap="round" stroke-width="2.957" d="M93.508 104.13l121.948 15.544"/><path fill="#8B65B7" d="M295.225 155.677l-1.884-5.884c.451-.556 3.011-3.813 2.264-8.085-.146-.823-.606-3.25-2.735-5.079-2.034-1.75-5.43-2.806-8.424-1.34-.346.171-2.873 1.457-3.683 4.351-.827 2.953.488 6.319 3.34 8.348l-1.883 3.8c-5.287-2.622-8.327-8.26-7.396-13.714.572-3.366 2.598-6.318 5.697-8.306 3.015-1.938 6.544-2.635 9.434-1.867 2.74.73 5.236 2.923 6.844 6.018l.226.455c1.265-1.144 2.731-1.988 4.293-2.443 4.777-1.382 11.25.501 13.823 6.056 2.25 4.865.664 10.833-3.771 14.186l-2.556-3.379c2.857-2.163 3.896-5.959 2.477-9.024-1.592-3.441-5.801-4.632-8.791-3.767-1.55.45-2.97 1.566-4.001 3.111.555 3.429.18 7.15-1.148 10.762l-2.126 5.8"/><path fill="#7A4EA5" d="M295.363 137.28c-1.959-3.11-5.743-4.355-9.004-3.72-3.262.635-6.849 3.316-7.029 7.291-.125 2.794 1.466 5.517 4.093 7.104l.668.025c-2.844-2.034-4.155-5.391-3.328-8.34.81-2.894 3.337-4.18 3.683-4.351 2.994-1.466 6.39-.41 8.424 1.34 2.13 1.83 2.589 4.256 2.735 5.079.338 1.946-.008 3.679-.526 5.04 1.93-2.898 2.067-6.636.284-9.467"/><path fill="#BBB4F8" d="M281.147 238.407h62.688v-85.829h-62.688z"/><path fill="#D3D5FC" d="M249.805 238.407h62.684v-85.829h-62.684z"/><path fill="#8B65B7" d="M249.805 199.961h62.759v-8.937h-62.759z"/><path fill="#7A4EA5" d="M312.489 199.961h31.346v-8.937h-31.346z"/><path fill="#7A4EA5" d="M326.112 238.407h7.617v-85.829h-7.617z"/><path fill="#8B65B7" d="M266.94 238.407h8.937V157.53c-3.032-.18-6.027-.372-8.937-.58v81.456"/><path fill="#FFB73F" d="M275.877 152.578h-8.937v1.896l8.937-.372v-1.524"/><path fill="#C5C2F9" d="M249.805 155.188c4.924.764 10.825 1.307 17.135 1.763v-2.477l-17.135.714m62.685-2.61l-36.613 1.524v3.429c13.096.793 26.79 1.45 36.612 2.973v-7.926"/><path fill="#7A4EA5" d="M266.94 154.474v2.477c2.91.208 5.905.4 8.937.58v-3.429l-8.937.372"/><path fill="#D3D5FC" d="M247.892 155.188h66.51v-8.928h-66.51z"/><path fill="#8B65B7" d="M265.156 155.188h8.925v-8.928h-8.925z"/><path fill="#BBB4F8" d="M314.402 155.188h31.171v-8.928h-31.171z"/><path fill="#7A4EA5" d="M326.751 155.188h8.928v-8.928h-8.928z"/><path fill="#EFEEFE" d="M38.934 64.181c0-5.62-4.557-10.181-10.182-10.181-5.621 0-10.177 4.56-10.177 10.181 0 5.621 4.556 10.178 10.177 10.178 5.625 0 10.182-4.557 10.182-10.178"/><path fill="#EFEEFE" d="M38.934 64.181c0-5.62-4.557-10.181-10.182-10.181-5.621 0-10.177 4.56-10.177 10.181 0 5.621 4.556 10.178 10.177 10.178 5.625 0 10.182-4.557 10.182-10.178"/><path fill="#8754AF" d="M28.752 74.359c3.554 0 6.678-1.817 8.499-4.573a9.641 9.641 0 00-8.499-5.074 9.65 9.65 0 00-8.498 5.074 10.174 10.174 0 008.498 4.573m3.926-14.567a3.923 3.923 0 00-3.926-3.921 3.922 3.922 0 000 7.842 3.923 3.923 0 003.926-3.921m14.57 1.833v2.92h2.803v1.248h-2.803v2.961h-1.315v-2.961h-2.802v-1.248h2.802v-2.92h1.315m9.209.226h-.029l-1.663.789-.334-1.528 2.318-1.069h1.679v8.711h-1.971v-6.903"/><path fill="#FDC854" d="M323.986 233.767h47.62c.744 0 1.35.605 1.35 1.349v4.54c0 .743-.606 1.344-1.35 1.344h-47.62a1.348 1.348 0 01-1.349-1.345v-4.54c0-.743.606-1.348 1.35-1.348"/><path fill="#F89F4F" d="M324.015 241h47.567c.756 0 1.374-.614 1.374-1.374v-.827h-50.319v.827c0 .76.618 1.374 1.378 1.374"/><path fill="#FDC854" d="M323.986 226.534h47.62c.744 0 1.35.605 1.35 1.349v4.54c0 .743-.606 1.344-1.35 1.344h-47.62a1.348 1.348 0 01-1.349-1.345v-4.54c0-.743.606-1.348 1.35-1.348"/><path fill="#F89F4F" d="M324.015 233.767h47.567c.756 0 1.374-.614 1.374-1.374v-.827h-50.319v.827c0 .76.618 1.374 1.378 1.374"/><path fill="#FDC854" d="M323.986 219.3h47.62c.744 0 1.35.606 1.35 1.35v4.539c0 .743-.606 1.345-1.35 1.345h-47.62a1.348 1.348 0 01-1.349-1.345v-4.54c0-.743.606-1.348 1.35-1.348"/><path fill="#F89F4F" d="M324.015 226.534h47.567c.756 0 1.374-.614 1.374-1.374v-.827h-50.319v.827c0 .76.618 1.374 1.378 1.374"/><path fill="#FDC854" d="M321.155 212.068h47.625c.743 0 1.344.605 1.344 1.348v4.54c0 .743-.601 1.345-1.344 1.345h-47.625a1.344 1.344 0 01-1.345-1.345v-4.54c0-.743.601-1.348 1.345-1.348"/><path fill="#F89F4F" d="M321.184 219.3h47.566c.76 0 1.374-.613 1.374-1.373v-.827H319.81v.827c0 .76.614 1.374 1.374 1.374"/><path fill="#FDC854" d="M323.986 205.152h47.62c.744 0 1.35.601 1.35 1.345v4.539c0 .743-.606 1.349-1.35 1.349h-47.62a1.352 1.352 0 01-1.349-1.349v-4.54c0-.743.606-1.344 1.35-1.344"/><path fill="#F89F4F" d="M324.015 212.385h47.567c.756 0 1.374-.618 1.374-1.378v-.823h-50.319v.823c0 .76.618 1.378 1.378 1.378"/><path fill="#FDC854" d="M322.098 197.919h47.621c.748 0 1.35.601 1.35 1.344v4.54a1.35 1.35 0 01-1.35 1.349H322.1c-.744 0-1.35-.606-1.35-1.35v-4.539c0-.743.606-1.344 1.35-1.344"/><path fill="#F89F4F" d="M322.128 205.152h47.566c.76 0 1.374-.618 1.374-1.378v-.823H320.75v.823c0 .76.618 1.378 1.378 1.378"/><path fill="#FDC854" d="M321.155 190.686h47.625c.743 0 1.344.6 1.344 1.344v4.54c0 .743-.601 1.349-1.344 1.349h-47.625a1.348 1.348 0 01-1.345-1.35v-4.539c0-.743.601-1.344 1.345-1.344"/><path fill="#F89F4F" d="M321.184 197.919h47.566c.76 0 1.374-.618 1.374-1.378v-.823H319.81v.823c0 .76.614 1.378 1.374 1.378"/><path fill="#FDC854" d="M323.042 183.452h47.621c.748 0 1.349.602 1.349 1.345v4.54c0 .743-.601 1.349-1.349 1.349h-47.62c-.744 0-1.35-.606-1.35-1.35v-4.539c0-.743.606-1.345 1.35-1.345"/><path fill="#F89F4F" d="M323.072 190.686h47.566c.76 0 1.374-.619 1.374-1.379v-.822h-50.319v.822c0 .76.618 1.379 1.379 1.379"/><path fill="#FDC854" d="M398.109 215.617c-.042-13.894-11.33-25.12-25.224-25.082-13.89.038-25.12 11.33-25.082 25.22.037 13.89 11.33 25.12 25.224 25.082 13.89-.037 25.12-11.33 25.082-25.22"/><path fill="#F89F4F" d="M393.077 215.63c-.03-11.113-9.063-20.096-20.175-20.067-11.113.034-20.1 9.067-20.067 20.18.03 11.112 9.062 20.095 20.175 20.066 11.113-.033 20.096-9.066 20.067-20.18"/><path fill="#FDC854" d="M376.222 230.017c-.928.363-1.967.55-3.1.56-2.55.016-4.438-.585-5.77-1.834-1.149-1.082-1.826-2.606-2.064-4.66l2.936-.343c.28 2.41 1.195 3.9 4.878 3.875 4.214-.025 4.652-3.37 4.644-4.806-.013-2.105-.397-4.106-4.857-5.467l-.038-.013-.755-.25c-2.673-.823-4.515-1.988-5.622-3.558-1.144-1.625-1.298-3.379-1.303-4.723-.012-2.101.644-4.01 1.842-5.38 1.362-1.557 3.35-2.384 5.747-2.397 2.522-.012 4.38.648 5.683 2.018 1.257 1.324 1.73 3.09 1.997 4.477l-2.907.563c-.526-2.73-1.407-4.117-4.757-4.1-4.214.02-4.652 3.365-4.648 4.802.013 2.105.393 4.105 4.853 5.475l.033.008.756.25c2.673.823 4.515 1.984 5.625 3.555 1.145 1.62 1.3 3.374 1.308 4.719.012 2.096-.64 4.009-1.838 5.379a6.726 6.726 0 01-2.643 1.85"/><path fill="#FDC854" d="M374.785 232.209l-2.961.021-.017-3.136 2.957-.017.021 3.132m.025-29.797l-2.957.017-.021-3.136 2.961-.017.017 3.136"/><path fill="#F6A19E" d="M41.769 233.587h3.667v-.893h-3.667z"/><path fill="#2E3192" d="M45.42 232.694s1.586 1.532 0 3.12h-9.46c-.046-.185-.246-1.103.3-2.014a2.728 2.728 0 011.329-1.106h4.531s1.637.96 3.3 0"/><path fill="#4463CD" d="M34.607 236.686h11.092v-.873H34.607z"/><path fill="#2E3192" d="M37.589 232.694a2.681 2.681 0 00-2.681 2.685v.434h1.445a3.672 3.672 0 01.142-1.407 3.797 3.797 0 011.094-1.712"/><path fill="#F6A19E" d="M42.496 231.023l.104 1.813 2.448-.046.15-1.875-2.702.108"/><path fill="#4463CD" d="M41.23 231.712h5l6.072-73.112-.46-19.085-13.773-1.386s-3.307 8.494-3.161 22.096c.062 6 5.437 58.946 6.323 71.487m21.394 4.97h7.225v-.869h-7.225z"/><path fill="#F6A19E" d="M63.953 231.031l.384 1.805 2.447-.046-.116-1.875-2.715.116"/><path fill="#2E3192" d="M67.286 232.694c.806 0 1.578.4 2 1.085.004.009.008.013.013.021.55.91.35 1.83.304 2.013h-6.519c-.613-.539-.459-1.633-.238-2.217a1.398 1.398 0 011.308-.902h3.132"/><path fill="#4463CD" d="M67.553 231.712c1.052-11.868 4.084-68.769 3.809-76.023-.335-8.757-3.989-17.56-3.989-17.56-3.12.304-13.881.275-17.201 0-.272 3.5.797 9.976.898 14.128.083 3.637.88 3.224 1.232 6.343l11.263 73.112h3.988"/><path fill="#4463CD" d="M67.553 231.712c1.052-11.868 4.084-68.769 3.809-76.023-.335-8.757-3.989-17.56-3.989-17.56-3.12.304-13.881.275-17.201 0-.272 3.5.797 9.976.898 14.128.083 3.637.88 3.224 1.232 6.343l11.263 73.112h3.988"/><path stroke="#E1EEF7" stroke-width=".931" d="M40.137 233.074l-.999 2.4m2.4-2.4l-.994 2.4"/><path fill="#2E3192" d="M71.362 155.69c-.335-8.758-3.989-17.561-3.989-17.561-1.22.12-3.612.187-6.272.213l-2.731 1.181s5.153 12.637 5.583 28.302c.288 10.52.827 43.403 1.148 63.887h2.452c1.052-11.868 4.084-68.769 3.809-76.023"/><path fill="#D3D5FC" d="M38.07 138.129a98.074 98.074 0 010-14.65c.575-7.764 2.083-16.225 3.632-21.629 4.03-.735 8.019-.83 12.095-1.87l10.436 2.555a127.57 127.57 0 012.998 19.85c.41 5.75.393 11.033.142 15.744a66.195 66.195 0 01-9.839 1.461 67.05 67.05 0 01-19.465-1.461"/><path fill="#C5C2F9" d="M64.233 102.535l-9.184-2.556c.134 1.6 1.512 3.826 2.581 7.555.656 2.293.865 3.997.877 15.31a930.624 930.624 0 01-.137 16.68c3.315-.285 6.33-.79 9.003-1.395.25-4.711.268-9.994-.142-15.745a127.574 127.574 0 00-2.998-19.849"/><path fill="#FB9C98" d="M54.928 103.19h-1.42a2.389 2.389 0 01-2.384-2.547l.53-7.943h5.083l.576 7.93a2.39 2.39 0 01-2.385 2.56"/><path fill="#F26D6D" d="M56.987 96.129l-.25-3.429h-5.083l-.263 3.938c.597.719 1.374 1.22 2.272 1.295 1.29.113 2.502-.672 3.324-1.804"/><path fill="#653087" d="M55.789 118.43h-2.677a1.158 1.158 0 01-1.161-1.157v-7.43c0-.639.518-1.16 1.16-1.16h2.678c.643 0 1.16.521 1.16 1.16v7.43c0 .639-.517 1.157-1.16 1.157"/><path fill="#8754AF" d="M53.855 111.572a.592.592 0 01.635-.555c.33.02.58.309.56.639a.598.598 0 11-1.195-.084"/><path fill="#FB9C98" d="M51.608 120.075l1.487-.973a4.238 4.238 0 001.746-.535c.33-.188 1.724-.981 1.775-2.271.037-.907-.598-1.909-1.086-1.88-.163.009-.297.134-.393.263l-4.731 3.103 1.202 2.293"/><path fill="#2E3192" d="M57.18 87.184s1.382 1.144 1.423 4.48c.042 3.337-2.526 3.112-2.526 3.112l-.568-5.258 1.67-2.334m-5.913 0s-1.378 1.144-1.42 4.48c-.046 3.337 2.527 3.112 2.527 3.112l.568-5.258-1.675-2.334"/><path fill="#FB9C98" d="M51.984 87.743c-.175.134-1.503 1.182-1.796 2.94-.392 2.33 1.124 5.42 3.475 5.621 2.255.192 4.268-2.343 4.39-4.706.1-2.097-1.266-4.498-3.187-4.807-1.353-.213-2.519.676-2.882.952"/><path fill="#FB9C98" d="M51.984 87.743c-.175.134-1.503 1.182-1.796 2.94-.392 2.33 1.124 5.42 3.475 5.621 2.255.192 4.268-2.343 4.39-4.706.1-2.097-1.266-4.498-3.187-4.807-1.353-.213-2.519.676-2.882.952"/><path fill="#2E3192" d="M49.838 86.252c-.134 1.39 2.685 3.099 2.96 3.266 2.398 1.428 5.684 1.708 6.173.209.263-.806-.3-2.038-1.057-3.032a7.26 7.26 0 00-.906-.99c-2.74-2.418-7.012-1.094-7.17.547"/><path fill="#FB9C98" d="M59.255 92.166a1.097 1.097 0 00-.998-1.182 1.094 1.094 0 00-.184 2.18 1.095 1.095 0 001.182-.998m-7.885 0a1.09 1.09 0 00-.994-1.182 1.096 1.096 0 00-1.182.998c-.05.601.397 1.127.999 1.182a1.093 1.093 0 001.177-.998"/><path fill="#D3D5FC" d="M41.702 101.85a4.016 4.016 0 00-2.89 2.31c-1.979 4.456-6.406 16.057-4.89 27.821.217 1.662 2.176 2.44 3.462 1.366a230.973 230.973 0 006.327-5.467 243.56 243.56 0 008.407-7.884c-1.023-1.324-.69-.894-1.712-2.214l-11.58 6.958 5.311-13.677-2.435-9.213"/><path stroke="#C5C2F9" stroke-width="1.816" d="M37.819 132.984a243.993 243.993 0 0014.299-12.988c-1.023-1.324-.69-.894-1.712-2.214l-11.58 6.958 3.507-9.03"/><path fill="#FB9C98" d="M51.825 116.926c.389-2.522.748-3.086 1.015-3.094.368-.009.965 1.031.61 1.983a1.726 1.726 0 01-1.625 1.111"/><path fill="#FB9C98" d="M55.801 121.787l-1.048-1.436a4.293 4.293 0 01-1.44-1.12c-.243-.292-1.266-1.532-.857-2.756.288-.86 1.24-1.57 1.683-1.37.15.067.23.23.272.385l3.328 4.577-1.938 1.72"/><path fill="#C5C2F9" d="M64.016 102.56a4.018 4.018 0 013.128 1.975c2.464 4.21 8.147 15.252 7.939 27.112-.03 1.67-1.892 2.66-3.291 1.737a254.293 254.293 0 01-6.891-4.731 248.152 248.152 0 01-9.23-6.908c.874-1.428.59-.964 1.458-2.388l12.282 5.633-6.794-13.004 1.399-9.426"/><path fill="#FB9C98" d="M56.716 118.764c.526-2.498.392-3.15.146-3.25-.343-.137-1.27.623-1.274 1.638a1.716 1.716 0 001.128 1.612"/><path fill="#B26B6B" d="M104.884 140.233s-9.188 10.386-5.525 33.03c3.666 22.639 9.27 59.827 9.27 59.827h1.963l5.363-74.365s3.211-6.306 3.412-19.13l-14.483.638m3.165 93.634h3.178v-.777h-3.178z"/><path fill="#F95F6A" d="M111.215 233.09s1.378 1.328 0 2.706h-8.206a2.369 2.369 0 01.258-1.745c.005-.004.009-.013.013-.017.372-.601 1.044-.944 1.75-.944h3.32s1.424.836 2.865 0"/><path fill="#D3D5FC" d="M102.779 236.678h8.678v-.882h-8.678z"/><path stroke="#E1EEF7" stroke-width="1.744" d="M106.96 233.178c-.27.688-.549 1.389-.82 2.076m2.4-1.887c-.228.741-.456 1.47-.692 2.211"/><path fill="#A54C4C" d="M119.362 139.766l-.722-.138-9.438.413c-3.182 5.417-6.757 12.838-9.267 21.428a89.268 89.268 0 00-1.328 5.09c.13 2.106.367 4.336.752 6.704.542 3.336 1.123 6.99 1.724 10.795 3.938 1.203 7.96 1.959 11.685 2.652.384.07.769.138 1.153.204l2.034-28.189s3.182-6.247 3.407-18.96"/><path fill="#B26B6B" d="M128.137 136.458c.517.017 1.987 5.454 2.171 6.043.814 2.631 1.838 7.317 2.026 8.348.993 5.438-2.038 38.834-9.434 82.241h-1.946c-1.65-24.639-3.47-50.824-5.12-75.463.3-7.175.6-14.353.902-21.528l11.4.36"/><path fill="#B26B6B" d="M120.323 233.867h3.178v-.777h-3.178z"/><path fill="#F95F6A" d="M120.335 233.09s-1.378 1.328 0 2.706h8.207a2.36 2.36 0 00-.272-1.762c-.372-.601-1.048-.944-1.75-.944h-3.32s-1.424.836-2.865 0"/><path fill="#D3D5FC" d="M120.093 236.678h8.678v-.882h-8.678z"/><path stroke="#E1EEF7" stroke-width="1.744" d="M125.804 233.178c.27.688.549 1.389.82 2.076m-2.4-1.887c.228.741.456 1.47.692 2.211"/><path fill="#A54C4C" d="M132.334 150.85c-.188-1.032-1.212-5.718-2.026-8.349-.05-.163-.196-.69-.397-1.37-.918-.096-1.841-.196-2.764-.296a2.952 2.952 0 00-1.048-.305 2.941 2.941 0 00-1.333.2c-2.259-.371-4.58-.793-6.961-1.265a19.285 19.285 0 01-1.195-.292l-.776 18.454c.655 9.768 1.336 19.774 2.02 29.835 4.29.471 8.245.5 11.748.296 2.452-19.954 3.337-33.601 2.732-36.909"/><path fill="#461B68" d="M142.01 106.068c1.282-2.794 1.733-6.911-.414-8.807-2.067-1.825-4.748-.017-6.727-1.859-1.976-1.841.037-4.577-1.395-7.53-2.18-4.493-11.021-7.078-14.91-3.47-1.778 1.654-2.747 4.815-1.762 7.137 1.157 2.727 4.097 2.134 5.868 5.258 1.629 2.877-.134 4.677 1.52 6.61 2.055 2.402 5.496.49 7.617 2.882 2.063 2.322.055 5.789 1.67 6.511 1.847.823 6.612-2.552 8.533-6.732"/><path fill="#FDC854" d="M113.854 92.888a2.986 2.986 0 115.973-.001 2.986 2.986 0 01-5.973.001"/><path fill="#B26B6B" d="M131.056 141.503s1.232 1.015 1.357 1.553c.121.54.221 2.753-.94 3.42-1.16.669-1.027-.93-1.027-.93l-.004-1.742-1.266-2.08 1.88-.221"/><path fill="#FFC5AE" d="M123.463 109.012c-.137-1.428 1.203-2.543 2.598-2.192.472.117.948.25 1.424.397 8.686 2.693 14.324 9.312 17.62 14.516 1.528 2.41 1.298 5.538-.594 7.676a139.459 139.459 0 01-3.708 4.03c-3.587 3.746-6.724 6.903-10.09 9.76-.693-.456-.672-1.028-1.365-1.483 1.578-2.873 3.002-5.174 5.04-8.302 2.05-3.15 4.105-6.027 6.11-8.64a772.644 772.644 0 00-7.826-5.526s-8.206-4.936-9.096-9.471a8.96 8.96 0 01-.113-.765"/><path fill="#FB9C98" d="M90.238 110.49c.025-2.067-.188-2.563-.401-2.605-.292-.059-.91.693-.752 1.503.109.568.572 1.01 1.153 1.103"/><path fill="#653087" d="M91.411 110.507l-2.806.034a.958.958 0 01-.952-.752l-1.575-6.99a.965.965 0 01.932-1.174l2.806-.034a.95.95 0 01.948.752l1.574 6.99a.964.964 0 01-.927 1.174"/><path fill="#8754AF" d="M89.26 104.74a.57.57 0 10-1.126.181.57.57 0 001.127-.181"/><path fill="#B26B6B" d="M88.847 113.105l-.605-1.462a3.675 3.675 0 01-1.015-1.265c-.15-.3-.777-1.583-.171-2.556.43-.685 1.394-1.102 1.737-.835.117.088.15.242.159.388l1.925 4.644-2.03 1.086"/><path fill="#F9E0D2" d="M108.387 105.939s-4.568 3.257-6.414 8.62c-1.842 5.361-3.19 9.604-3.19 9.604l-7.99-12.474s-1.658.735-2.059 1.32c-.534.768 5.893 17.24 7.58 20.254 1.833 3.274 11.401-9.513 12.658-15.147 1.253-5.633-.585-12.177-.585-12.177"/><path fill="#B26B6B" d="M87.047 107.943s1.261-1.862 3.12-1.411c1.862.455-.347 3.503-.347 3.503l-2.773-2.092"/><path fill="#8754AF" d="M121.63 137.506a2.853 2.853 0 00-1.082-.163c-.61.03-1.064.247-1.294.38a214.57 214.57 0 01-7.07-.325c-2.494-.155-4.799-.986-7.146-1.211-2.764 5.921-6.03 14.963-7.609 25.416a90.039 90.039 0 00-.68 21.177c5.596 1.554 11.484 1.85 16.783 2.113a69.728 69.728 0 0019.127-1.708c.53-9.755.932-17.498.998-19.57.443-14.144-2.73-21.093-3.963-24.2a59.175 59.175 0 00-.885-2.113c-2.393.07-4.786.137-7.179.204"/><path fill="#653087" d="M128.809 137.302c-2.393.07-4.786.137-7.179.204a2.728 2.728 0 00-.798-.158 119.88 119.88 0 013.133 10.77c3.328 13.827 3.733 26.26 3.136 36.111a70.916 70.916 0 005.558-1.044c.53-9.755.932-17.498.998-19.57.443-14.144-2.73-21.093-3.963-24.2a59.175 59.175 0 00-.885-2.113"/><path fill="#F9E0D2" d="M128.855 137.306c.48-6.18.505-13.414-.501-21.407a105.24 105.24 0 00-1.52-8.937c-3.375-1.115-6.75-2.23-10.12-3.345l-8.33 2.322a129.13 129.13 0 00-3.346 30.248c2.848.78 6.348 1.49 10.378 1.791a54.707 54.707 0 0013.439-.672"/><path fill="#FFC5AE" d="M128.855 137.306c.48-6.18.505-13.414-.501-21.407a105.24 105.24 0 00-1.52-8.937c-2.164-.714-4.327-1.428-6.49-2.147-1.282.982-1.733 2.318-.693 4.147 3.06 5.367 1.445 20.747.263 29.158a54.58 54.58 0 008.94-.814"/><path fill="#B26B6B" d="M114.017 102.665l-.05-4.69 4.66-.226.059 5.237c.104.948 1.261 1.7 2.163 2l1.637.54c-.171 1.448-1.65 4.752-3.07 4.965-2.685.405-6.009-4.13-7.525-5.534 1.003-.275 2.063-1.257 2.126-2.292"/><path fill="#A54C4C" d="M118.648 99.841l-.02-2.092-4.661.226.033 3.261c.384.263.819.439 1.29.493 1.308.146 2.56-.697 3.358-1.888"/><path fill="#B26B6B" d="M113.92 92.95c-.166.122-1.44 1.07-1.757 2.715-.426 2.184.918 5.12 3.128 5.37 2.109.235 4.067-2.096 4.234-4.317.15-1.967-1.073-4.256-2.873-4.59-1.265-.238-2.385.572-2.731.823"/><path fill="#B26B6B" d="M120.665 96.321a1.027 1.027 0 10-2.046-.171 1.028 1.028 0 102.046.171"/><path fill="#461B68" d="M112.593 91.389c-.418.91.43 2.234 1.21 2.919 1.922 1.687 5.476 1.299 6.044-.03.405-.947-.698-2.396-1.72-3.106-1.91-1.32-4.945-1.07-5.534.217"/><path fill="#4463CD" d="M192.103 133.56c.53.017 2.046 5.613 2.234 6.218.84 2.71 1.892 7.53 2.088 8.595 1.02 5.596-1.708 38.516-9.321 83.197l-2.568-.133-5.1-76.09c.31-7.384.623-14.771.932-22.159l11.735.372"/><path fill="#F6A19E" d="M184.06 233.825h3.269v-.797h-3.269z"/><path fill="#461B68" d="M184.072 233.028s-1.42 1.365 0 2.785h8.448c.042-.167.218-.99-.271-1.8-.004-.004-.008-.012-.013-.016-.38-.619-1.073-.97-1.8-.97h-3.416s-1.465.857-2.948 0"/><path fill="#D3D5FC" d="M183.822 236.719h8.932v-.906h-8.932z"/><path fill="#FB9C98" d="M186.966 231.541l-.083 1.487h-2.285v-1.579l2.368.092"/><path stroke="#E1EEF7" stroke-width="1.796" d="M189.646 233.115c.278.692.548 1.383.827 2.074m-2.4-1.891c.23.743.459 1.474.688 2.217"/><path fill="#2E3192" d="M185.337 231.478l1.767.092c7.613-44.68 10.34-77.601 9.321-83.197-.196-1.065-1.249-5.885-2.088-8.595-.188-.605-1.704-6.201-2.234-6.218 0 0-4.82-.155-8.277-.263a318.838 318.838 0 012.551 24.547c.652 10.09.748 19.031.31 36.892a1564.398 1564.398 0 01-1.35 36.742"/><path fill="#FDC854" d="M159.838 125.755c-2.82-3.254-5.045-8.616-2.898-12.007 2.063-3.261 6.38-1.883 8.318-5.14 1.963-3.296-1.599-6.156-1.073-10.667.844-7.275 11.756-13.99 18.647-10.891 3.675 1.65 6.548 6.247 6.013 9.826-.634 4.281-5.717 4.197-6.635 8.829-.882 4.456 3.395 6.686 2.033 9.968-1.64 3.943-8.423 2.176-10.599 6.381-1.967 3.797 2.26 7.751.31 9.41-2.164 1.829-9.894-.836-14.116-5.71"/><path fill="#4463CD" d="M168.165 137.444s-9.459 10.695-5.684 33.998c3.771 23.303 9.238 60.128 9.238 60.128l2.568-.133 5.275-74.958s3.307-6.49 3.512-19.691l-14.909.656"/><path fill="#F26D6D" d="M219.77 133.163l.618-.05c.23-.02.46-.038.69-.03.58.585 1.494.865 2.317.79.334-.033.66-.121.985-.213.13-.038.247-.092.435-.163.35-.138.639-.263.735-.305.522-.234 1.578-.71 1.724-1.528.013-.08.176-.451-.029-.493-1.344-.276-3.153-.418-4.335-.367-.066-.305-.029-.61.184-.836.134-.137.305-.234.46-.35.154-.113.304-.251.359-.439.058-.184-.013-.418-.192-.489-.197-.079-.414.059-.58.193-.285.225-.573.45-.857.672-.259.205-.518.41-.702.68-.087.134-.162.285-.3.368-.121.075-.272.084-.41.088l-1.11.037c0 .802.008 1.63.008 2.435"/><path fill="#FFC5AE" d="M184.243 111.393s2.911 12.841 7.58 19.29c4.456 6.16 28.118 2.547 28.118 2.547l-.017-2.614s-10.837-3.045-21.657-3.475c0 0-2.982-10.065-7.154-18.517a2.41 2.41 0 00-3.971-.526l-2.899 3.295"/><path stroke="#FFC5AE" stroke-width="1.82" d="M198.296 127.07a3.325 3.325 0 01-1.077 2.36"/><path fill="#F9E0D2" d="M193.485 139.594c-1.6-10.511-.873-18.425-.317-23.165.12-1.036-.276-3.295-.664-6.172a6.131 6.131 0 00-3.897-4.907c-2.497-.957-4.998-1.913-7.5-2.865l-5.976 1.374a6.6 6.6 0 00-3.587 2.176s-.009.016-.021.025c-2.134 2.568-1.454 17.836-1.454 17.836.138 3.09-.075 7.626-1.896 13.276a46.709 46.709 0 009.819 2.644c5.566.86 12.035.275 15.493-.222"/><path fill="#FB9C98" d="M178.221 101.316l.18-5.108 5.078-.017-.196 5.705c.067 1.036 1.29 1.913 2.26 2.28l1.753.673c.489 2.986.885 6.815-.347 7.312-.73.297-1.733-.701-3.24-2.063a93.61 93.61 0 00-7.914-6.394c1.102-.25 2.305-1.265 2.426-2.388"/><path fill="#F26D6D" d="M182.602 101.023a2.93 2.93 0 00.718-.142l.16-4.69-5.08.017-.037 1.007c.526 2.054 2.276 3.938 4.24 3.808"/><path fill="#FB9C98" d="M183.734 90.971c.175.142 1.516 1.236 1.783 3.04.35 2.398-1.261 5.53-3.67 5.688-2.31.155-4.327-2.48-4.398-4.907-.067-2.146 1.378-4.577 3.353-4.852 1.39-.197 2.564.743 2.932 1.031"/><path fill="#FDC854" d="M183.813 88.403c.589.898-.1 2.443-.818 3.295-1.771 2.105-5.613 2.263-6.432.944-.584-.94.36-2.656 1.333-3.58 1.812-1.711 5.078-1.933 5.917-.66"/><path fill="#FFC5AE" d="M177.996 139.853c5.562.86 12.031.238 15.49-.259-.155-3.006-.565-3.7-1.446-5.8-2.23-.994-11.935-3.19-13.568-3.776-1.938-.693-.389-8.519-1.93-9.471-1.194-.735-3.8-5.245-6.556-3.955-.071 3.896.083 7.346.083 7.346.138 3.09-.075 7.626-1.896 13.276a46.46 46.46 0 009.823 2.64"/><path fill="#FB9C98" d="M176.225 94.308a1.12 1.12 0 011.073-1.165c.618-.021 1.14.46 1.165 1.077a1.12 1.12 0 01-2.238.088"/><path fill="#EFEEFE" d="M177.11 95.147c0-.246-.2-.446-.45-.446a.448.448 0 10.008.897.44.44 0 00.442-.45"/><path stroke="#FFC5AE" stroke-width="1.82" d="M175.778 103.512c1.98 1.667 3.955 3.333 5.935 4.995.822.697 1.65 1.39 2.472 2.084.68.572 1.386 1.157 2.2 1.487.318.13.686.004.848-.293.172-.317.293-.66.364-1.01.108-.572.075-1.161.042-1.742-.088-1.428-.172-2.856-.255-4.28m-9.234 10.77c.238 3.161.472 6.323.706 9.484.067.906.15 1.863.677 2.602.563.802 1.532 1.198 2.447 1.553 3.328 1.3 6.66 2.598 9.993 3.897"/><path fill="#BBB4F8" d="M191.978 137.728l9.546.025 18.02-17.929c.188-.188.443-.292.71-.292l15.377.042c.885 0 1.336 1.065.718 1.7l-17.448 18.053-26.928-.07.005-1.53"/><path fill="#D3D5FC" d="M218.901 139.327l-26.928-.07.005-1.53 9.546.026 18.02-17.929c.188-.188.443-.292.71-.292l.848.004-.271 17.795-1.93 1.996"/><path fill="#FFF" d="M219.536 129.104c.902-1.257 2.326-1.78 3.174-1.17.852.61.806 2.126-.096 3.383-.902 1.253-2.326 1.78-3.174 1.165-.852-.61-.806-2.121.096-3.378"/><path fill="#FB9C98" d="M201.295 139.143c-.364-.321-.401-1.04.079-1.57a9.86 9.86 0 01.36-.117s.53-.163 1.077-.242c1.177-.175 2.522.05 2.522.05 1.332.221 2.401.401 2.53.948.138.618-.956 1.495-1.966 1.817-1.746.55-3.354-.522-3.667-.74-.042.013-.585.163-.935-.146"/><path fill="#F9E0D2" d="M175.707 104.636c-2.693-.978-5.562.969-5.667 3.838-.238 6.393-.326 18.37 2.076 22.555 3.336 5.817 29.208 8.01 29.208 8.01l.217-1.558-22.814-9.446s.112-22.23-2.928-23.366c-.03-.012-.058-.025-.092-.033"/><path fill="#F6A19E" d="M171.422 233.825h3.275v-.797h-3.275z"/><path fill="#461B68" d="M174.684 233.028s1.416 1.365 0 2.785h-8.448c-.042-.167-.222-.99.267-1.8l.012-.016c.385-.619 1.078-.97 1.8-.97h3.42s1.467.857 2.95 0"/><path fill="#D3D5FC" d="M165.998 236.719h8.932v-.906h-8.932z"/><path fill="#FB9C98" d="M171.786 231.541l.083 1.487h2.285v-1.579l-2.368.092"/><path stroke="#E1EEF7" stroke-width="1.796" d="M170.279 233.115c-.27.692-.549 1.383-.82 2.074m2.4-1.891c-.229.743-.466 1.474-.696 2.217"/><path fill="#F6A19E" d="M309.09 143.186h3.579v-.869h-3.579z"/><path fill="#2E3192" d="M312.656 142.317s1.554 1.491 0 3.045h-9.242c-.041-.184-.238-1.082.297-1.967a2.613 2.613 0 011.294-1.078h4.427s1.604.936 3.224 0m-10.561 3.897h10.833v-.852h-10.833z"/><path fill="#2E3192" d="M305.005 142.317a2.617 2.617 0 00-2.618 2.619v.426h1.416c-.03-.318-.034-.81.133-1.374a3.69 3.69 0 011.07-1.67"/><path fill="#F6A19E" d="M309.8 140.68l.104 1.771 2.389-.046.146-1.829-2.639.104"/><path stroke="#E1EEF7" stroke-width="1.33" d="M307.52 142.685l-.999 2.4m2.4-2.4l-.998 2.4"/><path fill="#4463CD" d="M350.125 90.282c2.35 1.78 3.157 3.617 3.374 4.156.217.538.906 2.305.572 4.435 0 0-.463 2.944-3.566 5.646-3.846 3.345-16.659 1.436-33.213-2.619a855.108 855.108 0 01-4.827 38.885c-.811.02-1.98.062-2.79.083a210.79 210.79 0 01-3.659-18.195 210.394 210.394 0 01-2.364-25.304c-.07-2.234.447-4.456 1.558-6.394l.025-.05c.677-1.165 2.005-3.474 4.473-4.815 1.975-1.077 3.88-1.106 4.986-1.11 10.875-.042 18.267 1.169 27.028 2.275 1.896.238 5.291.652 8.403 3.007"/><path fill="#FB9C98" d="M375.127 95.49l.543 1.83s2.155 1.77.923 5.01c-1.228 3.241-2.3.021-2.3.021l-1.738-5.809 2.572-1.052"/><path fill="#FB9C98" d="M373.19 97.941c-1.512 1.984-1.667 2.619-1.487 2.81.242.264 1.378-.016 1.808-.914a1.68 1.68 0 00-.321-1.896"/><path fill="#B0C5FF" d="M358.67 52.805a7.999 7.999 0 014.476 3.554c2.81 4.765 8.448 14.847 9.626 20.96 1.583 8.22 2.806 18.726 2.806 18.726l-3.508.652c-1.954-6.143-3.913-12.282-5.867-18.425-2-2.882-4.18-6.478-6.168-10.78a72.047 72.047 0 01-4.101-11.25c-.15-1.482-.305-2.965-.46-4.447l3.195 1.01"/><path fill="#FB9C98" d="M314.882 50.934l-.555-1.65a4.203 4.203 0 01-1.024-1.465c-.137-.342-.73-1.796.005-2.819.522-.722 1.616-1.11 1.97-.793.122.108.147.284.143.438l1.77 5.245-2.309 1.044"/><path fill="#D2DCF7" d="M337.316 52.212a.969.969 0 00-1.294-1.069c-2.042.764-5.747 2.493-8.528 5.76-4.042 4.747-7.133 8.552-7.133 8.552l-3.17-15.999s-1.783.685-2.43 1.12c-.856.571-1.11 19.44-.597 23.21.564 4.093 15.514-5.157 19.068-10.423 2.552-3.78 3.658-8.683 4.084-11.15"/><path fill="#2E3192" d="M356.351 183.461h7.054v-.848h-7.054z"/><path fill="#F6A19E" d="M357.646 177.94l.376 1.762 2.389-.046-.113-1.829-2.652.113"/><path fill="#2E3192" d="M360.9 179.569c.789 0 1.54.384 1.958 1.056l.012.021c.535.885.339 1.783.297 1.967h-6.043c-.806-.806-.773-1.595-.56-2.167.2-.53.71-.877 1.274-.877h3.061"/><path fill="#4463CD" d="M360.661 179.013c.096-11.685.551-67.332.543-74.427-.012-8.557-4.289-17.19-4.289-17.19-3.061.188-13.564-.225-16.796-.61-.389 3.404.426 9.765.371 13.82-.046 3.554.48 1.988.714 5.045l16.17 73.241 3.287.121"/><path fill="#2E3192" d="M360.661 179.013c.096-11.685.551-67.332.543-74.427-.012-8.557-4.289-17.19-4.289-17.19-1.52.097-4.878.038-8.273-.087l-.914.38s4.744 10.094 5.404 17.46c.492 5.534 4.284 51.392 6.134 73.814l1.395.05"/><path fill="#D2DCF7" d="M331.854 86.068a2.728 2.728 0 01-2.067-2.777 120.529 120.529 0 015.821-31.705.738.738 0 01.54-.485c3.841-.826 7.683-1.653 11.525-2.476l9.2 3.667a148.44 148.44 0 011.07 17.76c0 5.923-.355 11.373-.894 16.259-.054.497-.439.89-.931.964a62.29 62.29 0 01-24.264-1.207"/><path fill="#D2DCF7" d="M329.724 85.78c.05-7.103 1.62-15.593 3.75-24.568.848-3.558 2.143-7.116 3.166-10.22 3.98-.851 7.058-1.51 11.033-2.367l9.2 3.667a148.138 148.138 0 01.176 34.01 1.104 1.104 0 01-.931.973 62.125 62.125 0 01-11.2.631c-6.11-.205-11.272-.994-15.194-2.126"/><path fill="#B0C5FF" d="M356.118 87.275c.492-.075.877-.472.93-.968a147.98 147.98 0 00-.175-34.015l-9.2-3.667c-.555.121-1.098.234-1.624.347a59.21 59.21 0 013.5 13.28c1.47 10.365-.088 19.29-2.01 25.687a62.377 62.377 0 008.579-.664"/><path fill="#F95F6A" d="M346.638 53.302l2.635 15.306-2.844 10.599-4.949-10.165 5.158-15.74"/><path fill="#F6A19E" d="M351.632 42.833l-.914 7.183-5.88.923 1.253-9.234 5.541 1.128"/><path fill="#F26D6D" d="M346.09 41.705l5.542 1.128-.066.505c-.598 2.397-3.007 4.61-5.292 4.1-.325-.07-.634-.2-.914-.367l.73-5.366"/><path fill="#F6A19E" d="M347.594 36.034c-1.838.463-2.635 2.109-2.894 2.643-1.065 2.18-1.048 5.868 1.182 7.016 2.096 1.082 5.161-.584 6.285-2.915.81-1.683.864-4.251-.781-5.759-.931-.852-2.38-1.34-3.792-.985"/><path fill="#2E3192" d="M351.332 42.01c-.042.259-.25 1.349-1.095 1.762-.839.414-1.891-.158-2.756-.618-1.583-.84-2.08-1.762-2.831-1.583-.46.105-.756.56-.94.957-.15.472-.346 1.374.046 2.23.76 1.645 3.212 2.063 4.903 1.566 2.242-.664 3.817-3.14 3.34-3.96-.124-.216-.396-.312-.667-.354m-.234-.063c.113-.196 1.265-2.317.426-3.967-.163-.317-.714-1.378-1.629-1.516-.288-.042-.46.033-2.635.802-.53.192-.819.288-1.157.18-.518-.16-.86-.694-.965-1.153-.22-.973.556-1.934 1.207-2.38 1.111-.77 2.493-.414 3.036-.23 0 0 .1.029.192.066 1.884.731 3.784 3.667 3.504 6.03-.062.527-.213.857-.363 1.095-.484.743-1.286.99-1.616 1.073"/><path fill="#F6A19E" d="M353.349 42.624a1.177 1.177 0 10-2.122-1.015 1.172 1.172 0 00.556 1.566c.584.28 1.286.033 1.566-.551"/><path fill="#B0C5FF" d="M343.23 49.744c.388-.363.827-.772 1.332-.726.343.029.414.238.956.538.477.268.92.38 1.212.435a2.534 2.534 0 01-1.291 2.446 6.605 6.605 0 01-2.806-1.983c.117-.184.309-.443.597-.71m8.114-.024a2.607 2.607 0 00-.676-.594 6.998 6.998 0 00-1.604.213c-.952.238-2.122.589-2.334.652.075.367.204.814.421 1.303.184.426.397.776.59 1.052a9.065 9.065 0 011.974-1.132 9.135 9.135 0 012.101-.601 2.7 2.7 0 00-.472-.894"/><path fill="#F95F6A" d="M346.826 50.016l.914 2.33-1.102.956-1.199-.864 1.387-2.422m-33.677-5.191l-1.032-.631 1.207-1.971 1.032.631-1.207 1.971"/><path fill="#FDC854" d="M318.874 43.806l-5.85 6.418a1.53 1.53 0 01-2.11.15 1.532 1.532 0 01-.333-1.987l4.877-7.956 3.416 3.375"/><path fill="#F95F6A" d="M302.374 29.557l2.373 1.499 4.393-6.958-2.372-1.499a4.118 4.118 0 00-5.676 1.282 4.119 4.119 0 001.282 5.676"/><path fill="#FDC854" d="M312.493 40.264l-15.761-3.629 13.949-22.083 10.106 12.587-8.294 13.125"/><path fill="#FDC854" d="M296.565 36.902a1.472 1.472 0 01-.459-2.025l12.716-20.133a1.47 1.47 0 112.485 1.566l-12.716 20.137c-.434.685-1.34.89-2.026.455"/><path fill="#F89F4F" d="M316.974 43.092l-4.48-2.828 8.293-13.125 4.477 2.827a7.763 7.763 0 11-8.29 13.126"/><path stroke="#D3D5FC" stroke-linecap="round" stroke-width=".976" d="M280.838 12.43l15.945 9.238"/><path stroke="#F95F6A" stroke-linecap="round" stroke-width=".976" d="M324.905 38.803l2.627 1.52m-1.646-3.099l2.464 1.428m-4.422 1.725l2.464 1.424"/><path stroke="#D3D5FC" stroke-linecap="round" stroke-width=".976" d="M295.045 1l10.32 12.34m-27.38 17.098l15.544 2.769"/><path stroke="#F89F4F" stroke-linecap="round" stroke-width=".976" d="M298.466 36.564l7.329-11.53m1.244-1.98l2.155-3.466"/><path fill="#FB9C98" d="M316.607 48.166c.18-2.272-.017-2.832-.247-2.894-.317-.084-1.052.697-.94 1.599.08.63.556 1.153 1.187 1.295"/><path fill="#BBB4F8" d="M198.233 62.026h19.282a2.585 2.585 0 012.585 2.585v10.031a2.58 2.58 0 01-2.585 2.581h-19.282a2.576 2.576 0 01-2.58-2.58V64.61a2.58 2.58 0 012.58-2.585"/><path fill="#FFF" d="M206.423 69.994c0-.797.651-1.449 1.453-1.449.798 0 1.45.652 1.45 1.45a1.45 1.45 0 01-2.903-.001m-5.463 0c0-.797.652-1.449 1.454-1.449.797 0 1.449.652 1.449 1.45a1.45 1.45 0 01-2.903-.001m10.93 0a1.45 1.45 0 011.449-1.449c.797 0 1.449.652 1.449 1.45a1.45 1.45 0 01-1.45 1.449 1.447 1.447 0 01-1.448-1.45"/><path fill="#BBB4F8" d="M198.037 80.744v-3.521h5.404l-5.404 3.521"/><path fill="#EFEEFE" d="M100.804 68.875a7.5 7.5 0 017.379-7.625 7.506 7.506 0 01.246 15.009 7.502 7.502 0 01-7.625-7.384"/><path fill="#F95F6A" d="M108.367 72.63l3.579-2.79c.392-.305.705-.714.86-1.19.635-1.95-1.357-4.16-3.517-3.145-.05.02-.096.046-.146.075l-.88.472-.899-.443c-.05-.025-.1-.05-.15-.07-2.188-.944-4.11 1.327-3.412 3.257.171.472.497.868.902 1.165l3.663 2.669"/><path stroke="#D3D5FC" stroke-dasharray="8.871 8.871" stroke-linecap="round" stroke-width="2.957" d="M72.527 111.614L85.48 105.4m144.955 11.526l70.448-74.979"/><path stroke="#BBB4F8" stroke-linecap="round" stroke-width="10.991" d="M6 239.614h410.079"/></g></svg>