<svg xmlns="http://www.w3.org/2000/svg" width="271" height="244"><g fill="none" fill-rule="evenodd"><path fill="#EFEEFE" d="M15.412 239.364c-14.226-34.238-10.5-52.6-3.876-63.135 6.428-10.221 14.076-10.987 19.423-23.062 7.278-16.445-3.292-25.678-.81-46.529 2.128-17.873 13.459-41.017 31.558-47.743 21.611-8.03 34.97 13.995 55.834 6.07 20.307-7.715 15.334-32.3 38.44-42.889 14.33-6.568 34.48-5.541 45.767 4.56 11.098 9.929 3.986 21.23 16.688 40.053 10.784 15.976 18.743 12.35 24.447 24.559 9.406 20.138-10.627 33.482-3.906 59.04 5.177 19.694 19.44 20.767 22.572 37.768 2.362 12.813-2.548 29.512-23.876 51.308H15.412"/><path fill="#D3D5FC" d="M227.853 205.419s28.87-11.537 12.965-20.986c0 0 18.893-26.98.944-19.999 0 0-4.983-34.555-21.084-1.993 0 0-11.144-5.759-1.484 15.284 0 0-21.585-2.008 8.659 27.694"/><path stroke="#BBB4F8" stroke-width="1.73" d="M218.813 238.112s4.724-6.594 8.563-29.898c3.842-23.304 1.998-43.117 1.998-43.117m.057 22.689l6.91-7.73m-6.647-3.555c-1.921-2.303-3.84-4.605-5.757-6.907"/><path fill="#D3D5FC" d="M231.722 227.623s22.776 2.974 11.968-9.35c0 0 20.23-6.1 10.53-10.242 0 0 7.74-26-12.368-2.708 0 0-5.49-6.228-6.494 6.06 0 0-14.033-10.387-3.783 16.402"/><path stroke="#BBB4F8" stroke-width="1.73" d="M243.39 211.303S229.587 230.867 222.252 240"/><path stroke="#CE3A5E" stroke-width="16.409" d="M231.469 196.304a4.055 4.055 0 10-8.11 0 4.055 4.055 0 008.11 0z"/><path stroke="#F95F6A" stroke-width="16.409" d="M225.755 195.146a5.724 5.724 0 10-11.448 0 5.724 5.724 0 1011.448 0z"/><path fill="#FDC854" d="M194.694 237.16h48.659v-35.662h-48.659zm-2.068-35.662h52.795v-5.254h-52.795z"/><path fill="#F89F4F" d="M243.353 237.16h11.101v-35.662h-11.101zm2.068-35.662h10.965v-5.254h-10.965z"/><path fill="#F95F6A" d="M218.373 237.16h4.473v-35.662h-4.473zm-1.588-35.662h4.477v-5.254h-4.477z"/><path fill="#F95F6A" d="M194.694 221.567h48.659v-4.476h-48.659z"/><path fill="#CE3A5E" d="M243.353 221.567h11.101v-4.476h-11.101z"/><path fill="#F89F4F" d="M194.694 201.498l48.659 4.482v-4.482h-48.659"/><path fill="#CE3A5E" d="M222.846 204.091v-2.593h-4.473v2.181l4.473.412"/><path fill="#EFEEFE" d="M134.5 11.484C134.5 5.14 129.36 0 123.014 0c-6.341 0-11.481 5.141-11.481 11.484 0 6.342 5.14 11.484 11.48 11.484 6.345 0 11.485-5.142 11.485-11.484"/><path fill="#EFEEFE" d="M134.5 11.484C134.5 5.14 129.36 0 123.014 0c-6.341 0-11.481 5.141-11.481 11.484 0 6.342 5.14 11.484 11.48 11.484 6.345 0 11.485-5.142 11.485-11.484"/><path fill="#8754AF" d="M123.015 22.968a11.47 11.47 0 009.586-5.162 10.879 10.879 0 00-9.586-5.724 10.885 10.885 0 00-9.587 5.724 11.47 11.47 0 009.587 5.162m4.426-16.435a4.425 4.425 0 10-8.85 0 4.425 4.425 0 008.85 0m16.438 2.066v3.297h3.159v1.406h-3.159v3.342h-1.481v-3.342h-3.162v-1.406h3.162V8.599h1.481m10.387.257h-.03l-1.874.892-.377-1.724 2.615-1.209h1.891v9.829h-2.225V8.856"/><path fill="#FDC854" d="M35.626 230.317H81.69c.72 0 1.304.584 1.304 1.304v4.39c0 .72-.583 1.303-1.304 1.303H35.626c-.72 0-1.305-.584-1.305-1.303v-4.39c0-.72.584-1.304 1.305-1.304"/><path fill="#F89F4F" d="M35.652 237.314h46.012c.733 0 1.33-.596 1.33-1.33v-.8H34.321v.8c0 .734.597 1.33 1.331 1.33"/><path fill="#FDC854" d="M35.626 223.32H81.69c.72 0 1.304.584 1.304 1.304v4.39c0 .72-.583 1.303-1.304 1.303H35.626c-.72 0-1.305-.583-1.305-1.303v-4.39c0-.72.584-1.303 1.305-1.303"/><path fill="#F89F4F" d="M35.652 230.317h46.012a1.33 1.33 0 001.33-1.33v-.799H34.321v.799c0 .735.597 1.33 1.331 1.33"/><path fill="#FDC854" d="M35.626 216.324H81.69c.72 0 1.304.584 1.304 1.304v4.39c0 .72-.583 1.303-1.304 1.303H35.626c-.72 0-1.305-.584-1.305-1.304v-4.39c0-.72.584-1.303 1.305-1.303"/><path fill="#F89F4F" d="M35.652 223.32h46.012a1.33 1.33 0 001.33-1.33v-.799H34.321v.799c0 .735.597 1.33 1.331 1.33"/><path fill="#FDC854" d="M32.887 209.328h46.065c.72 0 1.304.583 1.304 1.303v4.39c0 .72-.584 1.303-1.304 1.303H32.887c-.72 0-1.304-.583-1.304-1.304v-4.389c0-.72.584-1.303 1.304-1.303"/><path fill="#F89F4F" d="M32.914 216.324h46.011a1.33 1.33 0 001.33-1.331v-.798H31.584v.798c0 .735.597 1.331 1.33 1.331"/><path fill="#FDC854" d="M35.626 202.635H81.69c.72 0 1.304.583 1.304 1.304v4.389c0 .72-.583 1.304-1.304 1.304H35.626c-.72 0-1.305-.584-1.305-1.304v-4.39c0-.72.584-1.303 1.305-1.303"/><path fill="#F89F4F" d="M35.652 209.632h46.012c.733 0 1.33-.596 1.33-1.332v-.798H34.321v.798c0 .736.597 1.332 1.331 1.332"/><path fill="#FDC854" d="M33.801 195.638h46.065c.72 0 1.304.584 1.304 1.304v4.39c0 .72-.584 1.303-1.304 1.303H33.8c-.72 0-1.304-.584-1.304-1.304v-4.39c0-.72.584-1.303 1.304-1.303"/><path fill="#F89F4F" d="M33.828 202.635h46.01c.735 0 1.332-.596 1.332-1.33v-.8H32.497v.8c0 .734.597 1.33 1.33 1.33"/><path fill="#FDC854" d="M32.887 188.641h46.065c.72 0 1.304.584 1.304 1.304v4.39c0 .72-.584 1.303-1.304 1.303H32.887c-.72 0-1.304-.584-1.304-1.303v-4.39c0-.72.584-1.304 1.304-1.304"/><path fill="#F89F4F" d="M32.914 195.638h46.011a1.33 1.33 0 001.33-1.33v-.8H31.584v.8c0 .734.597 1.33 1.33 1.33"/><path fill="#FDC854" d="M34.712 181.645H80.78c.717 0 1.3.583 1.3 1.303v4.39c0 .72-.583 1.303-1.3 1.303H34.712c-.72 0-1.305-.583-1.305-1.303v-4.39c0-.72.584-1.303 1.305-1.303"/><path fill="#F89F4F" d="M34.738 188.641H80.75c.737 0 1.33-.595 1.33-1.33v-.799H33.407v.799c0 .735.597 1.33 1.331 1.33"/><path fill="#FDC854" d="M35.626 174.648H81.69c.72 0 1.304.584 1.304 1.304v4.39c0 .72-.583 1.303-1.304 1.303H35.626c-.72 0-1.305-.584-1.305-1.304v-4.39c0-.72.584-1.303 1.305-1.303"/><path fill="#F89F4F" d="M35.652 181.645h46.012c.733 0 1.33-.596 1.33-1.331v-.799H34.321v.799c0 .735.597 1.33 1.331 1.33"/><path stroke="#BBB4F8" stroke-linecap="round" stroke-width="10.245" d="M6.102 238.869h258.919"/><path fill="#FDC854" d="M51.66 212.758c-.037-13.437-10.961-24.299-24.397-24.262-13.439.037-24.3 10.96-24.263 24.397.037 13.437 10.96 24.3 24.397 24.262 13.435-.037 24.3-10.96 24.263-24.397"/><path fill="#F89F4F" d="M46.793 212.772c-.03-10.75-8.77-19.44-19.516-19.41-10.751.03-19.44 8.768-19.41 19.518.03 10.749 8.766 19.44 19.516 19.41 10.751-.03 19.44-8.769 19.41-19.518"/><path fill="#FDC854" d="M30.489 226.687c-.894.35-1.902.534-2.999.541-2.465.016-4.293-.563-5.58-1.773-1.114-1.045-1.768-2.52-1.998-4.506l2.842-.33c.273 2.33 1.154 3.77 4.72 3.747 4.075-.027 4.496-3.262 4.486-4.652-.01-2.034-.38-3.968-4.697-5.287l-.033-.01-.73-.244c-2.589-.796-4.367-1.923-5.438-3.443-1.107-1.57-1.257-3.266-1.264-4.568-.01-2.03.624-3.877 1.785-5.202 1.317-1.506 3.239-2.308 5.557-2.32 2.441-.012 4.24.626 5.497 1.952 1.217 1.28 1.671 2.988 1.931 4.332l-2.808.545c-.514-2.643-1.365-3.982-4.604-3.966-4.079.02-4.503 3.255-4.496 4.644.01 2.034.377 3.97 4.697 5.295l.03.01.73.243c2.589.793 4.366 1.916 5.44 3.435 1.108 1.568 1.258 3.264 1.268 4.567.01 2.029-.62 3.877-1.778 5.203a6.504 6.504 0 01-2.558 1.787"/><path fill="#FDC854" d="M29.098 228.811l-2.862.017-.02-3.031 2.865-.018.017 3.032m.027-28.827l-2.862.018-.02-3.032 2.861-.018.021 3.032"/><path fill="#FB9C98" d="M106.817 119.738l.898 2.262s-.24 1.11.236 2.484c.09.263.778 2.27 2.802 3.26.914.446 2.349.809 2.722.306.407-.546-.41-2.141-.4-2.1l-2.852-7.19-3.406.978"/><path fill="#FB9C98" d="M111.077 120.932c2.935 1.237 3.506 1.842 3.432 2.166-.1.446-1.538.858-2.585.137a2.148 2.148 0 01-.847-2.303"/><path fill="#653087" d="M89.612 61.617c.074 10.234 2.485 30.855 17.012 58.845l3.94-1.791s-6.392-25.983-8.23-30.662l-4.04-28.283c-1.123-4.31-7.338-4.414-8.438-.099a7.834 7.834 0 00-.244 1.99"/><path fill="#F95F6A" d="M44.148 53.42c-1.798-3.922-2.435-9.7.58-12.36 2.902-2.558 6.665-.021 9.44-2.609 2.772-2.579-.05-6.42 1.958-10.56 3.062-6.305 15.464-9.937 20.921-4.872 2.498 2.32 3.856 6.757 2.475 10.015-1.624 3.827-5.754 2.994-8.236 7.378-2.288 4.036.184 6.56-2.134 9.276-2.879 3.368-7.712.685-10.69 4.043-2.893 3.259-.071 8.124-2.342 9.135-2.589 1.154-9.28-3.576-11.972-9.446"/><path fill="#FDC854" d="M84.445 34.815a4.191 4.191 0 00-8.382 0 4.192 4.192 0 008.383 0"/><path fill="#4463CD" d="M98.505 94.06c.737.023 2.842 7.784 3.102 8.625 1.16 3.76 2.625 10.448 2.892 11.925 1.418 7.762-2.368 53.424-12.925 115.404l-3.563-.185-7.075-105.544c.434-10.246.864-20.493 1.295-30.74l16.274.515"/><path fill="#F6A19E" d="M87.347 233.139h4.54v-1.105h-4.54z"/><path fill="#F95F6A" d="M87.367 232.034s-1.968 1.895 0 3.864h11.718c.057-.233.304-1.37-.373-2.495-.007-.009-.014-.018-.017-.027-.53-.855-1.494-1.342-2.498-1.342h-4.743s-2.032 1.189-4.087 0"/><path fill="#D3D5FC" d="M87.02 237.155h12.392v-1.257H87.02z"/><path fill="#FB9C98" d="M91.383 229.975l-.116 2.059h-3.166l-.003-2.187 3.285.128"/><path stroke="#E1EEF7" stroke-width="3.118" d="M94.494 232.156l.82 2.079m-2.4-1.893l.694 2.214"/><path fill="#2E3192" d="M89.122 229.886l2.452.128c10.557-61.98 14.343-107.642 12.925-115.404-.267-1.477-1.731-8.165-2.892-11.925-.26-.84-2.365-8.601-3.102-8.625 0 0-6.681-.21-11.481-.363a441.733 441.733 0 013.539 34.051c.907 13.992 1.04 26.396.427 51.173a2136.879 2136.879 0 01-1.868 50.965"/><path fill="#4463CD" d="M65.93 100.078s-13.12 14.83-7.886 47.157c5.234 32.327 12.816 83.406 12.816 83.406l3.562-.185 7.315-103.974s4.59-9.003 4.873-27.317l-20.68.913"/><path fill="#F9E0D2" d="M101.444 102.542c-2.212-14.581-2.242-25.292-1.471-31.867.166-1.435-.38-4.571-.921-8.56a8.515 8.515 0 00-5.4-6.81l-10.407-3.974-8.29 1.907a9.168 9.168 0 00-4.973 3.02l-.03.036c-2.962 3.56-2.018 24.74-2.018 24.74.19 4.285-.107 10.577-2.632 18.417a64.744 64.744 0 0013.623 3.662c7.722 1.192 17.729.118 22.519-.571"/><path fill="#D3D5FC" d="M101.444 102.542c-2.212-14.581-2.242-25.292-1.471-31.867.166-1.435-.38-4.571-.921-8.56a8.515 8.515 0 00-5.4-6.81l-10.407-3.974-8.29 1.907a9.168 9.168 0 00-4.973 3.02l-.03.036c-2.962 3.56-2.018 24.74-2.018 24.74.19 4.285-.107 10.577-2.632 18.417a64.744 64.744 0 0013.623 3.662c7.722 1.192 17.729.118 22.519-.571"/><path fill="#FB9C98" d="M79.249 49.761l.25-7.083 7.048-.022-.274 7.912c.094 1.439 1.788 2.65 3.132 3.165l2.435.93c-.453 5.51-2.228 9.603-4.583 9.96-1.554.237-3.032-1.198-5.307-3.464a35.497 35.497 0 01-6.067-8.08c1.531-.352 3.199-1.758 3.366-3.318"/><path fill="#F26D6D" d="M85.326 49.358c.344-.023.677-.092.997-.196l.224-6.506-7.048.022-.05 1.396c.73 2.852 3.155 5.464 5.877 5.284"/><path fill="#FB9C98" d="M86.897 35.414c.244.195 2.101 1.717 2.472 4.22.49 3.324-1.745 7.668-5.094 7.89-3.202.212-5.997-3.445-6.097-6.806-.09-2.98 1.914-6.351 4.653-6.735 1.928-.27 3.56 1.03 4.066 1.43"/><path fill="#F95F6A" d="M87.004 31.852c.82 1.247-.134 3.388-1.131 4.573-2.455 2.92-7.785 3.14-8.92 1.308-.81-1.306.494-3.689 1.845-4.965 2.512-2.374 7.048-2.684 8.206-.916"/><path fill="#FB9C98" d="M76.483 40.042a1.552 1.552 0 113.102-.122 1.552 1.552 0 01-3.102.121"/><path fill="#EFEEFE" d="M77.714 41.207a.622.622 0 10-1.247.009.625.625 0 00.627.62.628.628 0 00.62-.629"/><path fill="#F6A19E" d="M70.449 233.766h4.54v-1.105h-4.54z"/><path fill="#F95F6A" d="M74.969 232.661s1.968 1.895 0 3.864H63.251c-.053-.233-.304-1.37.377-2.494.003-.01.01-.019.017-.028.527-.855 1.49-1.342 2.495-1.342h4.743s2.031 1.19 4.086 0"/><path fill="#D3D5FC" d="M62.924 237.783h12.392v-1.258H62.924z"/><path fill="#FB9C98" d="M70.956 230.602l.114 2.059h3.168v-2.187l-3.282.128"/><path stroke="#E1EEF7" stroke-width="3.118" d="M68.544 232.784l-.82 2.078m2.4-1.892l-.693 2.214"/><path fill="#F26D6D" d="M127.918 91.649l-2.782.073c-.59.143-1.56.407-2.715.87-2.518 1.012-3.309 1.933-4.553 1.656-.977-.216-1.794-1.068-2.045-1.953-.43-1.52.69-3.532 2.942-4.436l8.65-.227.503 4.017"/><path fill="#F9E0D2" d="M177.822 48.184l.924 5.27s1.134 4.103-1.38 9.68c-1.889 4.188-10.528 18.054-14.71 24.697a7.94 7.94 0 01-6.542 3.703l-30.32.668.01-4.982 28.936-4.872 13.149-29.506a8.382 8.382 0 019.933-4.658"/><path fill="#8754AF" d="M84.896 68.439c.06-5.162-3.676-12.475-6.328-17.108l-2.482 1.31c-.667.352-1.37.624-2.084.87a9.098 9.098 0 00-4.02 2.747l-.03.036c-2.962 3.56-2.018 24.74-2.018 24.74.19 4.285-7.545 26.479-10.07 34.318a64.662 64.662 0 0013.623 3.663c.577.089 7.361.94 7.962 1.005 1.244-8.142 5.363-44.372 5.447-51.581"/><path fill="#653087" d="M92.861 69.08c.984 7.328.157 42.746-.827 50.164 4.396-.183 12.512.369 15.077 0-.887-5.844-4.59-12.908-5.667-20.706-1.605-11.66-1.932-23.923-1.471-27.863.166-1.435-.38-4.571-.921-8.56a8.515 8.515 0 00-5.4-6.81l-4.844-1.849c1.608 4.813 3.423 10.924 4.053 15.625"/><path stroke="#653087" stroke-linecap="round" stroke-width="3.385" d="M78.174 52.73l-1.471 5.217 4.017 3.426-3.373 6.37 6.028 12.786"/><path fill="#F6A19E" d="M156.544 231.592l-.256.757 1.714 1.789 1.815-.797.67-.992.194-.782-4.137.025m43.71-.027l-.103.784.827 1.361 2.428-.229.727-.445.217-.687-.006-.996-4.09.212"/><path fill="#4463CD" d="M166.454 93.927s-5.627 10.532-10.607 137.78l6.341-.028 22.872-114.604V93.927h-18.606"/><path fill="#4463CD" d="M197.546 86.838s12.448 9.79 12.388 36.076c-.027 11.774-5.59 108.439-5.59 108.439l-4.09.212c-7.252-36.804-12.498-72.974-18.486-110.405-.857-.123-5.25-.442-6.01-1.337-1.668-1.962-.04-5.381-.074-6.886-.143-6.02-.18-19.787.21-24.861 4.817.4 17.128-.797 21.652-1.238"/><path fill="#2E3192" d="M204.344 231.353s5.563-96.665 5.59-108.439c.06-26.286-12.388-36.076-12.388-36.076-1.048.122-2.122.237-3.21.345l-2.928 1.867s8.806 51.51 8.596 82.312c-.12 17.115-.104 40.853-.07 58.57l.32 1.633 4.09-.212m-4.194.996s-2.02 1.946 0 3.968h8.75v-3.968h-4.55s-2.088 1.221-4.2 0"/><path fill="#2E3192" d="M205.484 236.317h6.828v-.865a3.103 3.103 0 00-3.102-3.103h-.62a3.105 3.105 0 00-3.106 3.103v.865m-5.69.843h12.812v-.843h-12.812zm-39.307-4.811s2.021 1.946 0 3.968h-10.334l.37-3.968h5.765s2.088 1.221 4.2 0m-13.757 4.861h14.113v-.893h-14.113z"/><path fill="#2E3192" d="M150.524 232.349a3.413 3.413 0 00-3.413 3.413v.555h3.413v-3.968"/><path fill="#47B27C" d="M178.3 100.37c.373.491 1.854.08 2.794-.702 1.418-1.177 1.481-3.06 1.488-3.376-.547.025-1.581.158-2.555.89-1.23.927-2.145 2.643-1.728 3.189"/><path fill="#2E3192" d="M191.748 27.955s1.935 1.609 1.995 6.287c.06 4.68-3.542 4.365-3.542 4.365l-.798-7.376 2.345-3.276"/><path fill="#F9E0D2" d="M164.943 99.408c-.45-6.02-.57-12.935 0-20.551.597-8.006 1.898-16.545 3.41-23.516a9.94 9.94 0 018.542-7.775c3.349-.398 6.708-.797 10.107-1.664l14.633 3.587a179 179 0 014.206 27.834c.574 8.064.55 15.476.204 22.085a93.198 93.198 0 01-13.803 2.045c-10.88.785-20.227-.466-27.299-2.045"/><path fill="#FFC5AE" d="M201.635 49.489l-12.875-3.587c.186 2.242 2.121 5.363 3.619 10.597.92 3.215 1.214 5.606 1.227 21.472.007 6.955-.043 14.793-.19 23.39a93.533 93.533 0 0012.629-1.953c.347-6.609.37-14.021-.204-22.085a179 179 0 00-4.206-27.834"/><path fill="#FB9C98" d="M190.09 48.518l-5.013-.026a1.818 1.818 0 01-1.804-1.94L184 35.693h7.125l.787 10.873a1.819 1.819 0 01-1.822 1.95"/><path fill="#F26D6D" d="M184 35.694l-.47 7.039c2.107-.335 4.239-1.823 5.3-3.726.55-.982.854-2.153.897-3.313H184"/><path fill="#FB9C98" d="M185.718 28.124c-.3.06-2.622.55-4.083 2.576-1.942 2.69-1.955 7.514.877 9.23 2.712 1.64 6.821-.295 8.44-3.196 1.43-2.57 1.207-6.437-1.022-8.017-1.564-1.112-3.585-.715-4.212-.593"/><path fill="#2E3192" d="M179.156 24.19c-.977 1.785 2.926 5.48 3.313 5.84 3.332 3.105 8.806 5.138 10.447 3.385.877-.936.577-2.86-.187-4.569a9.717 9.717 0 00-1.02-1.77c-3.386-4.597-11.402-4.988-12.553-2.885"/><path fill="#F6A19E" d="M192.792 36.328a1.53 1.53 0 10-3.052-.261 1.53 1.53 0 001.395 1.658 1.533 1.533 0 001.657-1.397"/><path fill="#2E3192" d="M191.708 27.076c-3.385-4.597-11.4-4.988-12.552-2.885-.977 1.784 2.926 5.478 3.313 5.838.016.016.036.031.053.047.717-.179 1.624-.429 2.902-.737 3.509-.849 5.62-1.13 6.868-1.356a8.715 8.715 0 00-.584-.907"/><path fill="#F95F6A" d="M187.242 48.518l-1.678 1.503.657 2.511 2.015-1.709-.994-2.305"/><path fill="#F95F6A" d="M186.288 52.238s-11.855 15.24-2.682 33.97l6.078-11.45-3.396-22.52"/><path fill="#FB9C98" d="M114.43 90.621l.856.096c.317.035.634.07.944.144a14.224 14.224 0 002.946 1.693c1.157.494 1.75.736 2.431.525 1.158-.36 2.025-1.867 1.651-2.819-.046-.115-.2-.45-1.334-1.045a10.9 10.9 0 00-2.592-.97c.05-.081.444-.728.194-1.127-.29-.47-1.374-.448-1.848 0-.147.14-.244.325-.51.423-.184.069-.387.038-.58.007l-1.522-.245c-.217 1.095-.423 2.223-.637 3.318"/><path fill="#8754AF" d="M69.909 56.048a11.434 11.434 0 00-2.375 10.758c1.758 6.005 4.843 15.004 8.87 20.569 6.183 8.542 39.006 3.533 39.006 3.533l-.024-3.628s-15.03-4.222-30.04-4.815c0 0-4.136-13.95-9.92-25.674-1.054-2.142-3.94-2.535-5.517-.743"/><path fill="#F26D6D" d="M121.944 87.79c-3.546.496-4.343.988-4.356 1.36-.02.515 1.424 1.377 2.768.896a2.417 2.417 0 001.588-2.257"/><path fill="#D3D5FC" d="M124.292 222.619c.6-1.802 3.206-10.274-1.427-17.514-2.775-4.34-8.403-8.628-11.288-7.084-2.812 1.506-2.355 8.205-.727 12.562 3.049 8.164 11.411 11.327 13.442 12.036"/><path stroke="#BBB4F8" stroke-width="1.468" d="M139.733 238.576s-8.986-6.64-15.44-15.957c-6.452-9.318-9.72-18.29-9.72-18.29m5.523 11.643l-4.586-1.933m1.267-4.699l1.078-4.177"/><path fill="#D3D5FC" d="M132.898 208.347c-2.128-1.759-11.878-10.184-11.761-22.683.07-7.488 3.693-17.117 8.44-17.44 4.626-.317 9.235 8.29 10.593 14.914 2.548 12.413-5.314 22.767-7.272 25.209"/><path stroke="#BBB4F8" stroke-width="1.468" d="M129.69 177.466s.426 15.747 3.208 30.88c2.782 15.134 5.861 29.798 5.861 29.798m-7.802-43.516l3.823-8.445m-4.644-.38c-.246-.943-.95-1.69-1.627-2.39l-2.192-2.27"/><path fill="#FB9C98" d="M223.647 112.067l.733 2.635c.43.523 1.001 1.317 1.481 2.382.454 1.01.684 1.514.51 2.076-.333 1.086-1.977 1.806-3.308 1.434-.74-.207-1.208-.7-1.418-.954l-1.71-6.132 3.712-1.441"/><path fill="#FB9C98" d="M220.808 115.528c-2.221 2.807-2.458 3.713-2.211 3.992.34.385 1.98.012 2.621-1.263a2.417 2.417 0 00-.41-2.729"/><path fill="#FFC5AE" d="M201.055 49.379a6.153 6.153 0 014.71 3.074c3.825 6.717 13.349 24.1 14.983 33.505 2.051 11.823 3.529 26.918 3.529 26.918l-5.043.84s-6.168-23.332-7.375-29.35c-1.211-6.017-14.69-29.063-14.69-29.063l-.547-6.388 4.433.464"/></g></svg>