<svg xmlns="http://www.w3.org/2000/svg" width="80" height="72"><defs><linearGradient id="a" x1="50%" x2="50%" y1="0%" y2="100%"><stop offset="0%" stop-color="#00C2FD"/><stop offset="100%" stop-color="#006DFA"/></linearGradient><linearGradient id="b" x1="50%" x2="50%" y1="0%" y2="100%"><stop offset="0%" stop-color="#FF5189"/><stop offset="100%" stop-color="#FF1B30"/></linearGradient></defs><g fill="none"><path fill="url(#a)" d="M5.95 37.215v6.65c0 .767.387 1.535.904 2.046.517.512 1.163.768 1.938.768.776 0 1.422-.256 2.068-.768l8.53-8.44h25.846c4.136 0 7.496-3.325 7.496-7.418V7.417c0-4.092-3.36-7.417-7.496-7.417H7.5C3.365 0 .005 3.325.005 7.417v22.508c-.13 3.581 2.455 6.65 5.944 7.29zm11.243-21.101h6.461V9.719h5.04v6.395h6.462V21.1h-6.462v6.395h-5.04V21.1h-6.461v-4.987z"/><path fill="url(#b)" d="M72.375 25.45H58.03v4.475c0 7.034-5.815 12.789-12.923 12.789H27.273v12.66c0 4.093 3.36 7.418 7.495 7.418h25.847l8.53 8.44c.516.512 1.292.768 2.067.768.776 0 1.422-.256 1.939-.767.517-.512.904-1.28.904-2.046v-6.65c3.36-.512 5.945-3.454 5.945-7.034V32.867c0-4.093-3.36-7.418-7.625-7.418z"/></g></svg>