<svg xmlns="http://www.w3.org/2000/svg" xmlns:xlink="http://www.w3.org/1999/xlink" width="98" height="103"><defs><linearGradient id="b" x1="50%" x2="50%" y1="0%" y2="100%"><stop offset="0%" stop-color="#FFF" stop-opacity=".5"/><stop offset="100%" stop-opacity=".5"/></linearGradient><path id="a" d="M57.474 53.122c11.652 0 21.295 7.646 24.108 18.512.804 2.012.402 3.622-.804 5.634C72.34 90.548 57.072 99 41 99S9.66 90.549 1.222 77.268C.016 75.256-.386 73.646.418 71.634c2.813-10.866 12.456-18.512 24.108-18.512h32.948zM41 0c12.054 0 21.697 9.659 21.697 21.732 0 11.67-9.643 21.731-21.697 21.731-12.054 0-21.697-10.06-21.697-21.731C19.303 9.659 28.946 0 41 0z"/></defs><g fill="none" fill-rule="evenodd"><use fill="#039CFC" xlink:href="#a"/><use fill="url(#b)" style="mix-blend-mode:overlay" xlink:href="#a"/><path fill="#FF375D" fill-rule="nonzero" stroke="#FFF" stroke-width="5" d="M75.553 59.869c1.73 0 3.44.637 4.667 1.834 1.094 1.066 1.857 2.58 1.857 4.59h0v7.158h6.756c2.01 0 3.524.763 4.59 1.857 1.197 1.228 1.834 2.937 1.834 4.668 0 1.73-.637 3.44-1.834 4.667-1.066 1.094-2.58 1.857-4.59 1.857h0-6.756v6.756c0 2.01-.763 3.523-1.857 4.59-1.227 1.197-2.937 1.834-4.667 1.834s-3.44-.637-4.668-1.834c-1.094-1.067-1.856-2.58-1.856-4.59h0V86.5h-6.757c-2.076 0-3.638-.743-4.739-1.792-1.307-1.244-1.986-2.981-1.986-4.732 0-1.751.68-3.488 1.986-4.733 1.101-1.049 2.663-1.792 4.74-1.792h6.756v-7.158c0-2.01.762-3.524 1.856-4.59 1.228-1.197 2.938-1.834 4.668-1.834z"/></g></svg>