<svg xmlns="http://www.w3.org/2000/svg" width="84" height="87"><path d="M35.256 26.39a21.907 21.907 0 0116.776 7.486 5.503 5.503 0 01.093 7.165l-.066.08a5.419 5.419 0 01-4.094 1.964 5.483 5.483 0 01-4.196-1.871 11.01 11.01 0 00-1.186-1.16 10.873 10.873 0 00-12.813-.903 10.78 10.78 0 00-2.491 2.141l-.1.113-13.652 16.466a11.123 11.123 0 001.646 15.777c4.797 3.626 11.577 2.805 15.388-1.861l5.768-6.958a5.477 5.477 0 017.757-.7c2.334 1.964 2.645 5.464.695 7.816l-5.75 6.935a22.583 22.583 0 01-13.402 7.772c-.676.12-1.358.208-2.044.264a21.51 21.51 0 01-16.023-5.209c-9.02-7.93-10.123-21.661-2.487-30.951l13.614-16.422a21.916 21.916 0 0116.567-7.944zM45.291 7.911c7.714-9.225 21.318-10.572 30.667-3.038a21.832 21.832 0 017.937 14.962 22.922 22.922 0 01-5.102 16.748L65.406 52.729a21.857 21.857 0 01-9.802 6.768 22.347 22.347 0 01-3.318.854 21.896 21.896 0 01-19.828-6.732 5.58 5.58 0 01.284-7.835 5.478 5.478 0 017.776.27 10.906 10.906 0 0016.297-.281l.124-.138L70.36 29.443c3.88-4.608 3.476-11.476-.917-15.59a10.928 10.928 0 00-8.096-2.754c-2.957.22-5.7 1.637-7.604 3.927l-6.455 7.786a5.485 5.485 0 01-5.171 1.91 5.517 5.517 0 01-4.226-3.559 5.582 5.582 0 01.945-5.467z" fill="#FA6400"/></svg>