<svg xmlns="http://www.w3.org/2000/svg" xmlns:xlink="http://www.w3.org/1999/xlink" width="148" height="99"><defs><path id="a" d="M133.643 61.659c6.821 0 12.466 4.556 14.112 11.032.47 1.2.235 2.159-.47 3.358C142.345 83.963 133.408 89 124 89s-18.346-5.037-23.285-12.951c-.705-1.2-.94-2.159-.47-3.358 1.646-6.476 7.291-11.032 14.112-11.032h19.286zM124 30c7.056 0 12.7 5.756 12.7 12.951 0 6.956-5.644 12.951-12.7 12.951-7.056 0-12.7-5.995-12.7-12.95C111.3 35.755 116.943 30 124 30z"/><path id="c" d="M33.643 61.659c6.821 0 12.466 4.556 14.112 11.032.47 1.2.235 2.159-.47 3.358C42.345 83.963 33.408 89 24 89S5.654 83.963.715 76.049c-.705-1.2-.94-2.159-.47-3.358C1.89 66.215 7.536 61.66 14.357 61.66h19.286zM24 30c7.056 0 12.7 5.756 12.7 12.951 0 6.956-5.644 12.951-12.7 12.951-7.056 0-12.7-5.995-12.7-12.95C11.3 35.755 16.943 30 24 30z"/><path id="d" d="M90.474 53.122c11.652 0 21.295 7.646 24.108 18.512.804 2.012.402 3.622-.804 5.634C105.34 90.548 90.072 99 74 99s-31.34-8.451-39.778-21.732c-1.206-2.012-1.608-3.622-.804-5.634 2.813-10.866 12.456-18.512 24.108-18.512h32.948zM74 0c12.054 0 21.697 9.659 21.697 21.732 0 11.67-9.643 21.731-21.697 21.731-12.054 0-21.697-10.06-21.697-21.731C52.303 9.659 61.946 0 74 0z"/><linearGradient id="b" x1="50%" x2="50%" y1="0%" y2="100%"><stop offset="0%" stop-color="#FFF" stop-opacity=".5"/><stop offset="100%" stop-opacity=".5"/></linearGradient><linearGradient id="e" x1="50%" x2="50%" y1="0%" y2="100%"><stop offset="0%" stop-color="#FFF" stop-opacity=".5"/><stop offset="100%" stop-opacity=".5"/></linearGradient></defs><g fill="none" fill-rule="evenodd"><use fill="#FF375D" xlink:href="#a"/><use fill="url(#b)" style="mix-blend-mode:overlay" xlink:href="#a"/><use fill="#F7B500" xlink:href="#c"/><use fill="url(#b)" style="mix-blend-mode:overlay" xlink:href="#c"/><use fill="#039CFC" xlink:href="#d"/><use fill="url(#e)" style="mix-blend-mode:overlay" xlink:href="#d"/></g></svg>