<svg xmlns="http://www.w3.org/2000/svg" xmlns:xlink="http://www.w3.org/1999/xlink" width="98" height="69"><defs><linearGradient id="b" x1="50%" x2="50%" y1="0%" y2="100%"><stop offset="0%" stop-color="#FFF" stop-opacity=".5"/><stop offset="100%" stop-opacity=".5"/></linearGradient><path id="a" d="M87.282 32.094c0-2.194-1.747-3.972-3.902-3.972H14.355c-2.155 0-3.902 1.778-3.902 3.972v32.935c0 2.193 1.747 3.971 3.902 3.971H83.38c2.155 0 3.902-1.778 3.902-3.971V32.094zM46.906 37.56v-1.677c0-1.102.879-1.996 1.96-1.996 1.083 0 1.962.894 1.962 1.996v1.677h3.68c1.08 0 1.96.894 1.96 1.996 0 1.1-.88 1.996-1.96 1.996h-3.68v5.191h.468c3.478 0 6.299 2.872 6.299 6.413v.352c0 3.54-2.82 6.412-6.3 6.412h-.467v1.318c0 1.101-.879 1.996-1.961 1.996s-1.96-.895-1.96-1.996V59.92h-3.68c-1.082 0-1.96-.895-1.96-1.996s.878-1.996 1.96-1.996h3.68v-5.193h-.468c-3.48 0-6.3-2.87-6.3-6.411v-.352c0-3.541 2.82-6.412 6.3-6.412h.467zm3.922 13.175v5.193h.468c1.312 0 2.377-1.084 2.377-2.42v-.352c0-1.337-1.065-2.42-2.377-2.42h-.468zm-3.922-9.183h-.467c-1.314 0-2.378 1.083-2.378 2.42v.352c0 1.336 1.064 2.42 2.378 2.42h.467v-5.192z"/></defs><g fill="none" fill-rule="evenodd"><use fill="#00BD34" xlink:href="#a"/><use fill="url(#b)" style="mix-blend-mode:overlay" xlink:href="#a"/><path fill="#00A12C" d="M6.952 54.939h-3.05C1.747 54.939 0 53.16 0 50.967V18.033c0-2.194 1.747-3.972 3.902-3.972h69.025c2.155 0 3.901 1.778 3.901 3.972v6.525H14.355c-4.089 0-7.403 3.374-7.403 7.536v22.845z"/><path fill="#008224" d="M21.172 10.497V3.97c0-2.192 1.746-3.97 3.901-3.97h69.025C96.253 0 98 1.778 98 3.971v32.935c0 2.194-1.747 3.972-3.902 3.972h-3.315v-8.784c0-4.162-3.314-7.536-7.403-7.536h-3.05v-6.525c0-4.162-3.315-7.536-7.403-7.536H21.172z"/></g></svg>