<svg xmlns="http://www.w3.org/2000/svg" width="24" height="24"><g fill="none"><path fill="#FFF" stroke="#E1E1E2" stroke-width="1.5" d="M12 .75c3.107 0 5.919 1.26 7.955 3.295C21.99 6.081 23.25 8.893 23.25 12s-1.26 5.919-3.295 7.955C17.919 21.99 15.107 23.25 12 23.25s-5.919-1.26-7.955-3.295C2.01 17.919.75 15.107.75 12s1.26-5.919 3.295-7.955A11.218 11.218 0 0112 .75z"/><path fill="#E1E1E2" d="M10.613 17.18v-5.494a1.387 1.387 0 012.774 0v5.494a1.386 1.386 0 01-2.774 0zM12 8.787a1.666 1.666 0 110-3.333 1.666 1.666 0 010 3.333z"/></g></svg>