<svg xmlns="http://www.w3.org/2000/svg" width="24" height="24"><g fill="none" fill-rule="evenodd"><path fill="#039CFC" d="M10.243 22.459l-.097.047a2.132 2.132 0 01-2.821-.916l-.051-.096a4 4 0 00-2.843-2.065l-.106-.019a2.133 2.133 0 01-1.744-2.4l.015-.107a4 4 0 00-1.086-3.342l-.075-.078c-.8-.827-.8-2.14 0-2.966l.075-.078a4 4 0 001.086-3.342l-.015-.107a2.133 2.133 0 011.744-2.4l.106-.019a4 4 0 002.843-2.065l.05-.096a2.134 2.134 0 012.822-.916l.097.047a4 4 0 003.514 0l.097-.047a2.132 2.132 0 012.821.916l.051.096a4 4 0 002.843 2.065l.106.019a2.133 2.133 0 011.744 2.4l-.015.107a4 4 0 001.086 3.342l.075.078c.8.827.8 2.14 0 2.966l-.075.078a4 4 0 00-1.086 3.342l.015.107a2.133 2.133 0 01-1.744 2.4l-.106.019a4 4 0 00-2.843 2.065l-.05.096a2.134 2.134 0 01-2.822.916l-.097-.047a4 4 0 00-3.514 0z"/><path fill="#FFF" fill-rule="nonzero" d="M7.412 11.561c.395-.395 1.032-.395 1.405 0l1.295 1.295a.477.477 0 00.659 0l4.412-4.412c.395-.395 1.032-.395 1.405 0 .395.395.395 1.032 0 1.405l-5.444 5.444c-.395.395-1.032.395-1.405 0l-2.327-2.327a.981.981 0 010-1.405z"/></g></svg>