<svg xmlns="http://www.w3.org/2000/svg" width="136" height="72"><g fill="none"><path fill="#000" d="M115.305 47.874l.096.01 15.263 2.69c.184.033.338.229.344.418l-.004.07-2.852 16.172c-.21 1.19-1.108 1.868-2.268 1.733l-.16-.023-13.613-2.4c-.38-.067-.7-.488-.689-.878l.01-.097 2.998-17.002c.068-.383.487-.704.875-.693zm-93.759.599l.024.094 2.998 17.002c.067.383-.217.827-.585.95l-.094.025-13.613 2.4c-1.184.209-2.124-.408-2.395-1.55l-.033-.16-2.852-16.172c-.032-.185.098-.398.273-.468l.067-.02 15.263-2.69c.38-.068.824.218.947.589zm72.748-4.304l.07.005 15.262 2.69c.381.068.7.488.689.879l-.01.097-2.998 17.002c-.067.382-.486.703-.875.693l-.096-.01-13.613-2.4c-1.184-.209-1.856-1.11-1.72-2.276l.023-.161 2.852-16.173c.032-.184.228-.34.416-.346zm-52.191.279l.02.067 2.851 16.173c.21 1.19-.402 2.134-1.539 2.404l-.158.033-13.613 2.4c-.38.068-.824-.219-.947-.59l-.024-.093-2.998-17.002c-.067-.383.217-.828.585-.951l.094-.024 15.263-2.691c.183-.033.395.099.466.274zm66.182-21.336c2.063.363 5.446 2.884 7.483 5.809 2.913-2.052 6.955-3.264 9.018-2.9 3.506.618 5.712 3.787 5.09 7.311-.275 1.562-1.066 2.842-2.17 3.7l-.21.156 5.774 1.019c1.184.208 1.857 1.11 1.72 2.276l-.023.16-1.023 5.806c-.032.182-.222.335-.407.346l-.08-.004-17.324-3.055c-.381-.067-.7-.487-.689-.878l.01-.097 1.17-6.634c.067-.383-.217-.828-.585-.951l-.094-.024-2.475-.437c-.381-.067-.824.22-.947.59l-.024.094-1.17 6.635c-.068.383-.487.704-.875.694l-.097-.01-17.325-3.055c-.18-.032-.333-.222-.344-.408l.005-.08 1.023-5.805c.21-1.19 1.108-1.867 2.269-1.733l.16.023 5.775 1.019c-.849-1.219-1.212-2.78-.92-4.438.622-3.525 3.779-5.748 7.285-5.13zM35 28.24c.276 1.561-.03 3.035-.774 4.22l-.145.218 5.776-1.019c1.183-.208 2.123.408 2.395 1.551l.033.16 1.023 5.805c.032.181-.093.39-.264.464l-.075.023-17.325 3.055c-.381.067-.824-.22-.948-.59l-.024-.094-1.17-6.635c-.067-.383-.486-.703-.875-.693l-.096.01-2.475.436c-.38.067-.7.487-.688.878l.01.097 1.17 6.634c.067.383-.217.828-.586.951l-.094.024L2.543 46.79c-.18.032-.389-.095-.463-.266l-.023-.076-1.023-5.805c-.21-1.19.402-2.134 1.538-2.405l.159-.032 5.775-1.019c-1.214-.855-2.089-2.197-2.381-3.856-.622-3.524 1.584-6.693 5.09-7.31 2.063-.365 6.105.847 9.018 2.899 2.037-2.925 5.42-5.446 7.483-5.81 3.506-.618 6.663 1.605 7.284 5.13zm82.416 4.604c.582.317 5.908 1.47 5.908 1.47 1.238.218 2.209-.466 2.428-1.71.22-1.244-.46-2.219-1.697-2.437-1.237-.218-5.146 1.444-6.64 2.677zm-105.47-2.677c-1.237.218-1.916 1.193-1.696 2.437.22 1.244 1.19 1.928 2.428 1.71 0 0 5.326-1.153 5.908-1.47-1.25-1.062-5.402-2.895-6.64-2.677zm93.18-1.2c-.219 1.244.46 2.22 1.698 2.437 0 0 1.35.185 2.781.357l.507.06c1.265.147 2.477.267 2.766.223-.812-1.426-4.086-4.568-5.323-4.786-1.238-.219-2.209.465-2.428 1.71zm-76.679-1.71c-1.237.219-4.342 3.118-5.323 4.787.289.044 1.501-.076 2.766-.223l.507-.06c1.431-.172 2.781-.357 2.781-.357 1.238-.218 1.917-1.193 1.697-2.437-.22-1.244-1.19-1.928-2.428-1.71z" opacity=".1"/><path fill="#039CFC" d="M62.96 39.6c.678 0 1.355.638 1.433 1.313l.007.127v29.52c0 .678-.638 1.355-1.313 1.433L62.96 72H39.2c-2.09 0-3.506-1.349-3.596-3.393L35.6 68.4V40.32c0-.33.303-.66.63-.713l.09-.007h26.64zm36.72 0c.33 0 .66.303.713.63l.007.09V68.4c0 2.09-1.349 3.506-3.393 3.596L96.8 72H73.04c-.678 0-1.355-.638-1.433-1.313l-.007-.127V41.04c0-.678.638-1.355 1.313-1.433l.127-.007h26.64zM82.4 0c6.12 0 10.8 4.68 10.8 10.8 0 2.88-1.08 5.4-2.88 7.2h10.08c2.16 0 3.6 1.44 3.6 3.6v10.08c0 .36-.36.72-.72.72H73.04c-.72 0-1.44-.72-1.44-1.44V19.44c0-.72-.72-1.44-1.44-1.44h-4.32c-.72 0-1.44.72-1.44 1.44v11.52c0 .72-.72 1.44-1.44 1.44H32.72c-.36 0-.72-.36-.72-.72V21.6c0-2.16 1.44-3.6 3.6-3.6h10.08c-1.8-1.8-2.88-4.32-2.88-7.2C42.8 4.68 47.48 0 53.6 0 57.2 0 63.68 3.24 68 7.56 72.32 3.24 78.8 0 82.4 0zM53.6 7.2c-2.16 0-3.6 1.44-3.6 3.6s1.44 3.6 3.6 3.6c0 0 2.53-.097 5.113-.241l.595-.034c2.179-.128 4.257-.287 4.732-.445-1.8-2.16-8.28-6.48-10.44-6.48zm28.8 0c-2.16 0-8.28 3.96-10.44 6.48.475.158 2.553.317 4.732.445l.893.05c2.475.135 4.815.225 4.815.225 2.16 0 3.6-1.44 3.6-3.6s-1.44-3.6-3.6-3.6z"/></g></svg>