<svg width="48" height="52" fill="none" xmlns="http://www.w3.org/2000/svg"><g filter="url(#filter0_d_366:221)" clip-path="url(#clip0_366:221)"><path d="M11.546 42.228a3.976 3.976 0 002.348.772c.628 0 1.258-.15 1.842-.454l7.306-3.788a.996.996 0 01.914 0l7.306 3.786a3.947 3.947 0 004.19-.316 3.89 3.89 0 001.552-3.83l-1.394-8.022a.906.906 0 01.268-.81l5.912-5.68a3.879 3.879 0 001.02-4.012 3.92 3.92 0 00-3.206-2.696L31.428 16a.952.952 0 01-.722-.516L27.05 8.182A3.943 3.943 0 0023.5 6a3.943 3.943 0 00-3.55 2.182l-3.654 7.304a.95.95 0 01-.724.514l-8.176 1.178a3.92 3.92 0 00-3.206 2.696 3.878 3.878 0 001.018 4.012l5.912 5.68a.91.91 0 01.27.812l-1.392 8.02a3.89 3.89 0 001.548 3.83z" fill="url(#paint0_linear_366:221)" shape-rendering="crispEdges"/></g><defs><linearGradient id="paint0_linear_366:221" x1="23.5" y1="2" x2="23.5" y2="43.001" gradientUnits="userSpaceOnUse"><stop stop-color="#00A8FF" stop-opacity="0"/><stop offset="1" stop-color="#00A8FF"/></linearGradient><clipPath id="clip0_366:221"><path fill="#fff" d="M0 0h48v52H0z"/></clipPath><filter id="filter0_d_366:221" x="-7" y="-1" width="60.999" height="59.001" filterUnits="userSpaceOnUse" color-interpolation-filters="sRGB"><feFlood flood-opacity="0" result="BackgroundImageFix"/><feColorMatrix in="SourceAlpha" values="0 0 0 0 0 0 0 0 0 0 0 0 0 0 0 0 0 0 127 0" result="hardAlpha"/><feOffset dy="4"/><feGaussianBlur stdDeviation="5.5"/><feComposite in2="hardAlpha" operator="out"/><feColorMatrix values="0 0 0 0 0.0431373 0 0 0 0 0.623529 0 0 0 0 0.988235 0 0 0 0.26 0"/><feBlend in2="BackgroundImageFix" result="effect1_dropShadow_366:221"/><feBlend in="SourceGraphic" in2="effect1_dropShadow_366:221" result="shape"/></filter></defs></svg>