<svg width="94" height="77" fill="none" xmlns="http://www.w3.org/2000/svg"><g filter="url(#filter0_d_366:224)" clip-path="url(#clip0_366:224)"><path d="M36.232 56.341a3.977 3.977 0 002.418-.514 3.982 3.982 0 001.363-1.32l4.406-6.95a.996.996 0 01.79-.46l8.218-.407a3.947 3.947 0 003.462-2.382 3.89 3.89 0 00-.587-4.09l-5.243-6.23a.906.906 0 01-.176-.835l2.25-7.884a3.879 3.879 0 00-1.139-3.98 3.92 3.92 0 00-4.127-.716l-7.658 3.098a.952.952 0 01-.883-.083l-6.835-4.47a3.943 3.943 0 00-4.166-.098 3.943 3.943 0 00-1.969 3.673l.52 8.15a.95.95 0 01-.367.809l-6.472 5.133a3.92 3.92 0 00-1.413 3.944 3.878 3.878 0 002.899 2.954l7.967 1.932a.91.91 0 01.642.566l2.835 7.63a3.89 3.89 0 003.265 2.53z" fill="url(#paint0_linear_366:224)" shape-rendering="crispEdges"/></g><g filter="url(#filter1_d_366:224)" clip-path="url(#clip1_366:224)"><path d="M57.435 51.997c.423.525.985.884 1.603 1.05.47.126.973.14 1.471.03l6.233-1.372c.244-.053.5.016.685.184l4.712 4.302a3.06 3.06 0 003.202.604 3.016 3.016 0 001.931-2.557l.566-6.289a.703.703 0 01.364-.552l5.568-3.069a3.008 3.008 0 001.57-2.8 3.04 3.04 0 00-1.861-2.663l-5.888-2.523a.738.738 0 01-.437-.532l-1.273-6.203a3.058 3.058 0 00-2.221-2.347 3.058 3.058 0 00-3.097.922L66.36 32.92c-.157.18-.4.27-.646.24l-6.36-.759a3.04 3.04 0 00-2.943 1.376 3.007 3.007 0 00-.042 3.21l3.288 5.44a.71.71 0 01.04.663l-2.653 5.728a3.016 3.016 0 00.39 3.18z" fill="url(#paint1_linear_366:224)" shape-rendering="crispEdges"/></g><defs><linearGradient id="paint0_linear_366:224" x1="26.312" y1="15.564" x2="46.95" y2="50.992" gradientUnits="userSpaceOnUse"><stop stop-color="#979797" stop-opacity=".09"/><stop offset="1" stop-color="#979797"/></linearGradient><linearGradient id="paint1_linear_366:224" x1="74.463" y1="24.264" x2="66.233" y2="54.975" gradientUnits="userSpaceOnUse"><stop stop-color="#979797" stop-opacity=".09"/><stop offset="1" stop-color="#979797" stop-opacity=".44"/></linearGradient><clipPath id="clip0_366:224"><path fill="#fff" transform="rotate(-30.223 52.914 14.289)" d="M0 0h56.772v55.826H0z"/></clipPath><clipPath id="clip1_366:224"><path fill="#fff" transform="rotate(15 -39.92 226.498)" d="M0 0h37.222v40.324H0z"/></clipPath><filter id="filter0_d_366:224" x="7.53" y="11.474" width="60.693" height="59.89" filterUnits="userSpaceOnUse" color-interpolation-filters="sRGB"><feFlood flood-opacity="0" result="BackgroundImageFix"/><feColorMatrix in="SourceAlpha" values="0 0 0 0 0 0 0 0 0 0 0 0 0 0 0 0 0 0 127 0" result="hardAlpha"/><feOffset dy="4"/><feGaussianBlur stdDeviation="5.5"/><feComposite in2="hardAlpha" operator="out"/><feColorMatrix values="0 0 0 0 0.592 0 0 0 0 0.592 0 0 0 0 0.592 0 0 0 0.19 0"/><feBlend in2="BackgroundImageFix" result="effect1_dropShadow_366:224"/><feBlend in="SourceGraphic" in2="effect1_dropShadow_366:224" result="shape"/></filter><filter id="filter1_d_366:224" x="44.926" y="20.153" width="51.417" height="51.855" filterUnits="userSpaceOnUse" color-interpolation-filters="sRGB"><feFlood flood-opacity="0" result="BackgroundImageFix"/><feColorMatrix in="SourceAlpha" values="0 0 0 0 0 0 0 0 0 0 0 0 0 0 0 0 0 0 127 0" result="hardAlpha"/><feOffset dy="4"/><feGaussianBlur stdDeviation="5.5"/><feComposite in2="hardAlpha" operator="out"/><feColorMatrix values="0 0 0 0 0.592 0 0 0 0 0.592 0 0 0 0 0.592 0 0 0 0.2 0"/><feBlend in2="BackgroundImageFix" result="effect1_dropShadow_366:224"/><feBlend in="SourceGraphic" in2="effect1_dropShadow_366:224" result="shape"/></filter></defs></svg>