<svg width="93" height="48" fill="none" xmlns="http://www.w3.org/2000/svg"><path d="M34.546 42.228a3.976 3.976 0 002.348.772c.628 0 1.258-.15 1.842-.454l7.306-3.788a.996.996 0 01.914 0l7.306 3.786a3.947 3.947 0 004.19-.316 3.89 3.89 0 001.552-3.83l-1.394-8.022a.906.906 0 01.268-.81l5.912-5.68a3.879 3.879 0 001.02-4.012 3.92 3.92 0 00-3.206-2.696L54.428 16a.952.952 0 01-.722-.516L50.05 8.182A3.943 3.943 0 0046.5 6a3.943 3.943 0 00-3.55 2.182l-3.654 7.304a.95.95 0 01-.724.514l-8.176 1.178a3.92 3.92 0 00-3.206 2.696 3.878 3.878 0 001.018 4.012l5.912 5.68a.91.91 0 01.27.812l-1.392 8.02a3.89 3.89 0 001.548 3.83z" fill="#FFBE00"/><path opacity=".8" d="M68.697 44.152a2.65 2.65 0 001.566.515c.418 0 .838-.1 1.228-.303l4.87-2.525a.664.664 0 01.61 0l4.87 2.524c.906.472 1.974.39 2.794-.211a2.593 2.593 0 001.034-2.553l-.929-5.348a.604.604 0 01.179-.54l3.941-3.787a2.586 2.586 0 00.68-2.675 2.613 2.613 0 00-2.137-1.797l-5.451-.785a.635.635 0 01-.481-.344l-2.438-4.868A2.629 2.629 0 0076.667 20a2.628 2.628 0 00-2.367 1.455l-2.436 4.869a.634.634 0 01-.483.343l-5.45.785a2.613 2.613 0 00-2.138 1.797 2.585 2.585 0 00.679 2.675l3.941 3.787a.606.606 0 01.18.541l-.928 5.347a2.593 2.593 0 001.032 2.553z" fill="#CABB55"/><path d="M7.697 44.152a2.65 2.65 0 001.566.515c.418 0 .838-.1 1.228-.303l4.87-2.525a.664.664 0 01.61 0l4.87 2.524c.906.472 1.974.39 2.794-.211a2.593 2.593 0 001.034-2.553l-.929-5.348a.604.604 0 01.179-.54l3.941-3.787a2.586 2.586 0 00.68-2.675 2.613 2.613 0 00-2.137-1.797l-5.451-.785a.635.635 0 01-.481-.344l-2.438-4.868A2.629 2.629 0 0015.667 20a2.628 2.628 0 00-2.367 1.455l-2.436 4.869a.634.634 0 01-.483.343l-5.45.785a2.613 2.613 0 00-2.138 1.797 2.585 2.585 0 00.679 2.675l3.941 3.787a.606.606 0 01.18.541l-.928 5.347a2.593 2.593 0 001.032 2.553z" fill="#CABB55"/></svg>