<svg xmlns="http://www.w3.org/2000/svg" xmlns:xlink="http://www.w3.org/1999/xlink" width="682" height="459"><defs><filter id="a" width="196.9%" height="253.2%" x="-48.5%" y="-44.3%" filterUnits="objectBoundingBox"><feOffset dy="40" in="SourceAlpha" result="shadowOffsetOuter1"/><feGaussianBlur in="shadowOffsetOuter1" result="shadowBlurOuter1" stdDeviation="25"/><feColorMatrix in="shadowBlurOuter1" values="0 0 0 0 0 0 0 0 0 0 0 0 0 0 0 0 0 0 0.1 0"/></filter><filter id="c" width="196.9%" height="231.4%" x="-48.5%" y="-38.1%" filterUnits="objectBoundingBox"><feOffset dy="40" in="SourceAlpha" result="shadowOffsetOuter1"/><feGaussianBlur in="shadowOffsetOuter1" result="shadowBlurOuter1" stdDeviation="25"/><feColorMatrix in="shadowBlurOuter1" values="0 0 0 0 0 0 0 0 0 0 0 0 0 0 0 0 0 0 0.1 0"/></filter><path id="b" d="M434.349 146.546c2.86-5.035 6.407-12.11 9.2-20.345 13.966-7.805 23.412-22.732 23.412-39.864 0-25.205-20.444-45.638-45.66-45.638-25.216 0-45.656 20.433-45.656 45.638 0 17.284 9.615 32.325 23.786 40.071-.016 1.737.08 12.415 4.846 20.138H368c-5.523 0-10-4.477-10-10V32.507c0-5.523 4.477-10 10-10h176c5.523 0 10 4.477 10 10v104.039c0 5.523-4.477 10-10 10H434.349z"/><path id="d" d="M10 180.557h176c5.523 0 10-4.478 10-10V46.01c0-5.523-4.477-10-10-10H10c-5.523 0-10 4.477-10 10v124.546c0 5.522 4.477 10 10 10z"/></defs><g fill="none" fill-rule="evenodd"><path fill="#000" fill-opacity=".2" d="M531 267.506v10.08h-1.5v-10.08h1.5zm0-20.158v10.08h-1.5v-10.08h1.5zm-329.5-6.09v1.318h-5.628v-1.319h5.628zm-15.69 0v1.318h-10.062v-1.319h10.062zm-20.124 0v1.318h-10.062v-1.319h10.062zm-20.124 0v1.318H135.5v-1.319h10.062zM531 227.185v10.081h-1.5v-10.08h1.5zm-394.188-6.163v10.117H135.5v-10.117h1.312zM531 207.028v10.077h-1.5v-10.077h1.5zm-394.188-6.238v10.115H135.5V200.79h1.312zM531 186.867v10.08h-1.5v-10.08h1.5zm-394.188-6.31v10.116H135.5v-10.116h1.312zM531 166.707v10.08h-1.5v-10.08h1.5zm0-20.161v10.08h-1.5v-10.08h1.5zM408 63.203v1.317h-7.335v-1.317H408zm-17.416 0v1.317h-10.082v-1.317h10.082zm-20.16 0v1.317h-10.081v-1.317h10.081zm-20.162 0v1.317h-10.08v-1.317h10.08zm-20.161 0v1.317h-10.08v-1.317h10.08zm-12.828-16.121v10.095h-1.315V47.082h1.315zm0-20.19v10.094h-1.315V26.891h1.315zm-180.458-.996V35.99H135.5V25.896h1.315zM317.273 6.702v10.095h-1.315V6.702h1.315zm-180.458-.996V15.8H135.5V5.706h1.315zM151.278 0v1.317h-10.08V0h10.08zm20.162 0v1.317h-10.08V0h10.08zm20.16 0v1.317h-10.08V0h10.08zm20.161 0v1.317h-10.08V0h10.08zm20.162 0v1.317h-10.08V0h10.08zm20.161 0v1.317h-10.08V0h10.08zm20.161 0v1.317h-10.08V0h10.08zm20.162 0v1.317h-10.08V0h10.08zm20.161 0v1.317h-10.08V0h10.08z"/><path fill="#000" d="M285 148.547l5.354 13.17s2.937 3.1 5.646 3.335l-3.81-14.567-7.19-1.938"/><path fill="#A55C5C" d="M328.453 169.717l.015.038 9.354 26.185-40.637 7.624-4.076-39.387-.002-.008-1.407-9.499c-2.324-.995-4.262-2.006-5.874-3.002-5.519-3.399-7.256-6.7-7.326-9.447l.001-.114c-.06-4.19 3.713-7.094 3.713-7.094l-1.432-25.183 49.888-3.797c.398.955.787 1.903 1.163 2.83l.057.158c1.963 4.875 3.565 9.37 4.834 13.505l.043.13c14.283 46.617-8.314 47.061-8.314 47.061"/><path fill="#000" d="M289.5 115.17l7.06 26.281-5.455-.488s-3.78-6.143-8.748-4.821c-2.128.566-4.633 4.83-3.82 7.903 0 0-24.487-30.041-7.593-34.535 0 0 20.18-47.752 37.822-21.717 0 0 18.744-13.463 17.297 4.935 0 0 14.838-8.185 12.732 15.686l-1.564 15.427-5.291-14.712s-11.23 7.274-31.243 4.121c0 0 5.57 4.876 14.317 5.728 0 0-16.698 1.263-25.513-3.809M332 179.046c-18.498.489-26.255-16.922-26.5-17.495 4.57 4.704 15.976 6.928 23.142 8.013l3.358 9.482"/><path fill="#FFAA3F" d="M442 205.275v52.058l-20.847-3.437-26.95-4.44 16.445 138.887-24.487 1.806-114.734 8.476-3.925-90.074-.022-.476-46.041 45.494-.439-56.43 19.732-71.303 54.373-34.558c26.31 19.246 38.148-10.061 38.148-10.061l42.285-1.15c3.918-.106 7.82.62 11.439 2.138l42.835 17.962 2.044.857L442 205.275"/><path fill="#000" d="M236.644 338.854l-14.71 14.757-.434-56.604 14.84-54.431c8.879 26.444 6.002 73.029.304 96.278"/><path fill="#A55C5C" d="M232.269 345.66s-18.321 26.891-29.847 0c-3.466-8.094-3.32-23.497 9.616-56.435 1.04-2.64 2.158-5.4 3.364-8.273l3.374-11.368 18.36 2.188s1.194 13.313 1.349 28.904c.164 17.115-.924 36.973-6.216 44.985"/><path fill="#BAD0F7" d="M216.15 222.653l87.47-14.503c3.355-.558 6.528 1.703 7.086 5.05l10.21 61.24c.558 3.346-1.71 6.511-5.066 7.066l-87.47 14.503c-3.355.555-6.527-1.707-7.086-5.05l-10.21-61.24a6.143 6.143 0 015.066-7.066"/><path fill="#000" d="M442 205.33v52.25l-20.73-3.449c-3.69-5.772-3.254-15.432-3.254-15.432.833-10.067 7.243-24.148 13.897-37.636L442 205.329"/><path fill="#A55C5C" d="M221.893 292.091l-.88-4.4s16.286-11.44 14.965-19.357c0 0-1.32-2.639-6.162 2.198 0 0 8.363-10.117 7.043-13.638 0 0-1.761-3.52-7.923 1.76 0 0 4.421-9.017 2.8-14.37-.278-.918-1.436-1.223-2.161-.59-1.726 1.501-5.392 4.913-12.523 12.32 0 0 7.042-18.037 2.2-22.438 0 0-1.76-.44-7.042 9.238 0 0-7.703 13.859-6.602 17.601 0 0 1.32 2.199 2.64 2.199 0 0-2.64 6.16 3.082 10.12 0 0-3.082 4.4.88 9.677 0 0 1.76 9.68 9.683 9.68M456.15 149.067s-28.36 64.145-30.118 73.338c0 0-10.553 26.271 11.431 34.151 8.417 3.019 23.467.579 29.898-24.08 4.981-19.098 12.093-77.717 12.093-77.717s9.042-12.333 14.661-29.406c1.053-3.196-.105-6.698-2.845-8.666-5.607-4.028-14.838-9.352-17.532-3.086 0 0 3.955-36.34-3.958-32.838 0 0-3.958-1.314-4.837 15.325l-4.837 26.27s-7.035-21.454-14.508-18.827l3.955 22.768s-.44 14.448 6.598 22.768"/><path fill="#FFF" d="M274 252.08a8 8 0 01-16 .001c0-4.42 3.582-8.005 8-8.005 4.419 0 8 3.584 8 8.005"/><path fill="#D99136" d="M271.92 398.625L268 308.597c13.99 48.927 28.442 76.91 118.5 81.556l-114.58 8.472"/><path fill="#000" d="M396.892 283.589l-5.392-54.294 2.108-.223L399 283.369l-2.108.22m-177.126-4.502l-.766-1.056 12.734-9.447.766 1.059-12.734 9.444m-.991-12.003l-.775-1.031 12.725-9.973.775 1.031-12.725 9.973m-2.303-8.503l-.972-.899 12.528-12.605.972.899-12.528 12.605m-8.742-5.001l-1.23-.475c4.907-12.097 11.44-19.46 11.505-19.532l.995.852c-.064.072-6.453 7.28-11.27 19.154m13.673 39.013c-2.064 0-3.858-.623-5.343-1.853-3.553-2.946-4.04-8.315-4.06-8.54l1.328-.11c.004.048.465 5.05 3.589 7.634 1.456 1.204 3.289 1.707 5.45 1.49l.133 1.32c-.374.04-.74.059-1.097.059"/><path fill="#96B1CC" d="M594.875 292.143l-20.188 88.62a4.96 4.96 0 01-4.842 3.857H456.969c-3.188 0-5.552-2.952-4.843-6.056l20.184-88.616a4.963 4.963 0 014.846-3.858H590.03c3.188 0 5.552 2.953 4.846 6.053"/><path fill="#96B1CC" d="M378.5 385.121H467v-9.503h-88.5z"/><path fill="#BAD0F7" d="M601.375 292.176l-20.187 89.069a4.97 4.97 0 01-4.843 3.876H463.471c-3.188 0-5.552-2.97-4.846-6.087l20.187-89.065a4.973 4.973 0 014.843-3.88h112.874c3.188 0 5.552 2.97 4.846 6.087"/><path fill="#FFF" d="M526.8 334.864c-1.096 4.765.904 9.293 4.469 10.114 3.56.825 7.338-2.37 8.431-7.132 1.096-4.764-.907-9.292-4.468-10.114-3.561-.825-7.34 2.371-8.432 7.132"/><g transform="translate(50)"><use fill="#000" filter="url(#a)" xlink:href="#b"/><use fill="#FFF" xlink:href="#b"/></g><path fill="#AA7983" d="M484.22 146.546h-30.33c-4.808-7.595-4.905-18.095-4.889-19.803 6.553 3.49 14.067 5.474 22.06 5.474 8.146 0 15.799-2.06 22.439-5.677-2.817 8.097-6.395 15.055-9.28 20.006"/><path fill="#C2CDF8" d="M449.204 126.54c-14.122-7.73-23.704-22.74-23.704-39.986 0-25.152 20.37-45.541 45.498-45.541 25.13 0 45.502 20.39 45.502 45.541 0 17.095-9.413 31.991-23.331 39.78l.325-.981a7.719 7.719 0 00-2.827-8.657c-3.727-2.69-9.06-5.96-12.99-5.96-1.948 0-3.548.803-4.434 2.878 0 0 .3-2.784.57-6.735 9.987-1.372 17.686-9.949 17.686-20.325 0-11.331-9.178-20.517-20.5-20.517-11.32 0-20.498 9.186-20.498 20.517 0 8.416 5.062 15.649 12.308 18.813l-3.114 16.994s-6.207-19.03-13.14-19.03c-.424 0-.851.072-1.278.223l3.93 22.743s0 .084-.003.243"/><path fill="#957DA8" d="M471.169 132.041c-7.88 0-15.289-2.03-21.75-5.602.003-.16.003-.245.003-.245l-3.922-22.937a3.754 3.754 0 011.276-.225c6.919 0 13.112 19.192 13.112 19.192l3.109-17.139a20.17 20.17 0 008.172 1.718c.954 0 1.89-.065 2.809-.193-.27 3.985-.57 6.792-.57 6.792.885-2.092 2.482-2.901 4.426-2.901 3.922 0 9.244 3.297 12.963 6.01a7.83 7.83 0 012.822 8.73l-.325.99a44.813 44.813 0 01-22.125 5.81"/><path fill="#A5B4F5" d="M473.813 106.533c.657-9.701 1.12-26.415-3.494-26.415-.312 0-.647.077-1.01.238 0 0-.074-.024-.201-.024-.816 0-3.851.982-4.607 15.396l-1.692 9.287A20.608 20.608 0 01450.5 86.123c0-11.378 9.178-20.602 20.498-20.602 11.324 0 20.502 9.224 20.502 20.602 0 10.42-7.699 19.032-17.687 20.41"/><path fill="#8880C0" d="M471.25 107.034c-2.932 0-5.723-.608-8.25-1.705l1.705-9.252c.761-14.36 3.819-15.339 4.64-15.339.13 0 .203.025.203.025a2.528 2.528 0 011.018-.238c4.647 0 4.181 16.652 3.52 26.317a21.04 21.04 0 01-2.836.192"/><path fill="#BAD0F7" d="M535 45.014h25v-4.501h-25zm-.5 11.004H579v-4.502h-44.5zm0 10.003H579v-4.502h-44.5zm0 11.003H579v-4.501h-44.5z"/><g transform="translate(50)"><use fill="#000" filter="url(#c)" xlink:href="#d"/><use fill="#FFF" xlink:href="#d"/></g><path fill="#BAD0F7" d="M59.25 53.017h20.5a2.251 2.251 0 000-4.501h-20.5a2.25 2.25 0 000 4.5zm0 10.003h40a2.251 2.251 0 000-4.501h-40a2.25 2.25 0 000 4.5z"/><path fill="#96B1CC" d="M57 140.544h181v-1.5H57zm0-31.51h181v-1.5H57zm0-33.51h181v-1.501H57z" opacity=".1"/><path fill="#BAD0F7" d="M213 172.554h21.5V64.52H213zm-25.5-.5H209V82.026h-21.5zm-25 .5H184V85.527h-21.5zm-25.5-.5h21.5v-66.021H137zm-25 .5h21.5v-34.511H112zm-25.5-1H108v-41.513H86.5zm-25.5.5h21.5v-17.005H61z"/><path fill="#FFF" d="M57 172.554h181v-1H57z"/><path fill="#6F85EE" d="M72.659 165.552l-1.159-3.314 25.374-8.931 25.202 4.284 24.962-34.265 25.433 4.839 25.054-31.632 25.885-8.505 1.09 3.337-24.886 8.178-25.717 32.468-25.338-4.82-24.933 34.226-26.445-4.496-24.522 8.631"/><path fill="#C92041" d="M227 89.528a2.5 2.5 0 11-5 0 2.5 2.5 0 015 0m-26 9.002a2.501 2.501 0 11-4.998 0 2.501 2.501 0 014.998.001m-25 31.009a2.5 2.5 0 11-5.001.001 2.5 2.5 0 015.001-.001m-26-4a2.5 2.5 0 11-5.002 0 2.5 2.5 0 015.002-.001m-25 34.011a2.5 2.5 0 11-5 0 2.5 2.5 0 015 0m-25-4.501a2.5 2.5 0 11-5.002 0 2.5 2.5 0 015.002-.001m-25.5 8.503a2.5 2.5 0 11-5.001.001 2.5 2.5 0 015.001-.001"/><path fill="#D6E3F8" d="M77 458.644h581.5v-59.519H77z"/><path fill="#96B1CC" d="M77 423.133h581.5v-24.008H77z"/><path fill="#D6E3F8" d="M53.5 407.128H682v-22.007H53.5z"/><path fill="#00CAB4" d="M149.987 276.447c-.082 1.73-.582 3.783-1.65 6.201-2.025 4.589-8.984 17.946-8.984 17.946l-4.833-.433-.249-1.294c-.715-3.722-2.78-14.434-3.56-18.494-1.117-5.809 2.143-13.545 10.893-12.73 3.266.306 8.694 2.361 8.383 8.804"/><path fill="#00CAB4" d="M131.85 297.655l-4.094 1.939-.517-.548-6.22-6.576a8.183 8.183 0 01-1.342-1.883c-.862-1.672-1.962-4.743-.36-7.509.727-1.253 1.902-2.177 3.243-2.728 1.366-.564 3.458-1.134 5.327-.448 1.826.67 3.44 2.537 3.964 6.779.336 2.722 0 10.974 0 10.974"/><path fill="#FFF" d="M133.275 276.587l-.275-2.428 1.225-.073.275 2.424-1.225.077m8.343 2.5l-1.118-.123.382-1.877 1.118.123-.382 1.877m-8.118 5.502h1v-2h-1zm8.379 2.501l-.879-.271.621-1.73.879.272-.621 1.729M135 293.592h1v-2.001h-1zm4.5-22.507h1v-2.001h-1zm-12.948 15.005l-.552-1.764.948-.237.552 1.767-.948.234m-3.843 5.001l-1.209-1.479.791-.521 1.209 1.479-.791.521m4.033 3.501l-.742-2.08.758-.421.742 2.081-.758.42m-5.889-9.503l-.853-1.543.647-.457.853 1.543-.647.457"/><path fill="#00AA91" d="M149.5 276.587c-.081 1.72-.574 3.76-1.628 6.165-1.997 4.562-8.86 17.842-8.86 17.842l-4.766-.43s-.093-.48-.246-1.287l1.456-.931c9.845-9.672 13.22-16.674 14.044-21.36m-18.141 21.538l-3.87 1.97-.489-.557c1.21-2.19 4.765-13.666.613-19.45 1.725.682 3.25 2.579 3.746 6.888.318 2.766 0 11.149 0 11.149"/><path fill="#00CAB4" d="M147.5 309.847c0 7.595-6.157 13.754-13.75 13.754a13.726 13.726 0 01-11.177-5.74 13.69 13.69 0 01-2.573-8.014c0-7.595 6.157-13.754 13.75-13.754 2.477 0 4.801.654 6.81 1.805a13.748 13.748 0 016.94 11.949"/><path fill="#FFF" d="M125.122 303.595l-.622-1.729.878-.272.622 1.73-.878.271m5.847 2.501l-.469-2.331 1.031-.17.469 2.331-1.031.17m8.031-1h1v-2.001h-1z"/><path fill="#00AA91" d="M147.5 309.684c0 7.685-6.175 13.917-13.79 13.917-4.62 0-8.708-2.29-11.21-5.807 21.933-4.75 19.84-15.828 18.04-20.2a13.932 13.932 0 016.96 12.09"/><path fill="#ACC5EA" d="M152.969 312.914l-5.157 28.863a4.05 4.05 0 01-3.989 3.331h-19.65a4.047 4.047 0 01-3.984-3.33l-5.157-28.864a1.97 1.97 0 011.94-2.317h34.053c1.228 0 2.16 1.11 1.944 2.317"/><path fill="#96B1CC" d="M152.5 317.1l-4.4 24.662a4.061 4.061 0 01-4 3.346H136l16.5-28.009"/><path fill="#FFF" d="M146.381 276.086l-.881-.272.619-1.728.881.272-.619 1.728M134.5 299.594h1v-2.001h-1z"/><path fill="#000" d="M118.5 311.097H152v-1.5h-33.5z"/><path fill="#C92041" d="M187.714 353.04v-4.598H191v-3.834h-79.158c-5.712 0-10.342 4.591-10.342 10.253s4.63 10.253 10.342 10.253H191v-3.834h-3.286v-8.24"/><path fill="#00CAB4" d="M177.214 373.046v-4.598h3.286v-3.834h-79.158c-5.712 0-10.342 4.591-10.342 10.253s4.63 10.254 10.342 10.254H180.5v-3.834h-3.286v-8.241"/><path fill="#FFF" d="M178 368.115v13.505h-46.921c-3.634 0-6.579-3.024-6.579-6.753 0-1.09.251-2.12.7-3.033 1.082-2.205 3.307-3.719 5.879-3.719H178"/><path fill="#D9D9D9" d="M178 374.617l-10.973-.59v-5.912H178v6.502m-12.65-.68l-2.57-.138 1.139-1.39 1.431 1.528m-4.15-.222l-36.2-1.947a6.598 6.598 0 015.9-3.653h30.3v5.6"/><path fill="#FFF" d="M188.5 348.109v13.504h-46.922c-3.633 0-6.578-3.023-6.578-6.752 0-1.09.251-2.12.7-3.033 1.082-2.206 3.307-3.719 5.878-3.719H188.5"/><path fill="#000" d="M154.5 348.609h6.303v8.276h6.697v19.233l-3.152-3.269-2.757 3.269v-17.694H154.5v-9.815"/><path fill="#D9D9D9" d="M188.5 354.611l-28.066-1.509v-4.993H188.5v6.502m-34.28-1.844l-18.72-1.006a6.599 6.599 0 015.9-3.652h12.82v4.658"/><path fill="#000" d="M160.5 353.111l-6-.336v-4.666h6v5.002"/></g></svg>